<svg id="Livello_1" data-name="Livello 1" xmlns="http://www.w3.org/2000/svg" viewBox="0 0 696.69 368.37"><defs><style>.cls-1{fill:#b9bcc4;}.cls-2{fill:#036e79;}</style></defs><path class="cls-1" d="M743.18,507.27c-2.07,7.09-9.64,7.09-9.64,7.09-16.19,0-16.19-22.28-16.19-22.28v-54c0-39.83-11-67.51-52.33-67.51,0,0-17.56-1-32.71,6.75-18.59,9.79-23.76,19.24-26.85,24.64s-2.76,12.83,1.37,18.57c5.51,7.76,16.87,9.45,24.79,4.05,7.92-5.74,10-16.54,4.13-24.31a16.8,16.8,0,0,0-11.7-6.75c-2.07-.34-.35-6.41,11.7-12.49,25.83-12.15,44.42,6.41,44.42,41.19v20.25c-59.57,14.85-88.49,20.26-88.49,55.7,0,34.43,39.6,34.43,39.6,34.43,24.1,0,44.41-12.49,49.23-28,3.1,28.35,31.68,28,31.68,28,20,0,33.74-12.82,36.15-23.29Zm-63-59.08v47.94c-3.1,8.1-11.36,18.57-26.17,18.57-21.69,0-24.79-19.59-24.79-24.31,0-18.91,14.12-34.1,51-42.2" transform="translate(-51.66 -215.82)"/><path class="cls-1" d="M581.59,499.12c-2.75,6.08-10.68,13.17-20.66,13.17-16.87,0-25.82-9.45-25.82-32.41V378.6H574.7l1.38-5.06h-41V321.22L498.61,327v46.58H480.36l1,5.06h17.22V480.89c0,40.85,15.84,51.65,41.66,51.65,21.69,0,39.94-15.53,45.79-30.72Z" transform="translate(-51.66 -215.82)"/><path class="cls-1" d="M470.61,486.29c-7.23,12.16-31.33,25-52.68,21.95-24.1-3.72-46.82-20.93-46.82-61.78,0-60.43,35.46-70.9,48.54-70.9,18.25,0,26.86,7.43,23.76,8.45a16.92,16.92,0,0,0-10,10.46,18.55,18.55,0,0,0,10.67,24.31,20,20,0,0,0,25.13-11.14c3.1-6.42.69-14.52-3.44-19.59-4.47-5.06-16.87-17.55-46.14-17.55-55.78,0-86.42,40.85-86.42,80.68,0,44.57,33.74,81.36,75.41,81.36,42.69,0,61.63-27,66.1-43.88Z" transform="translate(-51.66 -215.82)"/><path class="cls-2" d="M345.06,525.84c-12.15-.9-22.49,1.35-37.34-34.65,0,0-30.15-76.94-112.94-275.37h-5.85l-25.71,68.67c42,106.07,62.15,155.85,62.15,155.85l14.4,36c5.4,12.6,19.35,49.5-10.35,49.5v6.74H345.06Z" transform="translate(-51.66 -215.82)"/><path class="cls-1" d="M226.44,443l-2.94-7.64H110.41c-35.86,85.09-46.93,88.53-58.75,90.44v6.77H154.09v-6.52c-64.95,2.6-41.85-65.22-35.75-82.61" transform="translate(-51.66 -215.82)"/><path class="cls-1" d="M322.38,571.51l5.94-14.87h.09l5.84,14.87Zm-9.57,11.85h5l3.1-8H335.8l3.15,8h5L330.49,551h-3.86Zm-24.1-15.1H295a7.72,7.72,0,0,1,4.92,1.44,5.2,5.2,0,0,1,1.81,4.33,5,5,0,0,1-.71,2.79,5.61,5.61,0,0,1-1.73,1.67,6.31,6.31,0,0,1-2.19.82,12.27,12.27,0,0,1-2.15.21h-6.24Zm0-13.45h6.69a4.67,4.67,0,0,1,3.76,1.41,5,5,0,0,1,1.2,3.34,4.93,4.93,0,0,1-.47,2.25,4.31,4.31,0,0,1-1.26,1.51,4.94,4.94,0,0,1-1.86.84,9.66,9.66,0,0,1-2.26.25h-5.8Zm-4.26,28.55h10.77a15.25,15.25,0,0,0,4.3-.59A11,11,0,0,0,303,581a8,8,0,0,0,3.23-6.68,8.8,8.8,0,0,0-.53-3.07,8.38,8.38,0,0,0-1.44-2.49,7.23,7.23,0,0,0-2.15-1.74,6.33,6.33,0,0,0-2.66-.76v-.09a8.68,8.68,0,0,0,3.9-2.59,6.72,6.72,0,0,0,1.51-4.55,8.22,8.22,0,0,0-.73-3.59,6.92,6.92,0,0,0-2-2.52,8.93,8.93,0,0,0-3-1.49,13.89,13.89,0,0,0-3.79-.5h-10.9ZM257.2,554.81h5.58a14.41,14.41,0,0,1,2.46.2,6.34,6.34,0,0,1,2.17.76,4,4,0,0,1,1.53,1.58,6.46,6.46,0,0,1,0,5.35,4,4,0,0,1-1.53,1.58,6.55,6.55,0,0,1-2.17.75,14.42,14.42,0,0,1-2.46.21H257.2ZM253,583.36h4.25V569.08h4.74l8,14.28h5.32l-8.91-14.78a8.31,8.31,0,0,0,3.21-1,8.57,8.57,0,0,0,4-4.58,8.69,8.69,0,0,0,.53-3,12.11,12.11,0,0,0-.44-3.13A7.42,7.42,0,0,0,272,554a8.35,8.35,0,0,0-3.08-2.15,12.41,12.41,0,0,0-5-.85H253Zm-31.5,0h21v-4.12H225.7V568.85h14.89v-4.11H225.7v-9.66h16V551H221.45Zm-24.55,0h4L213.25,551H208.6L199,577.32h-.08L189.72,551H184.8Zm-64.25,0h4.25V556.73H137l17.46,26.63h5.41V551H155.6v26.63h-.08L138.23,551h-5.58ZM100.88,579a11.65,11.65,0,0,1-3.72-2.77,12.37,12.37,0,0,1-2.39-4.1,15.36,15.36,0,0,1,0-10,12.37,12.37,0,0,1,2.39-4.1,11.47,11.47,0,0,1,3.72-2.76,12.05,12.05,0,0,1,9.75,0,11.37,11.37,0,0,1,3.72,2.76,12.2,12.2,0,0,1,2.39,4.1,15.19,15.19,0,0,1,0,10,12.2,12.2,0,0,1-2.39,4.1,11.54,11.54,0,0,1-3.72,2.77,12.05,12.05,0,0,1-9.75,0m11.48,3.84a15.39,15.39,0,0,0,5.16-3.59,17,17,0,0,0,3.37-5.4,19.17,19.17,0,0,0,0-13.46,16.8,16.8,0,0,0-3.37-5.39,15.27,15.27,0,0,0-5.16-3.6,17.43,17.43,0,0,0-13.21,0A15.37,15.37,0,0,0,94,555a16.8,16.8,0,0,0-3.37,5.39,19.32,19.32,0,0,0,0,13.46,17,17,0,0,0,3.37,5.4,15.49,15.49,0,0,0,5.16,3.59,17.43,17.43,0,0,0,13.21,0m-60.7.48h4.25V556.73H56l17.46,26.63h5.4V551H74.61v26.63h-.09L57.24,551H51.66Z" transform="translate(-51.66 -215.82)"/></svg>