<svg xmlns="http://www.w3.org/2000/svg" viewBox="0 0 725.13 298.48"><defs><style>.cls-1{fill:#e31e24;}.cls-2{fill:#171796;}</style></defs><g id="Livello_1" data-name="Livello 1"><path class="cls-1" d="M480.63,299h0c0-4.27-.06-8.29,0-12.31,0-1.45-.61-1.63-1.81-1.62s-1.86.11-1.83,1.61c.09,4.62.07,9.25,0,13.87,0,1.26.36,1.67,1.62,1.65,4.37-.06,8.75,0,13.12,0a10.92,10.92,0,0,0,1.15-.12V299H480.63m137.61-14h0c-1.59.1-2.94-.12-4,.34s-1.49,1.57-2.22,2.39l-4.32,4.83a72.31,72.31,0,0,1-5.55-6.11c-1.44-2-3.14-1.23-5.2-1.33a12.88,12.88,0,0,0,1,1.64c1.48,1.63,3,3.23,4.51,4.83,2.09,2.22,4.11,4.29,3.57,7.88-.43,2.81-.09,2.87,2.85,2.61.08,0,.15-.11.34-.24,0-1.72,0-3.52,0-5.32a2.62,2.62,0,0,1,.63-1.49c2.5-2.86,5.06-5.66,7.57-8.51A7.49,7.49,0,0,0,618.24,285Zm-63.9,17.07h0c.62,0,1.07,0,1.5.08,1.36.18,1.94-.3,1.81-1.75a22.2,22.2,0,0,1,0-3.91,3.29,3.29,0,0,1,.73-1.83c2.28-2.58,4.66-5.09,7-7.65a14.54,14.54,0,0,0,1.27-1.94c-1.09,0-1.84-.06-2.57,0a3.38,3.38,0,0,0-1.9.53c-2.12,2.25-4.12,4.6-6.22,7-1.57-1.75-3.25-3.35-4.61-5.18s-3.19-2.93-5.92-2.09a11.11,11.11,0,0,0,.93,1.41q3.21,3.57,6.47,7.09a5.07,5.07,0,0,1,1.56,4.3A33.94,33.94,0,0,0,554.34,302.1Zm98.13-.06h0V288.29h7.7c.28-3.19.28-3.19-2.58-3.19-4.83,0-9.65,0-14.48,0-1.15,0-1.88.07-1.86,1.57s.56,1.7,1.8,1.65c2-.08,4,0,6.1,0v11C649.15,302.42,649.15,302.42,652.47,302ZM351.06,285.23H332.53v3.12h7.37c0,.4.07.6.07.79,0,3.92,0,7.84,0,11.76,0,1.47.91,1.28,1.8,1.28s1.9.2,1.81-1.28c-.07-1.3,0-2.61,0-3.91v-8.74h7.5Zm-178.45,3h0c0,.44.1.64.1.84,0,3.92,0,7.84,0,11.76,0,1.47.89,1.31,1.8,1.3s1.89.22,1.82-1.27,0-3,0-4.52v-8.1c2.14,0,4.09,0,6,0,1.15,0,1.88-.05,1.87-1.57s-.56-1.66-1.8-1.65c-5.23.05-10.46,0-15.69,0-.48,0-1,.06-1.46.09v3.08Zm49.58,0h0c2.13,0,4.09,0,6,0,1.15,0,1.87-.07,1.86-1.57s-.57-1.66-1.8-1.65c-5.23.05-10.46,0-15.69,0-.48,0-1,.06-1.46.09v3.13h7.46c0,4.17.07,8.14,0,12.1,0,1.45.46,1.8,1.81,1.79s1.88-.29,1.84-1.77C222.12,296.49,222.19,292.52,222.19,288.29Zm165.23,14.19h0a10.58,10.58,0,0,0,8.07-2.88c.44-.39,1.52-1,.56-1.6-.78-.51-1.67-1.68-2.89-.73a9.84,9.84,0,0,1-11.05.88c-2.75-1.52-3.2-6.39-.84-8.45,3-2.59,8.93-2.26,11.19-.23,1.28,1.14,2.21.81,3.31.26.24-.12.41-1.05.25-1.18a21.43,21.43,0,0,0-3.79-2.82c-2.79-1.43-5.85-1.2-8.78-.57-3.21.69-5.86,2.47-6.89,5.75a8,8,0,0,0,1.94,8.59C380.94,301.89,384,302.58,387.42,302.48ZM145.8,285.2h0c-.5-.05-.79-.09-1.09-.09-2.19-.06-2.19-.06-2.19,2.08,0,2.92.09,5.84,0,8.76a5.3,5.3,0,0,0,3.34,5.32c3.92,1.92,8,1.66,11.92.29a5.63,5.63,0,0,0,4.07-6c-.1-3-.09-6,0-9.06,0-1.48-.78-1.46-1.81-1.45s-1.87-.06-1.83,1.44c.1,3.06,0,6.14,0,9.2a2.73,2.73,0,0,1-1.82,2.95,11.4,11.4,0,0,1-7.27.46c-2.8-.88-3.33-1.55-3.33-4.47Zm153.45,4.09h0a13.69,13.69,0,0,0-1.36-1.7c-4.42-4-13.57-3.95-17.58,1.09-2.55,3.21-1.86,9,1.38,11.44s6.76,2.56,10.4,2.29a8.66,8.66,0,0,0,5.5-2.39c1.74-1.69,1.78-1.75-.38-2.8-.46-.22-1.25.09-1.82.33s-1.21.85-1.88,1.13a11.35,11.35,0,0,1-7.21.26,5.62,5.62,0,0,1-3.21-8.31c2.53-3.62,9.5-3.12,11.79-1.36C296.65,290.63,296.88,290.65,299.25,289.29ZM276.1,302.17h0a12.54,12.54,0,0,0-.6-1.63c-2.59-4.91-5.2-9.81-7.79-14.72-.69-1.32-1.87-.52-2.81-.7a1.51,1.51,0,0,0-1.82.91c-2.26,4.34-4.61,8.65-6.91,13-.48.91-.9,1.85-1.35,2.78,2.31.92,3.37.58,4.32-1.36a2.83,2.83,0,0,1,3.11-1.91,47.75,47.75,0,0,0,6.33,0c1.43-.07,2.42.17,3,1.7a3.82,3.82,0,0,0,1.84,1.88C274.05,302.42,275,302.17,276.1,302.17ZM118,302h0c3,.63,3.38.5,4.65-2.14a1.89,1.89,0,0,1,2-1.3,61.93,61.93,0,0,0,7.08,0,2.71,2.71,0,0,1,3.14,1.95c.79,1.92,2.17,2.27,4.3,1.25-1.71-3.26-3.41-6.53-5.13-9.79-.93-1.76-1.85-3.54-2.85-5.26a3.72,3.72,0,0,0-4.28-1.51,1.25,1.25,0,0,0-.59.59q-4,7.54-8,15.11A6.24,6.24,0,0,0,118,302Zm189.62-8.8h0c0-2.47-.07-4.58,0-6.68.06-1.38-.71-1.43-1.71-1.38s-1.94-.25-1.91,1.33c.06,4.78.07,9.56,0,14.33,0,1.5.82,1.42,1.83,1.43s2,0,1.77-1.45c-.5-2.8.43-4.82,3.07-6a1.34,1.34,0,0,0,.32-.31c.73-.82,1.3-.52,1.93.19,2,2.24,4,4.45,6.05,6.66a4.07,4.07,0,0,0,4.66.39l-9-10,8.16-6.06a5.61,5.61,0,0,0-5.09.06Zm97.22,8.95h0V295h12.42v4.43c0,2.89,0,2.89,2.92,2.65.08,0,.16-.09.29-.17V285.21c-.35,0-.64-.09-.93-.1-2.28-.09-2.28-.08-2.28,2.14v4.39H404.82v-6.46h-3.15v16.93Zm56.47-17.53h0a36.6,36.6,0,0,0-4.34.86,8.78,8.78,0,0,0-6.5,8.34c0,3,1.63,5.11,3.87,6.89,3.18,2.52,11.39,2.43,14.79-.49s4.1-8.63,1-11.84A11.7,11.7,0,0,0,461.32,284.58Zm45,.23h0a9.42,9.42,0,0,0-6.07,1.51c-2.91,1.84-4.73,4.29-4.44,7.91a8,8,0,0,0,4.81,7,13.7,13.7,0,0,0,11.86.08,8.28,8.28,0,0,0,3.32-12.6A10.68,10.68,0,0,0,506.29,284.81Zm-308.81-.23h0a31.83,31.83,0,0,0-4.49.88c-3.33,1.15-5.74,3.4-6.32,7s1.1,6.15,3.83,8.26c3,2.32,11.13,2.62,14.81-.55,3.08-2.65,4.18-8.33,1.14-11.65A11.38,11.38,0,0,0,197.48,284.58Zm466.55.6h0v17c5.66,0,11.23,0,16.79,0,1.32,0,.79-1.14.89-1.85s-.19-1.33-1.15-1.32c-2.77,0-5.53,0-8.3,0h-4.94v-4.06H669c2.16,0,4.33,0,6.48,0,.46,0,1.17-.29,1.3-.63.65-1.64,0-2.52-1.81-2.52h-7.69v-3.48h13.41v-3.08ZM575.62,299.6h0c1.18.64,2.09,1.26,3.09,1.67,3.67,1.51,7.5,1.4,11.33.88a5.83,5.83,0,0,0,5-4.92c.2-2.72-1.27-4.5-4.71-5.13-2.78-.52-5.64-.58-8.43-1-.7-.11-1.3-.88-1.94-1.34.55-.49,1-1.29,1.66-1.42,3.34-.68,6.64-.7,9.71,1.13,1.27.76,1.63-.48,2.18-1.13s.24-1.36-.5-1.69c-4.73-2.12-9.52-2.88-14.38-.4a4.36,4.36,0,0,0-2.26,4.54,3.76,3.76,0,0,0,3.32,3.21c3,.43,6,.61,9,1,1.14.13,2.42.39,2.67,1.73s-.95,1.83-2,2.35c-2.27,1.09-4.53.42-6.74,0a36.91,36.91,0,0,1-5.23-1.75Zm60.48-9.81h0c.5-.53.92-1,1.38-1.47.63-.62.58-1-.25-1.47a16.24,16.24,0,0,0-14-1c-2,.78-3,2.73-2.78,5.12.14,1.5,1.59,2.8,3.58,3.08,3.19.44,6.41.76,9.59,1.26a2.31,2.31,0,0,1,1.55,1.23,1.59,1.59,0,0,1-1,2.21c-2.14.74-4.33,1.3-6.57.66a31.08,31.08,0,0,1-5.16-1.85c-1.73-.84-1.61,1-2.44,1.43.24.44.38,1.1.75,1.27a21.7,21.7,0,0,0,4.8,1.87c3.55.69,7.14.88,10.54-.82a5,5,0,0,0,3-5.07,4.59,4.59,0,0,0-4-3.84c-3-.52-6.09-.85-9.15-1.22-.88-.1-1.75-.13-1.91-1.24s.66-1.47,1.53-1.64A15,15,0,0,1,636.1,289.79Zm-277.7-1.5h1.79c3.47,0,6.94,0,10.41,0,1.24,0,1.37-.6,1.36-1.6s0-1.64-1.33-1.63c-4.82.06-9.65,0-14.47,0-1,0-1.41.34-1.41,1.39q.08,7.17,0,14.33c0,1.07.4,1.39,1.42,1.38,5,0,9.95-.05,14.93,0,1.29,0,1.46-.56,1.48-1.65S372.25,299,371,299c-3.67.06-7.34,0-11,0-.53,0-1.06-.05-1.56-.07v-4c2.71,0,5.32,0,7.92,0,1,0,1.3-.32,1.36-1.3.07-1.4-.29-2-1.82-1.93-2.49.12-5,0-7.53,0ZM442.27,298h0c-3.74-4-7.29-7.63-10.65-11.44a4.26,4.26,0,0,0-3.76-1.49c-1.17,0-1.57.37-1.55,1.57.05,4.62.07,9.25,0,13.87,0,1.37.45,1.73,1.74,1.7s2-.12,1.9-1.69c-.12-2.65,0-5.32,0-8v-3l1,1.09c2.62,2.82,5.18,5.71,7.89,8.44,1.41,1.42,2.44,3.49,5.09,3.15,1.25-.17,1.75-.38,1.73-1.73-.08-4.23,0-8.45,0-12.67,0-2.9,0-2.9-2.9-2.68a2.69,2.69,0,0,0-.44.24Zm99.37-8.85h0a3,3,0,0,0-.26-.52c-4.29-5.32-14.22-5.31-18.4.22a7.92,7.92,0,0,0,1.18,11c3.85,3.32,8.53,3.43,13.14,1.89,3.3-1.1,6.44-5,5.33-8.68H531.5v2.88h7.16c-1.38,3.24-6.29,4.45-9.59,3.09a6,6,0,0,1-4.1-5.62c-.14-2,2-4.56,4.21-5.08,3.51-.84,6.86-.63,9.54,2.36Zm-289,12.74h0l-4-6c.36-.23.59-.41.85-.55,2.54-1.35,3.45-3.36,2.83-6.26a5.77,5.77,0,0,0-5.14-3.93c-4.17-.05-8.34,0-12.5,0-1,0-1.33.34-1.33,1.32,0,4.82.06,9.65,0,14.47,0,1.45.87,1.31,1.79,1.29s1.89.25,1.82-1.25,0-3.08,0-4.85c3.69.38,7.87-1.61,10,3.22.09.23.29.41.39.63C248.36,302,250,302.67,252.68,301.89ZM697.6,294.7h0a7.57,7.57,0,0,1-.87-.82c-1.89-2.37-3.94-4.65-5.59-7.18-1.08-1.66-2.42-1.64-4-1.61-.82,0-1.18.31-1.18,1.16q0,7.39,0,14.78c0,.86.37,1.18,1.18,1.15s1.35,0,2.2,0v-12.8l8.14,10.31c1.39-1.75,2.67-3.38,4-5s2.59-3.17,4.15-5.08c0,4.07,0,7.68,0,11.29,0,1.49.92,1.27,1.81,1.28s1.83.18,1.81-1.29c-.06-4.82,0-9.65,0-14.48a1.91,1.91,0,0,0-.3-1.1c-.47-.52-3.57-.21-4,.37C702.43,288.66,700,291.66,697.6,294.7Zm-460.87-1.76v-4.65h5.7c1.46,0,2.92,0,4.38,0a2.33,2.33,0,0,1,2.29,2.31,2.26,2.26,0,0,1-2.12,2.31C243.62,293,240.26,292.94,236.73,292.94Zm-39.47,6.35c-3.61,0-5.91-1.29-6.78-3.81a5.74,5.74,0,0,1,5.18-7.45,16.92,16.92,0,0,1,4.6.28,5.34,5.34,0,0,1,4.45,6,5.9,5.9,0,0,1-5.49,5C198.57,299.32,197.92,299.29,197.26,299.29ZM506.36,288c2.89-.08,5.19.56,6.59,2.79,2.17,3.45.26,7.46-3.86,8.54a9.88,9.88,0,0,1-7.72-1.3c-1.87-1.09-3-5.37-1-7.63A7,7,0,0,1,506.36,288Zm-44.9,11.64a8.71,8.71,0,0,1-5.67-2.05c-3-2.43-1.8-6.9,1-8.54,3.17-1.87,8.1-1.39,10.62,1.22a5.29,5.29,0,0,1-.83,7.64A9,9,0,0,1,461.46,299.62Zm-332.87-11,3.43,6.6h-6.91C126.27,293,127.34,291,128.59,288.64ZM262,295.25c1.18-2.24,2.25-4.29,3.49-6.66l3.39,6.66Zm490.2,18-1.77.89a12.62,12.62,0,0,0-1.74.28c-2.75.84-5.46,1.83-8.23,2.55a52,52,0,0,1-13.1,2q-329.89-.07-659.79,0c-.8,0-1.61,0-2.41.06l.06,0c-.4-1-.73-2.06-1.21-3-1.06-2.17-1.7-4,0-6.48C71.71,298,79.2,286.42,86.64,274.77a4.29,4.29,0,0,1,4.22-2.22q304.26.06,608.52,0c5.7,0,11.42-.22,17.1-.64a15.68,15.68,0,0,0,8.42-2.69,3.51,3.51,0,0,0,1.43-2.06c.28-2.28.3-4.59.36-6.89q.19-6.91.31-13.84.18-13.19.3-26.37c0-4.63,0-9.26,0-13.88a5.11,5.11,0,0,0-2.07-4.24c-3.53-3-7.86-3.72-12.17-3.74-35.07-.11-70.14-.06-105.22-.06-.55,0-1.1,0-1.65.06l.07,0c-.14-.12-.26-.33-.41-.36l-7.12-1.24-4.92-.85.07,0a20.1,20.1,0,0,0-2.24-1,51.72,51.72,0,0,1-19.33-10.61,40.32,40.32,0,0,1-11.09-16.18A41.91,41.91,0,0,1,558.47,152c.22-8.7.06-17.41.06-26.11a6.81,6.81,0,0,1,.06-1.5c1.16-5.47,2.62-10.81,5.5-15.7a44.88,44.88,0,0,1,12.72-13.94,57.31,57.31,0,0,1,21.24-9.43c3.43-.76,6.9-1.92,10.36-1.92q83-.18,166-.09h1.84c.54,1.13,1,2.11,1.49,3.11,1.61,3.48,1.66,3.51-.14,6.28-7.71,11.88-15.47,23.74-23.16,35.65a2.67,2.67,0,0,1-2.57,1.32q-62.62.11-125.24.33a45.14,45.14,0,0,0-9.13,1.29c-3.55.75-6,2.8-6.44,6.69-.17,1.64-.27,3.28-.28,4.93a6.68,6.68,0,0,0,3.78,6.18c4.11,2.23,8.67,2.7,13.19,2.71q50,.14,100.07,0a63.74,63.74,0,0,1,19.07,3.08,50.65,50.65,0,0,1,19.49,10.91,41,41,0,0,1,10.73,15.73,46.14,46.14,0,0,1,3.08,17.08c-.11,25.87-.05,51.73-.05,77.59a7.61,7.61,0,0,1,0,1.51c-1.15,5.46-2.59,10.81-5.45,15.72A43.66,43.66,0,0,1,761,308C758.2,309.94,755.16,311.54,752.21,313.27Z" transform="translate(-58.37 -20.92)"/><path class="cls-2" d="M606.22,198.21c.55,0,1.1-.06,1.65-.06,35.08,0,70.15-.05,105.22.06,4.31,0,8.64.78,12.17,3.74a5.11,5.11,0,0,1,2.07,4.24c-.08,4.62,0,9.25,0,13.88q-.12,13.19-.3,26.37-.11,6.93-.31,13.84c-.06,2.3-.08,4.61-.36,6.89a3.51,3.51,0,0,1-1.43,2.06,15.68,15.68,0,0,1-8.42,2.69c-5.68.42-11.4.64-17.1.64q-304.26,0-608.52,0a4.29,4.29,0,0,0-4.22,2.22C79.2,286.42,71.71,298,64,309.51c-1.67,2.49-1,4.31,0,6.48.48,1,.81,2,1.21,3a6.57,6.57,0,0,1-.89-1.11c-1.84-3.72-3.58-7.49-5.49-11.17a3.52,3.52,0,0,1,.34-4c2.55-3.76,5-7.55,7.55-11.34,5.62-8.49,11.25-17,16.81-25.5a3.75,3.75,0,0,1,3.52-1.94q310.65,0,621.3,0A40.6,40.6,0,0,0,720,262.05c1.74-.51,2.24-1.35,2.27-3.19q.13-10.77.3-21.54c.08-5.26.2-10.53.3-15.8.1-6.32.17-12.64.33-19,0-1.29-.45-1.79-1.65-2.2a32.31,32.31,0,0,0-10.56-1.71q-51.39-.06-102.79,0a9.44,9.44,0,0,1-1.93-.39" transform="translate(-58.37 -20.92)"/><path class="cls-2" d="M752.21,313.27c2.95-1.73,6-3.33,8.83-5.23a43.66,43.66,0,0,0,13.67-14.64c2.86-4.91,4.3-10.26,5.45-15.72a7.61,7.61,0,0,0,0-1.51c0-25.86-.06-51.72.05-77.59a46.14,46.14,0,0,0-3.08-17.08,41,41,0,0,0-10.73-15.73,50.52,50.52,0,0,0-19.49-10.91,63.74,63.74,0,0,0-19.07-3.08q-50,.14-100.07,0c-4.52,0-9.08-.48-13.19-2.71a6.68,6.68,0,0,1-3.78-6.18c0-1.65.11-3.3.28-4.93.4-3.89,2.89-5.94,6.44-6.69a45.14,45.14,0,0,1,9.13-1.29q62.63-.27,125.24-.33a2.67,2.67,0,0,0,2.57-1.32c7.69-11.91,15.45-23.77,23.16-35.65,1.8-2.77,1.75-2.8.14-6.28-.46-1-.95-2-1.49-3.11h-1.84q-83,0-166,.09c-3.46,0-6.93,1.16-10.36,1.92a57.31,57.31,0,0,0-21.24,9.43,45,45,0,0,0-12.72,13.94c-2.88,4.89-4.34,10.23-5.5,15.7a6.81,6.81,0,0,0-.06,1.5c0,8.7.16,17.41-.06,26.11a41.91,41.91,0,0,0,2.78,16.09,40.32,40.32,0,0,0,11.09,16.18,51.72,51.72,0,0,0,19.33,10.61,20.1,20.1,0,0,1,2.24,1c-2-.58-4-1-6-1.74a46.52,46.52,0,0,1-15.06-8.6,51.24,51.24,0,0,1-6.82-7.38,75.35,75.35,0,0,1-7.38-10.87,36.77,36.77,0,0,1-4.38-18q.26-12.45,0-24.9c-.11-5.07,1.22-9.77,2.94-14.4a41.54,41.54,0,0,1,9.91-15,52.85,52.85,0,0,1,19-11.85,111.43,111.43,0,0,1,18.41-4.78,7.59,7.59,0,0,1,1.35,0q83.25,0,166.51,0c1.86,0,3.2.48,3.86,2.35a1.93,1.93,0,0,0,1,1,8.24,8.24,0,0,1,3.3,11.52q-7.77,11.91-15.63,23.78c-2.12,3.21-4.21,6.43-6.44,9.56a8.63,8.63,0,0,1-7.52,4q-59.92-.12-119.86,0c-4.32,0-8.75.25-12.86,2.14s-5,7.78-2.74,10.89c.71,1,2.61,1.38,4,1.47,5.14.35,10.3.63,15.45.64q45.81.07,91.63,0a60.94,60.94,0,0,1,15.76,2.29,48.24,48.24,0,0,1,13.58,5.29c3.82,2.39,7.59,4.89,11.19,7.61a39.33,39.33,0,0,1,11.18,13.36,40.11,40.11,0,0,1,4.59,13.67,80.29,80.29,0,0,1,.61,9.55c0,24.2,0,48.41,0,72.61A38.54,38.54,0,0,1,780.16,285a63.93,63.93,0,0,1-9,14.79,42.48,42.48,0,0,1-12.6,10.63q-2.35,1.32-4.75,2.52a6.17,6.17,0,0,1-1.57.33" transform="translate(-58.37 -20.92)"/><path class="cls-2" d="M449.38,147.94c-2.87-.57-5.73-1.23-8.61-1.69s-5.61-.85-8.44-1c-2.57-.17-5.16,0-7.74,0-6.8-.17-13.37,1.16-19.9,2.82l-7.06,1.77v-3.64l-1.32.32a1.65,1.65,0,0,1-2.28-1.55,12,12,0,0,1,0-1.2V75.15c0-2.07,0-2.07-2.07-2.07q-32.76,0-65.52,0a17.65,17.65,0,0,1-4-.91c-.28-.07-.56-.33-.82-.29-1.33.17-1.66-.58-1.61-1.65a1.68,1.68,0,0,0-.34-.15c-3.19-.21-3.21-.24-3.21-3.46V23.71c0-2.31.49-2.79,2.83-2.79H526.38c2.3,0,2.47.16,2.89,2.3a1.32,1.32,0,0,0,.64.86c2.63,1,3.23,3.3,3.24,5.71.07,12.13,0,24.26,0,36.38,0,4.67-2.21,6.91-6.85,6.91H458.7c-1.77,0-3.44.36-4.34,2a5.66,5.66,0,0,0-.56,2.58q0,31,0,62c0,2.51-.11,5-2.32,6.84-.41.34-.45,1.15-.73,1.95l-1.37-.64c1.19-.08,1.15-.9,1.15-1.79q0-36.45,0-72.91c0-2.16,0-2.16,2.12-2.16h77.17V24.84h-209V71.07h77.48v77.82c3.43-.83,6.72-1.79,10.08-2.39a108.75,108.75,0,0,1,14-2,90.35,90.35,0,0,1,14.23.57c4,.41,7.89,1.41,11.82,2.19a3.88,3.88,0,0,1,1.07.67" transform="translate(-58.37 -20.92)"/><path class="cls-2" d="M95.4,258.61c-1.09-1.76-2.24-3.48-3.26-5.27-.87-1.52-1.44-3.21-2.41-4.65-1.24-1.83-1-3.54-.15-5.35,2.7-5.91,5.44-11.8,8.09-17.74,3.74-8.39,7.39-16.82,11.12-25.22,1.58-3.56,3.25-7.09,4.85-10.64q5.16-11.49,10.29-23,4.09-9.09,8.19-18.18,5.73-12.79,11.43-25.59l7.65-17.1q5.85-13.06,11.7-26.13c1.28-2.87,2.48-5.78,3.82-8.63a2,2,0,0,1,1.45-.95c3.55-.18,7.11-.33,10.67-.33q31.24,0,62.5,0c2,0,3.7.3,4.24,2.63a1.23,1.23,0,0,0,.72.63A6.62,6.62,0,0,1,250,76.65Q255,87.78,260,98.92c2,4.32,4,8.63,5.89,13,2.69,6,5.31,12.07,8,18.1,1.91,4.29,3.89,8.55,5.8,12.84,3.22,7.21,6.4,14.44,9.62,21.64,2.35,5.25,4.75,10.47,7.1,15.72q5.67,12.65,11.31,25.32c2.24,5,4.52,10,6.77,15,3,6.66,6,13.32,8.91,20a34.88,34.88,0,0,1,2.44,6.25c.42,1.81.36,3.74,1.26,5.47.11.21-.07.64-.22.92-.77,1.46-1.64,2.87-2.33,4.36a2.32,2.32,0,0,1-2.46,1.49q-28.38-.06-56.76,0-46.73,0-93.44,0a10,10,0,0,1-1.92-.37l0,0c.7,0,1.4-.09,2.1-.09q49.65,0,99.31,0,25.22,0,50.41,0c.75,0,1.47.09,1.91-.78.79-1.56,1.72-3,2.47-4.63a2.35,2.35,0,0,0,0-1.71c-2.6-5.89-5.25-11.77-7.89-17.65-2.29-5.1-4.61-10.19-6.89-15.3-3.19-7.16-6.34-14.34-9.54-21.5-2.23-5-4.53-10-6.76-15-3.2-7.16-6.35-14.34-9.54-21.5-2.24-5-4.53-10-6.77-15-2.79-6.25-5.53-12.51-8.32-18.76-2.15-4.84-4.34-9.66-6.49-14.5-3.15-7.07-6.27-14.15-9.42-21.22-2.37-5.34-4.77-10.67-7.19-16.09h-1.61q-36.23,0-72.45,0a2.37,2.37,0,0,0-2.52,1.72q-4.56,10.43-9.2,20.82-5.73,12.87-11.5,25.72l-11.16,25q-5.58,12.53-11.17,25Q122,186,116.26,198.84q-5.58,12.51-11.17,25c-4,8.85-7.88,17.7-11.92,26.51a4,4,0,0,0,.38,4.39,28.33,28.33,0,0,1,1.83,3.85Z" transform="translate(-58.37 -20.92)"/><path class="cls-2" d="M170,258.61c-.5-.82-1.06-1.61-1.49-2.47a8.1,8.1,0,0,0-2.05-2.8c-1.11-.94-1.66-2.56-2.43-3.89-.15-.25-.14-.61-.31-.83-1.85-2.33-.94-4.27.51-6.47,6.59-10,13-20.1,19.5-30.17,1.22-1.89,2.33-3.85,3.51-5.76a2.9,2.9,0,0,1,2.73-1.46q23.78.08,47.55,0a27.82,27.82,0,0,0,3.19-.36c-10.64-23.75-21.19-47.3-31.81-71-1.7,1.09-2.16,2.85-2.86,4.36-2.07,4.44-4,8.94-6,13.41q-4.68,10.56-9.35,21.11c-2.3,5.15-4.65,10.29-7,15.45-3.33,7.43-6.63,14.87-10,22.31-2.72,6.06-5.47,12.12-8.18,18.18-3.22,7.21-6.4,14.44-9.63,21.64-.45,1-1.05,1.94-1.59,2.9-1,1.73-1.89,3.49-2.95,5.16a2.27,2.27,0,0,1-1.57,1q-26.64.07-53.29,0a4.07,4.07,0,0,1-1.17-.37l0,0c.7,0,1.41-.09,2.11-.09q25.8,0,51.61,0a1.86,1.86,0,0,0,2-1.25c.8-1.94,1.69-3.84,2.55-5.76,2.19-4.87,4.39-9.74,6.56-14.63q4.75-10.66,9.47-21.36c2.18-4.88,4.39-9.75,6.56-14.63,3.06-6.89,6.08-13.8,9.14-20.69,2.26-5.06,4.58-10.1,6.83-15.17,3.11-7,6.18-14,9.27-21,1.9-4.29,3.78-8.59,5.69-12.87.66-1.48,1.39-2.92,2.21-4.65.4.71.64,1.07.82,1.46,1.54,3.36,3.1,6.72,4.6,10.09,3.19,7.16,6.35,14.34,9.54,21.5,2.24,5,4.52,10,6.77,15q4.95,11.09,9.86,22.17,3.15,7,6.3,14.09c.4.87.13,1.23-.76,1.26-.4,0-.8,0-1.2,0q-25.59,0-51.16,0a2.3,2.3,0,0,0-2.31,1.21c-1.46,2.44-3,4.83-4.54,7.22q-9.72,15.19-19.48,30.36a2,2,0,0,0-.1,2.3c.83,1.74,1.48,3.57,2.2,5.36Z" transform="translate(-58.37 -20.92)"/><path d="M65.17,319c.8,0,1.61-.06,2.41-.06q329.9,0,659.79,0a52,52,0,0,0,13.1-2c2.77-.72,5.48-1.71,8.23-2.55a12.62,12.62,0,0,1,1.74-.28,62.77,62.77,0,0,1-6.34,2.45c-3.83,1.05-7.72,1.85-11.59,2.71a9,9,0,0,1-2,.06H207q-69.9,0-139.79,0a11,11,0,0,1-2.08-.39" transform="translate(-58.37 -20.92)"/><path d="M593.84,195.8l4.92.85,7.12,1.24c.15,0,.27.24.41.36L594,196.05c-.05,0-.08-.17-.13-.25" transform="translate(-58.37 -20.92)"/><path class="cls-1" d="M449.38,147.94a3.88,3.88,0,0,0-1.07-.67c-3.93-.78-7.85-1.78-11.82-2.19a90.35,90.35,0,0,0-14.23-.57,108.75,108.75,0,0,0-14,2c-3.36.6-6.65,1.56-10.08,2.39V71.07H320.73V24.84h209V71H452.6c-2.12,0-2.12,0-2.12,2.16q0,36.47,0,72.91c0,.89,0,1.71-1.15,1.79l0,0" transform="translate(-58.37 -20.92)"/><path class="cls-1" d="M170,258.63c-.72-1.79-1.37-3.62-2.2-5.36a2,2,0,0,1,.1-2.3q9.78-15.15,19.48-30.36c1.54-2.39,3.08-4.78,4.54-7.22a2.3,2.3,0,0,1,2.31-1.21q25.58,0,51.16,0c.4,0,.8,0,1.2,0,.89,0,1.16-.39.76-1.26q-3.17-7-6.3-14.09-4.94-11.09-9.86-22.17c-2.25-5-4.53-10-6.77-15-3.19-7.16-6.35-14.34-9.54-21.5-1.5-3.37-3.06-6.73-4.6-10.09-.18-.39-.42-.75-.82-1.46-.82,1.73-1.55,3.17-2.21,4.65-1.91,4.28-3.79,8.58-5.69,12.87-3.09,7-6.16,14-9.27,21-2.25,5.07-4.57,10.11-6.83,15.17-3.06,6.89-6.08,13.8-9.14,20.69-2.17,4.88-4.38,9.75-6.56,14.63q-4.74,10.68-9.47,21.36c-2.17,4.89-4.37,9.76-6.56,14.63-.86,1.92-1.75,3.82-2.55,5.76a1.86,1.86,0,0,1-2,1.25q-25.8-.06-51.61,0c-.7,0-1.41.06-2.11.09a28.33,28.33,0,0,0-1.83-3.85,4,4,0,0,1-.38-4.39c4-8.81,8-17.66,11.92-26.51q5.59-12.52,11.17-25Q122,186,127.75,173.12q5.59-12.52,11.17-25l11.16-25q5.74-12.87,11.5-25.72,4.62-10.41,9.2-20.82a2.37,2.37,0,0,1,2.52-1.72q36.22.1,72.45,0h1.61c2.42,5.42,4.82,10.75,7.19,16.09,3.15,7.07,6.27,14.15,9.42,21.22,2.15,4.84,4.34,9.66,6.49,14.5,2.79,6.25,5.53,12.51,8.32,18.76,2.24,5,4.53,10,6.77,15,3.19,7.16,6.34,14.34,9.54,21.5,2.23,5,4.53,10,6.76,15,3.2,7.16,6.35,14.34,9.54,21.5,2.28,5.11,4.6,10.2,6.89,15.3,2.64,5.88,5.29,11.76,7.89,17.65a2.35,2.35,0,0,1,0,1.71c-.75,1.58-1.68,3.07-2.47,4.63-.44.87-1.16.78-1.91.78q-25.2,0-50.41,0-49.65,0-99.31,0c-.7,0-1.4.06-2.1.09" transform="translate(-58.37 -20.92)"/></g><g id="Tachimetro"><path class="cls-1" d="M511.62,187.51c7,8.34,13.29,16.91,18,26.79-4.49,1.18-8.59,2.24-12.68,3.33L493,224c-.94.25-1.42.18-1.92-.9-1.93-4.15-4-8.22-6.15-12.27-.37-.72-.31-.9.3-1.4,3.32-2.69,6.56-5.48,9.86-8.2,3.82-3.16,7.68-6.27,11.51-9.43,1.64-1.35,3.24-2.76,5-4.28" transform="translate(-58.37 -20.92)"/><path class="cls-1" d="M531.48,218.66c4.13,12,7.29,24,8.19,36.72l-15.2-1.75q-14.33-1.6-28.66-3.19c-1.13-.12-1.61-.41-1.7-1.79-.35-5.33-.9-10.64-1.49-16-.11-.93,0-1.11.92-1.39,4.75-1.51,9.45-3.17,14.18-4.74,5.49-1.81,11-3.56,16.51-5.37,2.36-.78,4.69-1.64,7.25-2.54" transform="translate(-58.37 -20.92)"/><path class="cls-1" d="M468.49,190.52l15.71-25.93c3.23,2.09,6.47,4,9.48,6.2s5.95,4.8,8.84,7.3c1.93,1.67,3.72,3.49,5.58,5.24.78.73.87,1.19-.15,2-6.17,4.74-12.26,9.58-18.4,14.37-2.73,2.13-5.49,4.21-8.47,6.5a47,47,0,0,0-12.59-15.65" transform="translate(-58.37 -20.92)"/><path class="cls-2" d="M463.75,187.54c-1.84-1.47-3.48-2.83-5.16-4.12a47.47,47.47,0,0,0-13.15-6.65c-1.08-.38-1.72-.69-1.39-2.26,1.57-7.42,2.9-14.9,4.33-22.41a102.74,102.74,0,0,1,26.5,8.7c1.06.53,2.14,1,3.23,1.48.88.37.92.9.44,1.65q-6.39,10.15-12.77,20.33c-.65,1-1.29,2.08-2,3.28" transform="translate(-58.37 -20.92)"/><path class="cls-2" d="M439.46,173.91a70.2,70.2,0,0,0-26-5.32c-.44-3.21-.86-6.38-1.31-9.55-.26-1.91-.53-3.82-.87-5.71-.29-1.61,0-2.05,1.61-2.18,4.85-.4,9.7-1.06,14.56-1.14,5.25-.1,10.51.32,15.76.57.27,0,.79.6.75.83-1.44,7.45-2.93,14.88-4.46,22.5" transform="translate(-58.37 -20.92)"/><path class="cls-2" d="M374.48,162.94c10.14-4.86,20.21-9.22,31.5-10.7q1.15,8.06,2.33,16.21c-4.92.27-9.66.33-14.35.84s-9.23,1.47-14,2.26l-5.45-8.61" transform="translate(-58.37 -20.92)"/><path class="cls-2" d="M375.76,173c-9.94,3.27-19,7.75-26.89,14.6L345.59,185c-.69-.55-.6-1.07,0-1.6,5.2-4.27,10.35-8.62,15.62-12.8,2.31-1.83,4.86-3.36,7.33-5,.32-.2,1.12-.22,1.3,0,1.95,2.37,3.81,4.79,5.88,7.43" transform="translate(-58.37 -20.92)"/><path class="cls-2" d="M323.56,218.53c3.6-11.81,10.94-21.42,17.67-31.46l4,3.26c-7.76,9.1-15.45,18.12-21.71,28.2" transform="translate(-58.37 -20.92)"/></g><g id="Lancetta"><path class="cls-2" d="M435.12,261a8.61,8.61,0,0,1-8.8-8.66,8.83,8.83,0,0,1,8.58-8.82,8.61,8.61,0,0,1,8.84,8.69,8.49,8.49,0,0,1-8.62,8.79" transform="translate(-58.37 -20.92)"/><path class="cls-2" d="M445.67,257.46c.88-6.23-.27-11.51-6.59-14.78l95.58-27.08c.08.21.16.41.23.62l-89.22,41.24" transform="translate(-58.37 -20.92)"/></g></svg>