<svg id="Livello_1" data-name="Livello 1" xmlns="http://www.w3.org/2000/svg" xmlns:xlink="http://www.w3.org/1999/xlink" viewBox="0 0 197.46 123.31"><defs><style>.cls-1{fill:none;}.cls-2{fill:#ae9a65;}.cls-3{clip-path:url(#clip-path);}.cls-4{fill:#009741;}.cls-5{fill:#e20e18;}.cls-6{fill:#010101;}</style><clipPath id="clip-path" transform="translate(-19.63 -20.74)"><rect class="cls-1" x="71.6" y="131.77" width="79.98" height="7.48"/></clipPath></defs><path class="cls-2" d="M38.42,72.1c-.94,0-1.4-.4-1.4-1.2a3.49,3.49,0,0,1,1-1.64,26,26,0,0,0,2.63-4.56Q44.36,57,44.36,52.4a4.39,4.39,0,0,0-.47-1.83c-.69-1.46-1.56-2.18-2.6-2.18q-5.24.09-13.7,28.34a49.48,49.48,0,0,0-2.29,14.6,11.08,11.08,0,0,0,.88,4.17c1.18,2.78,2.94,4.16,5.29,4.16q6.2,0,12.64-5,2.28-1.79,6.76-5.59c3-2.54,4.61-3.82,4.89-3.82s.24.2.31.47Q56,89.52,47.18,97.37q-7.4,6.41-15,6.41c-3.59,0-6.4-.88-8.45-2.64q-4.12-3.56-4.12-13.36T24.47,65.1q4.84-12.88,12.86-20.32a5.85,5.85,0,0,1,3.75-1.65q9.26,0,9.26,5.67,0,3.24-5,13.27T38.42,72.1Z" transform="translate(-19.63 -20.74)"/><path class="cls-2" d="M67.26,58a3.85,3.85,0,0,1,2.5.84c1.22,1,1.82,3.05,1.82,6q0,20.46-7.28,30.66l-.73,1.09q-4.53,6.57-7.29,6.56-3.39-.36-3.91-4.94,0-3.81,3.1-15.41a119.21,119.21,0,0,1,7.11-20.1C64.1,59.58,65.67,58,67.26,58Zm.84,6.46q-2.61.42-6.72,13T57.27,92.32c0,1.53.14,2.29.41,2.29q2.19,0,6.82-9.39T69.14,68C69.14,65.65,68.79,64.46,68.1,64.42Z" transform="translate(-19.63 -20.74)"/><path class="cls-2" d="M90.81,63.07l.74-.11c1.84,0,2.74.54,2.7,1.51a4.39,4.39,0,0,1-.3,1.28c-.17.43-.74,1.72-1.72,3.88q-1.83,4-1.47,5.51v.32l3.79-5.83q3.69-5.68,5.49-8.23a2.07,2.07,0,0,1,1.75-.68,3.18,3.18,0,0,1,2,.65c.53.44.82.78.85,1l-.31.78q-9.31,22.76-9.32,32.49c0,2.79.88,4.46,2.65,5a5.75,5.75,0,0,0,5-1.61,57.18,57.18,0,0,0,12.7-14.84l1-1.66a2.11,2.11,0,0,1,1.6-1c.94,0,1.41.5,1.41,1.51q0,2.7-5.94,9.71T104.62,102a10.19,10.19,0,0,1-6.27,2.18q-3.39,0-5.51-4.06a13.83,13.83,0,0,1-1.47-6.51,39.37,39.37,0,0,1,1.69-9.86c1.13-4.11,1.75-6.59,1.85-7.42a6.41,6.41,0,0,0,.1-1.41,73.52,73.52,0,0,0-5.47,8.91L85.1,91.13c-.67,1-1.34,1.51-2,1.51-1.73,0-2.6-1.06-2.6-3.18q0-1.45,2.08-5.57T84.65,78q-.78,1.19-2.65,4.52A57.08,57.08,0,0,1,71.84,96a9.81,9.81,0,0,1-4.47,2.81c-2.05-.24-2.64-.78-1.77-1.61a68.82,68.82,0,0,0,5.72-6.15,35.1,35.1,0,0,0,6.59-13c1.33-4.91,2.09-7.78,2.26-8.61s.51-2.19,1-4.06l1-3.7q.84-3.33,1.93-4.22a3.86,3.86,0,0,1,2.53-.88c1.82,0,2.73.55,2.73,1.66S88,62.49,85.24,67.88s-4.44,8.93-5,10.6c.21-.25.81-1.17,1.82-2.76s1.61-2.54,1.82-2.81S84.45,72,85,71Q89.54,63.07,90.81,63.07Z" transform="translate(-19.63 -20.74)"/><path class="cls-2" d="M143.27,85.66q-1.92,5.41-7.65,11-6.76,6.66-11.35,6.66-6.19,0-7.76-7A21.67,21.67,0,0,1,116,91.7,66.11,66.11,0,0,1,119.11,73q3.92-13.43,7.4-13.43a3.44,3.44,0,0,1,2.52.81q.81.8.81,1.17,0,1.66-3.38,8.2a56.83,56.83,0,0,0-4.2,9.47,44.14,44.14,0,0,0-1.19,7.65q-.39,4.73-.39,6.07,0,4.58,1.12,5.73a3.82,3.82,0,0,0,2.73,1.19q4.57,0,10.93-8a47.28,47.28,0,0,0,4.79-7.19c.52-.83,1.06-1.25,1.62-1.25a1.61,1.61,0,0,1,1.56,1.41A5.67,5.67,0,0,1,143.27,85.66ZM130.83,53a9.46,9.46,0,0,1-1.3-.84c-.84-.59-1.25-1-1.25-1.3,0-.93,1.3-3.14,3.9-6.61A73.55,73.55,0,0,0,136.61,38q1.29-1.29,3.59,1.3c1.21,1.46,1.6,2.64,1.14,3.54q-.36,1.36-4.42,5.73C134.21,51.46,132.18,52.93,130.83,53Z" transform="translate(-19.63 -20.74)"/><path class="cls-2" d="M188.24,32.77q-9.7,15.93-20,45.76l-2.09,6q-5.35,15.45-5.31,20.29a4.72,4.72,0,0,0,1.55,2.29,3.23,3.23,0,0,1,1.41,2.29c-.07,2-.81,3.07-2.24,3.28a3.41,3.41,0,0,1-2.34-.94q-2.08-1.92-2.08-6.24a54.43,54.43,0,0,1,3.34-17.68q3.33-9.66,4.12-11.92l-5.35,7.16a141.38,141.38,0,0,1-13,15.43,30,30,0,0,0-2.67,1.91,8.58,8.58,0,0,1-5.32,1.66,4.35,4.35,0,0,1-1.61-.28c-1.7-.63-2.54-2-2.54-4.23,0-1.25,1.14-3.95,3.43-8.12s6.23-9.59,11.81-16.25S158.68,62.81,160.71,62a17,17,0,0,1,6.48-1.25A15.24,15.24,0,0,0,170.06,58a30.12,30.12,0,0,0,3.6-6.21l2.7-5.8q.9-1.78,3.13-6.77c1.49-3.31,2.68-5.85,3.54-7.61q5.37-10.85,8.91-10.85c2.33,0,3.53,1.18,3.6,3.44a9.83,9.83,0,0,1-2.14,5.57A6.22,6.22,0,0,1,188.24,32.77Zm-25.56,36a8.68,8.68,0,0,0,.53-2.15q0-.56-.21-.66-.37,0-3.27,2.81A103.38,103.38,0,0,0,141,92.19,12,12,0,0,0,139.31,96c0,.53.13.83.37.9a3.16,3.16,0,0,0,1.47-.69q3.73-2.53,11.48-11.61T162.68,68.79Z" transform="translate(-19.63 -20.74)"/><path class="cls-2" d="M195.64,62.55l3.07.42a2.21,2.21,0,0,0,1.53-.84,2.79,2.79,0,0,1,2.08-.83,2.86,2.86,0,0,1,2,.68c.51.46.76.85.76,1.19a4.4,4.4,0,0,1-.62,1.66,14.87,14.87,0,0,0-.73,1.52q-6.7,21.78-6.7,27.79c0,1.39.34,2.11.93,2.14q3.18,0,9.92-8.37a55.08,55.08,0,0,0,5.84-8.21c.89-1.74,1.59-2.66,2.11-2.77a.67.67,0,0,0,.26-.05,1,1,0,0,1,1,1.09q0,1.88-4.31,8.41-9.18,14-15.89,14c-3.22,0-4.84-2.2-4.84-6.62a33.68,33.68,0,0,1,1.32-8.35c.87-3.32,1.42-5.38,1.63-6.17q-1.17,1.65-8.16,11.64T177,102.52a4.06,4.06,0,0,1-1.55.53,5.07,5.07,0,0,1-4.66-2.34,6.82,6.82,0,0,1-.7-3.31q0-2.16,3.27-10,5.32-12.59,12.1-19.41Q190.76,62.71,195.64,62.55ZM198,67.27q-8.3,1.4-14.46,10.88-6,9.22-6.32,18.24Q189.08,80.73,198,67.27Z" transform="translate(-19.63 -20.74)"/><g class="cls-3"><polygon class="cls-4" points="63.85 120.3 52.3 118.76 97.75 105.91 109.3 107.45 63.85 120.3"/><polygon class="cls-5" points="86.37 123.31 74.81 121.76 120.26 108.91 131.82 110.45 86.37 123.31"/></g><path class="cls-6" d="M52.33,127.28a.32.32,0,0,1-.14.28.69.69,0,0,1-.41.1h-7l-.11-.25a4.26,4.26,0,0,0,.39-1.32,15,15,0,0,0,.11-2v-6.22a14.56,14.56,0,0,0-.11-2,4.21,4.21,0,0,0-.39-1.3l.11-.25H52a.48.48,0,0,1,.05.23.32.32,0,0,1-.14.29.76.76,0,0,1-.41.09H45.54a9,9,0,0,1,.34,2.94v2.44h5.48a.5.5,0,0,1,0,.23c0,.24-.18.36-.55.36h-5v3.19a9.15,9.15,0,0,1-.34,3h6.73A.46.46,0,0,1,52.33,127.28Z" transform="translate(-19.63 -20.74)"/><path class="cls-6" d="M55.76,127.23a4.06,4.06,0,0,1-1.48-1.77,6.87,6.87,0,0,1,0-5.34,4.09,4.09,0,0,1,1.48-1.76,3.9,3.9,0,0,1,2.2-.62,4.8,4.8,0,0,1,1.58.26,4.46,4.46,0,0,1,1.2.62c.31.24.46.43.46.57s-.13.34-.38.34A4,4,0,0,0,58,118.31a3.06,3.06,0,0,0-2.57,1.2,6.31,6.31,0,0,0,0,6.56A3,3,0,0,0,58,127.28a4,4,0,0,0,2.86-1.23c.25,0,.38.12.38.35s-.15.33-.46.56a4.19,4.19,0,0,1-1.2.62,4.56,4.56,0,0,1-1.58.27A4,4,0,0,1,55.76,127.23Z" transform="translate(-19.63 -20.74)"/><path class="cls-6" d="M64.75,127.23a4.08,4.08,0,0,1-1.49-1.77,7,7,0,0,1,0-5.34,4.11,4.11,0,0,1,1.49-1.76,3.89,3.89,0,0,1,2.19-.62,4.91,4.91,0,0,1,1.59.26,4.61,4.61,0,0,1,1.2.62c.31.24.46.43.46.57s-.13.34-.38.34a4,4,0,0,0-2.87-1.22,3.06,3.06,0,0,0-2.56,1.2,6.25,6.25,0,0,0,0,6.56,3,3,0,0,0,2.56,1.21,4,4,0,0,0,2.87-1.23c.25,0,.38.12.38.35s-.15.33-.46.56a4.33,4.33,0,0,1-1.2.62,4.66,4.66,0,0,1-1.59.27A4,4,0,0,1,64.75,127.23Z" transform="translate(-19.63 -20.74)"/><path class="cls-6" d="M73.72,127.24a4,4,0,0,1-1.48-1.76,6.42,6.42,0,0,1-.53-2.71,6.64,6.64,0,0,1,.5-2.66,4,4,0,0,1,1.41-1.75,3.71,3.71,0,0,1,2.16-.62A3.41,3.41,0,0,1,78.59,119a5.09,5.09,0,0,1,1,3.33,2.27,2.27,0,0,1-.07.64h-7.1a5,5,0,0,0,1,3.15A3.11,3.11,0,0,0,76,127.28,4.17,4.17,0,0,0,79,126a.44.44,0,0,1,.28.08.26.26,0,0,1,.1.2c0,.17-.16.38-.46.62a4.09,4.09,0,0,1-1.22.65,4.78,4.78,0,0,1-1.68.28A4,4,0,0,1,73.72,127.24Zm5.17-4.92a5.11,5.11,0,0,0-.88-2.94,2.67,2.67,0,0,0-2.27-1.07,2.83,2.83,0,0,0-2.39,1.12,4.93,4.93,0,0,0-.91,3Z" transform="translate(-19.63 -20.74)"/><path class="cls-6" d="M81.86,127.66V114.51c0-.44.16-.67.46-.67a.52.52,0,0,1,.25.08v13.15c0,.44-.15.66-.46.66A.53.53,0,0,1,81.86,127.66Z" transform="translate(-19.63 -20.74)"/><path class="cls-6" d="M85.62,127.66V114.51c0-.44.16-.67.46-.67a.52.52,0,0,1,.25.08v13.15c0,.44-.15.66-.46.66A.5.5,0,0,1,85.62,127.66Z" transform="translate(-19.63 -20.74)"/><path class="cls-6" d="M90.62,127.24a4,4,0,0,1-1.48-1.76,6.42,6.42,0,0,1-.52-2.71,6.65,6.65,0,0,1,.49-2.66,4,4,0,0,1,1.42-1.75,3.7,3.7,0,0,1,2.15-.62A3.42,3.42,0,0,1,95.5,119a5.09,5.09,0,0,1,1,3.33,2.22,2.22,0,0,1-.08.64h-7.1a5,5,0,0,0,1,3.15,3.08,3.08,0,0,0,2.55,1.17,4.17,4.17,0,0,0,3-1.26.48.48,0,0,1,.29.08.28.28,0,0,1,.09.2c0,.17-.15.38-.46.62a4,4,0,0,1-1.22.65,4.78,4.78,0,0,1-1.68.28A4.08,4.08,0,0,1,90.62,127.24Zm5.17-4.92a5.11,5.11,0,0,0-.88-2.94,2.67,2.67,0,0,0-2.27-1.07,2.86,2.86,0,0,0-2.39,1.12,5,5,0,0,0-.91,3Z" transform="translate(-19.63 -20.74)"/><path class="cls-6" d="M98.73,127.66v-9.14c0-.45.15-.67.46-.67a.56.56,0,0,1,.25.08v1.94a3.52,3.52,0,0,1,1.2-1.54,3.08,3.08,0,0,1,1.91-.59,3,3,0,0,1,2.33,1,3.7,3.7,0,0,1,.87,2.58v5.8c0,.44-.15.66-.46.66a.47.47,0,0,1-.24-.07v-6.39a3.2,3.2,0,0,0-.68-2.15,2.27,2.27,0,0,0-1.82-.79,2.61,2.61,0,0,0-1.64.54,3.34,3.34,0,0,0-1.09,1.52,6,6,0,0,0-.38,2.25v4.43c0,.44-.16.66-.46.66A.5.5,0,0,1,98.73,127.66Z" transform="translate(-19.63 -20.74)"/><path class="cls-6" d="M107.28,127.35l5.8-8.85h-5.29a.46.46,0,0,1-.05-.21.31.31,0,0,1,.14-.27.76.76,0,0,1,.41-.09H114v.3l-5.8,8.86h6a.42.42,0,0,1,.06.21.3.3,0,0,1-.14.26.71.71,0,0,1-.41.1h-6.45Z" transform="translate(-19.63 -20.74)"/><path class="cls-6" d="M117.05,127.24a4,4,0,0,1-1.48-1.76,6.42,6.42,0,0,1-.53-2.71,6.64,6.64,0,0,1,.5-2.66,4,4,0,0,1,1.41-1.75,3.71,3.71,0,0,1,2.16-.62,3.41,3.41,0,0,1,2.81,1.25,5.09,5.09,0,0,1,1,3.33,2.27,2.27,0,0,1-.07.64h-7.1a5,5,0,0,0,1,3.15,3.1,3.1,0,0,0,2.56,1.17,4.13,4.13,0,0,0,3-1.26.46.46,0,0,1,.29.08.3.3,0,0,1,.1.2c0,.17-.16.38-.46.62a4.22,4.22,0,0,1-1.22.65,4.78,4.78,0,0,1-1.68.28A4,4,0,0,1,117.05,127.24Zm5.17-4.92a5.18,5.18,0,0,0-.88-2.94,2.68,2.68,0,0,0-2.27-1.07,2.86,2.86,0,0,0-2.4,1.12,5,5,0,0,0-.9,3Z" transform="translate(-19.63 -20.74)"/><path class="cls-6" d="M129.2,127.66V114.89q0-.66.48-.66a.47.47,0,0,1,.24.07v12.77c0,.44-.15.66-.47.66A.5.5,0,0,1,129.2,127.66Z" transform="translate(-19.63 -20.74)"/><path class="cls-6" d="M136.7,126.91a.71.71,0,0,1-.41.58,2,2,0,0,1-1,.24,1.5,1.5,0,0,1-1.18-.46,2,2,0,0,1-.41-1.33V118.5h-1.39a.48.48,0,0,1-.06-.21.32.32,0,0,1,.15-.27.76.76,0,0,1,.41-.09h.89v-1.82c0-.44.15-.66.46-.66a.5.5,0,0,1,.25.07v2.41h2.23a.42.42,0,0,1,.06.21.29.29,0,0,1-.15.26.67.67,0,0,1-.41.1h-1.73v7.36a1.65,1.65,0,0,0,.24,1,.81.81,0,0,0,.71.33,1.13,1.13,0,0,0,1-.55C136.6,126.61,136.7,126.71,136.7,126.91Z" transform="translate(-19.63 -20.74)"/><path class="cls-6" d="M138.91,127.05a3,3,0,0,1-.8-2.16,2.78,2.78,0,0,1,.91-2.2,3.5,3.5,0,0,1,2.43-.81,4.73,4.73,0,0,1,1.56.24,2.92,2.92,0,0,1,1.11.69v-1.45a3.22,3.22,0,0,0-.74-2.22,2.5,2.5,0,0,0-2-.83,3.53,3.53,0,0,0-2.61,1.22c-.26,0-.39-.11-.39-.34s.15-.33.43-.57A4.32,4.32,0,0,1,140,118a4.39,4.39,0,0,1,1.51-.26,3.14,3.14,0,0,1,2.42,1,3.72,3.72,0,0,1,.91,2.63v5.71q0,.66-.45.66a.5.5,0,0,1-.25-.07v-1.22a4,4,0,0,1-3.05,1.41A2.92,2.92,0,0,1,138.91,127.05Zm3.57-.09a2.93,2.93,0,0,0,1.18-.89,2,2,0,0,0,.46-1.31v-.63a1.34,1.34,0,0,0-.81-1.25,4.08,4.08,0,0,0-2-.43,2.49,2.49,0,0,0-1.84.67,2.4,2.4,0,0,0-.68,1.79,2.47,2.47,0,0,0,.59,1.73,2,2,0,0,0,1.57.64A3.73,3.73,0,0,0,142.48,127Z" transform="translate(-19.63 -20.74)"/><path class="cls-6" d="M147.57,127.66V114.51c0-.44.15-.67.46-.67a.52.52,0,0,1,.25.08v13.15c0,.44-.15.66-.46.66A.5.5,0,0,1,147.57,127.66Z" transform="translate(-19.63 -20.74)"/><path class="cls-6" d="M151.3,115.86a.53.53,0,0,1-.14-.37.54.54,0,0,1,.14-.38.53.53,0,0,1,.37-.14.58.58,0,0,1,.39.14.5.5,0,0,1,.15.38.5.5,0,0,1-.15.37.58.58,0,0,1-.39.14A.53.53,0,0,1,151.3,115.86Zm0,11.8v-9.14c0-.45.15-.67.46-.67a.56.56,0,0,1,.25.08v9.14c0,.44-.16.66-.46.66A.5.5,0,0,1,151.33,127.66Z" transform="translate(-19.63 -20.74)"/><path class="cls-6" d="M155.32,127.05a2.91,2.91,0,0,1-.8-2.16,2.81,2.81,0,0,1,.9-2.2,3.54,3.54,0,0,1,2.44-.81,4.73,4.73,0,0,1,1.56.24,2.92,2.92,0,0,1,1.11.69v-1.45a3.22,3.22,0,0,0-.74-2.22,2.52,2.52,0,0,0-2-.83,3.57,3.57,0,0,0-2.62,1.22c-.25,0-.38-.11-.38-.34s.15-.33.43-.57a4.32,4.32,0,0,1,1.14-.62,4.38,4.38,0,0,1,1.5-.26,3.15,3.15,0,0,1,2.43,1,3.72,3.72,0,0,1,.91,2.63v5.71c0,.44-.15.66-.46.66a.49.49,0,0,1-.24-.07v-1.22a3.94,3.94,0,0,1-1.34,1,4,4,0,0,1-1.72.38A2.91,2.91,0,0,1,155.32,127.05Zm3.57-.09a3,3,0,0,0,1.18-.89,2.07,2.07,0,0,0,.46-1.31v-.63a1.34,1.34,0,0,0-.81-1.25,4.14,4.14,0,0,0-2-.43,2.48,2.48,0,0,0-1.84.67,2.4,2.4,0,0,0-.68,1.79,2.51,2.51,0,0,0,.58,1.73,2.06,2.06,0,0,0,1.58.64A3.73,3.73,0,0,0,158.89,127Z" transform="translate(-19.63 -20.74)"/><path class="cls-6" d="M163.94,127.66v-9.14c0-.45.15-.67.46-.67a.52.52,0,0,1,.25.08v1.94a3.59,3.59,0,0,1,1.2-1.54,3.08,3.08,0,0,1,1.91-.59,3,3,0,0,1,2.34,1,3.74,3.74,0,0,1,.86,2.58v5.8c0,.44-.15.66-.46.66a.49.49,0,0,1-.24-.07v-6.39a3.2,3.2,0,0,0-.68-2.15,2.27,2.27,0,0,0-1.82-.79,2.61,2.61,0,0,0-1.64.54,3.41,3.41,0,0,0-1.09,1.52,6,6,0,0,0-.38,2.25v4.43c0,.44-.16.66-.46.66A.5.5,0,0,1,163.94,127.66Z" transform="translate(-19.63 -20.74)"/><path class="cls-6" d="M175,127.24a4,4,0,0,1-1.48-1.76,6.42,6.42,0,0,1-.52-2.71,6.65,6.65,0,0,1,.49-2.66,4,4,0,0,1,1.41-1.75,3.73,3.73,0,0,1,2.16-.62,3.43,3.43,0,0,1,2.82,1.25,5.09,5.09,0,0,1,1,3.33,2.22,2.22,0,0,1-.08.64h-7.1a5,5,0,0,0,1,3.15,3.08,3.08,0,0,0,2.55,1.17,4.17,4.17,0,0,0,3-1.26.43.43,0,0,1,.28.08.26.26,0,0,1,.1.2c0,.17-.15.38-.46.62a4,4,0,0,1-1.22.65,4.78,4.78,0,0,1-1.68.28A4.08,4.08,0,0,1,175,127.24Zm5.17-4.92a5.11,5.11,0,0,0-.88-2.94,2.67,2.67,0,0,0-2.27-1.07,2.86,2.86,0,0,0-2.39,1.12,5,5,0,0,0-.91,3Z" transform="translate(-19.63 -20.74)"/></svg>