<svg xmlns="http://www.w3.org/2000/svg" viewBox="0 0 954 387"><defs><style>.cls-1{fill:#2e408e;}.cls-2{fill:#cb0000;}.cls-3{fill:none;}.cls-4,.cls-5{fill:#fff;}.cls-4{fill-rule:evenodd;}</style></defs><g id="Livello_1" data-name="Livello 1"><path class="cls-1" d="M834.5,163.83Q810.82,139,777.42,139H703.73a9.85,9.85,0,0,1-7.42-3.15,10.9,10.9,0,0,1-3.18-7.78,10.51,10.51,0,0,1,3.18-7.77,9.58,9.58,0,0,1,7.42-3.34H844V43.49H703.73q-33.39,0-57.08,24.81a91.38,91.38,0,0,0-9.32,11.49V41.33H495.69L476,85.47,456.11,42H319.53v73.32a136.57,136.57,0,0,0-26.46-33.95q-41.16-39.39-99.45-39.39H76.24V310.16H193.62q58.29,0,99.45-39.39a136.39,136.39,0,0,0,26.46-33.95v71.55h80.52L397,156.23l40.66,139.26a90.39,90.39,0,0,1,76.84-1l41.67-138.9-2.3,152.76h83.47v-.13H777.42q33.41,0,57.08-24.8t23.68-59.8q0-35-23.68-59.81m-49.65,67.58a9.62,9.62,0,0,1-7.43,3.33H637.33V176.41a90,90,0,0,0,9.32,11.49q23.69,24.82,57.08,24.81h73.69a9.87,9.87,0,0,1,7.43,3.15,11,11,0,0,1,3.18,7.78A10.54,10.54,0,0,1,784.85,231.41Z" transform="translate(9 -8.5)"/><path class="cls-2" d="M809.21,143.87a81.71,81.71,0,0,1,26.55,18.91,85.91,85.91,0,0,1,18,27.79,93.13,93.13,0,0,1,0,65.88,85.86,85.86,0,0,1-18,27.78,81.59,81.59,0,0,1-26.55,18.92,78.18,78.18,0,0,1-31.5,6.31H639v.13H552.79L555,165.11,515.61,296.23l-1.39-.63a90.94,90.94,0,0,0-18-6,89.28,89.28,0,0,0-57.67,6.92l-1.43.69-38.27-131.1,2.88,143.43H318.46V241.76a129.69,129.69,0,0,1-9.17,13.39,147.59,147.59,0,0,1-15,16.47h0a141.42,141.42,0,0,1-45.88,29.82q-25.1,9.94-54.5,9.94H75.18V40.45H193.9a146.62,146.62,0,0,1,54.5,9.95,141.42,141.42,0,0,1,45.88,29.82h0a148.57,148.57,0,0,1,15,16.47,131.29,131.29,0,0,1,9.17,13.39V40.47H457.25l19,41.62L495.1,39.87H639V75.49c.65-.85,1.31-1.7,2-2.54,1.58-2,3.26-3.85,5-5.7a81.71,81.71,0,0,1,26.55-18.91A78.2,78.2,0,0,1,704,42H845.67v76.19H704a8.55,8.55,0,0,0-3.52.71,8.76,8.76,0,0,0-2.91,2.18l-.05.05a9.22,9.22,0,0,0-2.09,3.07,9.87,9.87,0,0,0-.69,3.76,9.61,9.61,0,0,0,.69,3.66,10.41,10.41,0,0,0,2.11,3.19,8.74,8.74,0,0,0,2.91,2,9,9,0,0,0,3.55.67h73.69a78.19,78.19,0,0,1,31.5,6.32m24.6,20.76a79,79,0,0,0-25.67-18.3,75.49,75.49,0,0,0-30.43-6.09H704a11.6,11.6,0,0,1-4.59-.89,11.47,11.47,0,0,1-3.81-2.67,12.91,12.91,0,0,1-2.65-4,12.25,12.25,0,0,1-.9-4.67,12.41,12.41,0,0,1,.9-4.76,11.82,11.82,0,0,1,2.63-3.92,11.25,11.25,0,0,1,3.8-2.82,11.11,11.11,0,0,1,4.62-1H843V44.71H704a75.5,75.5,0,0,0-30.44,6.09,78.78,78.78,0,0,0-25.67,18.3q-2.6,2.72-4.89,5.54c-1.52,1.88-3,3.81-4.3,5.78L636.26,84V42.55H496.84L476.3,88.6,455.54,43.16H321.15v72l-2.52.64a126.68,126.68,0,0,0-11.45-17.44,146.88,146.88,0,0,0-14.75-16.18h0a138.67,138.67,0,0,0-45-29.26q-24.63-9.76-53.52-9.76h-116V308.69h116a144.11,144.11,0,0,0,53.52-9.75,138.67,138.67,0,0,0,45-29.26h0a146.88,146.88,0,0,0,14.75-16.18,126.68,126.68,0,0,0,11.45-17.44l2.52.64v70.2H399l-3-150.77,2.63-.4,40.22,137.75a92.57,92.57,0,0,1,18.13-6.19,91.82,91.82,0,0,1,57,5.25L555.15,155.1l2.63.4L555.5,306.9h80.76v-.13H777.71a75.65,75.65,0,0,0,30.43-6.08,79,79,0,0,0,25.67-18.3,83.22,83.22,0,0,0,17.48-26.93,90.46,90.46,0,0,0,0-63.9A83.11,83.11,0,0,0,833.81,164.63Zm-52.59,67.93a8.86,8.86,0,0,0,2.91-2.17l0-.06a9.12,9.12,0,0,0,2.09-3.07,9.79,9.79,0,0,0,.7-3.75,9.55,9.55,0,0,0-.7-3.66,10.29,10.29,0,0,0-2.11-3.19,8.68,8.68,0,0,0-2.92-2,9,9,0,0,0-3.53-.68H704a78.2,78.2,0,0,1-31.51-6.32A81.56,81.56,0,0,1,646,188.7c-1.76-1.85-3.44-3.75-5-5.7-.68-.84-1.34-1.69-2-2.54v52.81H777.71A8.41,8.41,0,0,0,781.22,232.56Zm4.9-.37a11.46,11.46,0,0,1-3.81,2.82,11.17,11.17,0,0,1-4.6,1H636.26v-64l2.46,3.6c1.34,2,2.78,3.9,4.3,5.78s3.16,3.73,4.89,5.54a78.78,78.78,0,0,0,25.67,18.3A75.47,75.47,0,0,0,704,211.24h73.69a11.59,11.59,0,0,1,4.58.9,11.47,11.47,0,0,1,3.81,2.67,12.8,12.8,0,0,1,2.65,4,12.21,12.21,0,0,1,.9,4.67,12.45,12.45,0,0,1-.9,4.76A11.92,11.92,0,0,1,786.12,232.19Z" transform="translate(9 -8.5)"/><path class="cls-2" d="M74.18,326.78a69.44,69.44,0,0,1,11.54-.84c7.26,0,12,1.18,15.59,3.94,3.94,2.92,6.42,7.65,6.42,14.41,0,7.26-2.65,12.27-6.25,15.36-4,3.32-10.13,4.9-17.56,4.9a74.06,74.06,0,0,1-9.74-.56Zm8.56,30.9a16,16,0,0,0,3,.17c7.82.06,13-4.22,13-13.28,0-8.16-4.62-12.05-12-12.05a18.06,18.06,0,0,0-3.88.34Z" transform="translate(9 -8.5)"/><path class="cls-2" d="M122.14,354.42l-2.65,9.73H110.6l11.59-37.93h11.2l11.82,37.93H136l-2.92-9.73Zm9.62-6.42L129.4,340c-.62-2.25-1.3-5.12-1.86-7.31h-.17c-.51,2.25-1.13,5.12-1.69,7.31L123.37,348Z" transform="translate(9 -8.5)"/><polygon class="cls-2" points="161.59 324.92 151.35 324.92 151.35 317.71 180.5 317.71 180.5 324.92 170.15 324.92 170.15 355.65 161.59 355.65 161.59 324.92"/><path class="cls-2" d="M180.8,354.42l-2.64,9.73h-8.89l11.59-37.93h11.2l11.82,37.93h-9.23l-2.93-9.73Zm9.63-6.42L188.06,340c-.62-2.25-1.29-5.12-1.85-7.31H186c-.51,2.25-1.13,5.12-1.69,7.31L182,348Z" transform="translate(9 -8.5)"/><path class="cls-2" d="M252.4,349.63c-.17-4.56-.34-10-.34-15.59h-.12c-1.23,4.84-2.81,10.25-4.27,14.69l-4.62,14.81h-6.7l-4-14.64c-1.24-4.5-2.47-9.85-3.43-14.86h-.11c-.17,5.12-.4,11-.62,15.71l-.74,14.4h-7.93l2.42-37.93h11.42L237,338.94c1.24,4.33,2.36,9.06,3.21,13.51h.22c1-4.39,2.31-9.35,3.61-13.62l4-12.61h11.26l2,37.93H253Z" transform="translate(9 -8.5)"/><path class="cls-2" d="M276.71,354.42l-2.65,9.73h-8.89l11.59-37.93H288l11.82,37.93h-9.24l-2.92-9.73Zm9.62-6.42L284,340c-.62-2.25-1.3-5.12-1.86-7.31h-.17c-.5,2.25-1.12,5.12-1.69,7.31L278,348Z" transform="translate(9 -8.5)"/><path class="cls-2" d="M304.85,364.15V326.22h10l7.88,13.9a121.88,121.88,0,0,1,6.19,13h.11a158.5,158.5,0,0,1-.67-15.87v-11h7.88v37.93h-9l-8.1-14.63a132.17,132.17,0,0,1-6.59-13.4h-.22c.28,5.07.39,10.42.39,16.61v11.42Z" transform="translate(9 -8.5)"/><path class="cls-2" d="M352.46,354.42l-2.64,9.73h-8.89l11.59-37.93h11.2l11.82,37.93h-9.23l-2.93-9.73Zm9.63-6.42L359.72,340c-.61-2.25-1.29-5.12-1.85-7.31h-.17c-.51,2.25-1.13,5.12-1.69,7.31L353.7,348Z" transform="translate(9 -8.5)"/><path class="cls-2" d="M410.89,362.41a42.4,42.4,0,0,1-12.66,2.14c-6.93,0-11.93-1.75-15.42-5.07s-5.35-8.27-5.35-13.84c.06-12.61,9.23-19.82,21.67-19.82a27.22,27.22,0,0,1,10.52,1.81l-1.8,6.92a19.82,19.82,0,0,0-8.78-1.63c-7.15,0-12.61,4.05-12.61,12.27,0,7.88,5,12.44,12,12.44a13.19,13.19,0,0,0,4.17-.51v-8h-5.86v-6.7h14.13Z" transform="translate(9 -8.5)"/><polygon class="cls-2" points="449.16 339.61 435.2 339.61 435.2 348.62 450.79 348.62 450.79 355.65 426.64 355.65 426.64 317.71 450 317.71 450 324.75 435.2 324.75 435.2 332.63 449.16 332.63 449.16 339.61"/><path class="cls-2" d="M479.72,349.63c-.16-4.56-.33-10-.33-15.59h-.12c-1.23,4.84-2.81,10.25-4.27,14.69l-4.62,14.81h-6.7l-4.05-14.64c-1.24-4.5-2.47-9.85-3.43-14.86h-.11c-.17,5.12-.4,11-.62,15.71l-.74,14.4H446.8l2.42-37.93h11.42l3.72,12.72c1.24,4.33,2.36,9.06,3.21,13.51h.22c1-4.39,2.31-9.35,3.61-13.62l4-12.61h11.26l2,37.93h-8.33Z" transform="translate(9 -8.5)"/><polygon class="cls-2" points="526.83 339.61 512.87 339.61 512.87 348.62 528.46 348.62 528.46 355.65 504.31 355.65 504.31 317.71 527.67 317.71 527.67 324.75 512.87 324.75 512.87 332.63 526.83 332.63 526.83 339.61"/><path class="cls-2" d="M525.31,364.15V326.22h10l7.88,13.9a120,120,0,0,1,6.19,13h.12a155.46,155.46,0,0,1-.68-15.87v-11h7.88v37.93h-9l-8.1-14.63a134.3,134.3,0,0,1-6.59-13.4h-.22c.28,5.07.39,10.42.39,16.61v11.42Z" transform="translate(9 -8.5)"/><polygon class="cls-2" points="580.52 324.92 570.28 324.92 570.28 317.71 599.43 317.71 599.43 324.92 589.08 324.92 589.08 355.65 580.52 355.65 580.52 324.92"/><path class="cls-2" d="M606.64,355.37a21.55,21.55,0,0,0,9.51,2.37c3.94,0,6-1.63,6-4.17,0-2.3-1.81-3.71-6.37-5.29-6.3-2.25-10.46-5.74-10.46-11.31,0-6.47,5.46-11.37,14.35-11.37a22.19,22.19,0,0,1,9.68,1.91l-1.91,6.87a17.83,17.83,0,0,0-7.88-1.8c-3.72,0-5.52,1.74-5.52,3.66,0,2.42,2.08,3.49,7,5.4,6.69,2.48,9.79,6,9.79,11.37,0,6.36-4.84,11.76-15.25,11.76a24.72,24.72,0,0,1-10.75-2.36Z" transform="translate(9 -8.5)"/><path class="cls-2" d="M652.85,364.77c-11.2,0-17.84-8.5-17.84-19.3,0-11.37,7.31-19.87,18.46-19.87,11.65,0,18,8.72,18,19.19,0,12.5-7.49,20-18.57,20Zm.39-6.81c5.8,0,9.12-5.46,9.12-12.89,0-6.81-3.21-12.66-9.12-12.66S644,338.15,644,345.24,647.45,358,653.19,358Z" transform="translate(9 -8.5)"/><polygon class="cls-2" points="686.16 317.71 694.72 317.71 694.72 348.45 709.8 348.45 709.8 355.65 686.16 355.65 686.16 317.71"/><path class="cls-2" d="M712.69,326.22V348c0,6.59,2.53,9.91,6.87,9.91,4.5,0,7-3.15,7-9.91V326.22h8.55v21.27c0,11.71-5.91,17.28-15.81,17.28-9.57,0-15.14-5.34-15.14-17.39V326.22Z" transform="translate(9 -8.5)"/><polygon class="cls-2" points="758.89 324.92 748.65 324.92 748.65 317.71 777.8 317.71 777.8 324.92 767.45 324.92 767.45 355.65 758.89 355.65 758.89 324.92"/><rect class="cls-2" x="782.42" y="317.71" width="8.56" height="37.94"/><path class="cls-2" d="M805.5,364.77c-11.2,0-17.84-8.5-17.84-19.3,0-11.37,7.31-19.87,18.46-19.87,11.65,0,18,8.72,18,19.19,0,12.5-7.49,20-18.57,20Zm.39-6.81c5.8,0,9.12-5.46,9.12-12.89,0-6.81-3.21-12.66-9.12-12.66s-9.23,5.74-9.23,12.83S800.1,358,805.84,358Z" transform="translate(9 -8.5)"/><path class="cls-2" d="M829.76,364.15V326.22h10l7.88,13.9a121.88,121.88,0,0,1,6.19,13H854a155.46,155.46,0,0,1-.68-15.87v-11h7.88v37.93h-9l-8.11-14.63a134.24,134.24,0,0,1-6.58-13.4h-.23c.28,5.07.4,10.42.4,16.61v11.42Z" transform="translate(9 -8.5)"/><rect class="cls-3" width="954" height="387"/><rect class="cls-3" y="0.5" width="953.43" height="386.5"/></g><g id="Mondo"><path class="cls-4" d="M222.77,122.51a34.71,34.71,0,0,1-6,.13l-8.4-7q6.9-.47,14.42,6.83m-25.7-8.63-2.29-1.27.75,2-4.77.13a4.62,4.62,0,0,1,.75-2.39,2.65,2.65,0,0,1,2.16-.91H194a53,53,0,0,1,13.38,1.83,11.37,11.37,0,0,1-7.36-.53l.55,1.18A5.83,5.83,0,0,1,197.07,113.88Zm3.56,2.49a16.61,16.61,0,0,1,5.36,0,27.84,27.84,0,0,1,7.43,7l-8.67.09A40.52,40.52,0,0,1,200.63,116.37Zm0,7.91-10.13.55.06-7.74,6.28-.46A22,22,0,0,1,200.66,124.28Zm4.52,16.22-14.1.81-.19-12.13,11.25-.72A42.52,42.52,0,0,1,205.18,140.5Zm6-.85-4-11.64h9.91a28.26,28.26,0,0,1,6,11.21Zm23.31-13.48a55.29,55.29,0,0,1,10.11,11.12,8.73,8.73,0,0,0-4.71.2,82.75,82.75,0,0,0-9-11.32ZM228.19,122a6.14,6.14,0,0,1-3.07,0A37.74,37.74,0,0,0,214,115.55,24.82,24.82,0,0,1,228.19,122Zm20.15,21.41q5.46,7.17,5.95,14.55h-5a106.7,106.7,0,0,1-5.07-14.55Zm-8,1.08a38.51,38.51,0,0,1,5.39,14.23l-10.17.85A135.71,135.71,0,0,1,231,144.48ZM228,138.73a97.87,97.87,0,0,0-6.8-11.38q5.3-1.41,7.09-.13A30.41,30.41,0,0,1,236.66,138,30.26,30.26,0,0,0,228,138.73Zm18.9,26.88a11.75,11.75,0,0,1,1.17,4v12.68l-10.52.79-1.08-16.87Zm-34-19.85,13-.69a86.51,86.51,0,0,1,3.82,14.81L215.93,161Zm-4.15,15.79-16.38.82-1.21-15L207,146A35,35,0,0,1,208.74,161.55Zm1.9,44.63a52.75,52.75,0,0,1-15,1.41l-.78-14.32,15.76-1.21Zm7.12-14.91,14-1.08a45,45,0,0,1-3.27,15.47h-12ZM237.48,190h9.58l-3,12.68a3.53,3.53,0,0,1-2.88,1.87H234.6Zm6,19.65h4.32a31,31,0,0,1-8.9,12.13c-1.39.28-2.39.08-3-.62A66.45,66.45,0,0,0,243.43,209.68Zm-26.61-41.82L231,167l1,16.48-14.06,1.08ZM210,185l-16.38,1.24-.92-16.55,17.3-1.07Zm46.78-19.95a49.41,49.41,0,0,1,.4,16.38h-5.27l-.85-15.76C251.8,164.63,253.71,164.43,256.8,165.08Zm-5.65,38.39-4.32.16,4.32-15.07h5.49A49.74,49.74,0,0,1,251.15,203.47ZM190.3,112.34l-1.7,2.56-3.92-.07a13.17,13.17,0,0,1,3.1-2.49A5.08,5.08,0,0,1,190.3,112.34Zm-22.36,6.41a6.13,6.13,0,0,1,2.78-.23,58.76,58.76,0,0,0-8.83,8.47l-4.94.23A59.3,59.3,0,0,1,167.94,118.75ZM149,144.48l-4.74.27a28.86,28.86,0,0,1,7.91-12.59,12.88,12.88,0,0,1,5,0Q150.55,145.08,149,144.48Zm20.59-13.4-3.2,10.76a3.29,3.29,0,0,1-1.93,2.19h-9.19q.89-6.12,5.92-12.95Zm-8.2-9.52a20.93,20.93,0,0,1-8.37,6.25A30.17,30.17,0,0,1,161.4,121.56Zm26.15-4.38-1.14,5.66a4.37,4.37,0,0,1-1.5,2.55l-8.5.39q2.78-6.34,5.52-8.14Zm-12.75-1.79a22.81,22.81,0,0,1,11.28-2.82c-.93,1.2-3.43,2.22-7.48,3A9.67,9.67,0,0,1,174.8,115.39ZM172,126.31a41.05,41.05,0,0,1-6.86.32,22.09,22.09,0,0,1,8.92-8.4h4.09Q175.1,122.31,172,126.31Zm2.45,4.15,10.76-.82v12.1a51.87,51.87,0,0,0-13.63,1.31A124.29,124.29,0,0,1,174.44,130.46Zm-33.18,15.1h-2.13q4.13-10.53,10.14-12.91Q145.28,139.28,141.26,145.56Zm-5.33,6.28h2.22q-3.66,16-3.79,15.07a2.45,2.45,0,0,1-2.45.13A58.23,58.23,0,0,1,135.93,151.84Zm-1.6,22.53A83.2,83.2,0,0,0,135.86,191l-2.78.26A76.06,76.06,0,0,1,131,174.37Zm3.27-7.52q1.76-16,4.51-16.09h6Q147,167.64,143,166.68Zm-.07,31.22L145,211.84H142a43.94,43.94,0,0,1-6.51-13.77ZM136.91,174l8.11-.36,1.83,15.95-8.24.82Q136.7,184.3,136.91,174Zm47.54-25.28.82,14.49-15.73,1.18a47.9,47.9,0,0,1,1.08-15.67ZM163.1,171.59a64.26,64.26,0,0,0,1.14,16.61l-12,1.24q-2.1-6.67-1.77-16.77Zm-12.79-5.85a52.22,52.22,0,0,1,2.55-15.57h11.32l-1.47,14.58Zm3.27,31,12.69-1.54,3.27,15H159Zm21.65,12.72-2.91-14.81,15-.85,1.64,14.68Zm-4.55-21.68-1-16.54,15.17-1,1.7,16.77Zm-21.87,9.42,5.89,13.43h-7.59a25.45,25.45,0,0,1-5.56-13.43ZM192.16,225l-10,.92q-4.87-7.59-3.86-11.35h12Zm-14.28,1-8.34.85a33.71,33.71,0,0,1-7-10.95l9.36-.85Zm3.33,4.51a23,23,0,0,0,6.7,6l-4.31.29a22.73,22.73,0,0,1-8.73-6.31Zm-9.06.46a65.39,65.39,0,0,0,10,6.44q-14.19-1.37-17-5.75l3.56,1.08-.78-1.77Zm13.31-1.31h7.33l2.87,6.31a8.91,8.91,0,0,1-6.11,0A9.58,9.58,0,0,1,185.46,229.62Zm10.73,7.78,1.86,2.42a28.62,28.62,0,0,1-11-1.08A25.25,25.25,0,0,0,196.19,237.4Zm-49-19.38v-.85h2.25a42.91,42.91,0,0,0,10.59,10l-1.24,1Zm14,9.35a44.5,44.5,0,0,1-9.52-10.89h6.18A40.48,40.48,0,0,0,167,227.14Zm71-16.71h7.72a30.59,30.59,0,0,1-8.05,11.67h-5.55Zm1.44,15.86A68,68,0,0,1,221,234.23l-6.41.39a23.47,23.47,0,0,1,9-7.81h4.09a53.23,53.23,0,0,1-8.08,6.8L231,226.52Zm-24.65-4.32a2.69,2.69,0,0,1-2.32,2.32h-9.36l-1.14-10.59a56.28,56.28,0,0,1,13.67-1.41Zm5.42-5.95q1.44-4.77,3.86-5H227q-2.69,9.87-6.64,12h-7.58Zm-15.62,21a54.59,54.59,0,0,0,12.91.1,21.41,21.41,0,0,1-13.08,1.79Zm5.19-1.73-5.49.32v-7.13h7.95A12,12,0,0,1,203.93,235.48Zm14.46-7.95a22.16,22.16,0,0,1-7.59,7.32l-3.86.4,3.8-7.72Z" transform="translate(9 -8.5)"/></g><g id="Onda_1" data-name="Onda 1"><path class="cls-5" d="M403.11,295.26a.85.85,0,0,1,.38.48.81.81,0,0,1-.06.61.83.83,0,0,1-.48.39.84.84,0,0,1-.62-.06c-3.42-1.87-6.94-4-10.47-6.27s-7.12-4.81-10.63-7.45-6.9-5.36-10.19-8.19-6.31-5.64-9.21-8.52a173.41,173.41,0,0,1-20.9-25.09A152.17,152.17,0,0,1,317,183.56a172.66,172.66,0,0,1-3-32.47,163.47,163.47,0,0,1,2.87-30.6,159.28,159.28,0,0,1,8.55-29.3,164.05,164.05,0,0,1,14.06-27.4,175.3,175.3,0,0,1,19.25-24.87.8.8,0,0,1,1.14,0A.8.8,0,0,1,360,40a173.35,173.35,0,0,0-19.07,24.64A161.87,161.87,0,0,0,327,91.78a158,158,0,0,0-8.46,29,161.22,161.22,0,0,0-2.84,30.31,171.23,171.23,0,0,0,2.95,32.17,150.5,150.5,0,0,0,23.65,57A171.28,171.28,0,0,0,363,265.11c2.87,2.86,5.94,5.69,9.12,8.44s6.66,5.53,10.11,8.13,7,5.09,10.54,7.38,7,4.36,10.37,6.2" transform="translate(9 -8.5)"/><path class="cls-5" d="M594.13,39.56a.8.8,0,0,1,0-1.14.79.79,0,0,1,.58-.21.83.83,0,0,1,.56.25,173.93,173.93,0,0,1,19.37,24.88A163.52,163.52,0,0,1,628.82,90.8a160.25,160.25,0,0,1,8.59,29.44,165.22,165.22,0,0,1,2.88,30.85c0,1.55,0,3.12-.06,4.73s-.1,3.15-.18,4.7-.18,3.13-.3,4.65-.27,3.06-.43,4.59h0c-.06.64-.13,1.24-.19,1.82s-.14,1.22-.2,1.78-.14,1.13-.23,1.78-.16,1.24-.25,1.8v0a157.18,157.18,0,0,1-5.72,24.69,150.91,150.91,0,0,1-9.57,23.12,157.17,157.17,0,0,1-13.41,21.53,176.27,176.27,0,0,1-17.24,19.93c-2.63,2.62-5.54,5.28-8.61,7.91s-6.62,5.47-10.09,8.08-7.25,5.29-10.83,7.66-7.16,4.59-10.48,6.47a.81.81,0,0,1-.8-1.4c3.29-1.87,6.81-4,10.4-6.42s7.19-4.92,10.75-7.6,6.8-5.27,10-8c3-2.6,5.92-5.23,8.52-7.83a173.06,173.06,0,0,0,17.08-19.75,155,155,0,0,0,13.28-21.31,149,149,0,0,0,9.46-22.87,156.24,156.24,0,0,0,5.67-24.46q.14-.93.24-1.77c.07-.53.15-1.12.22-1.77s.15-1.24.21-1.8.13-1.2.19-1.76v0c.16-1.49.3-3,.42-4.55s.22-3.07.3-4.6.14-3.09.18-4.64.06-3.1.06-4.71a162.78,162.78,0,0,0-2.86-30.55,158.42,158.42,0,0,0-8.5-29.15,161.72,161.72,0,0,0-14-27.18,171.44,171.44,0,0,0-19.19-24.65" transform="translate(9 -8.5)"/></g><g id="onda_due" data-name="onda due"><path class="cls-5" d="M494.89,229.29a.8.8,0,0,1-.61-.12.82.82,0,0,1-.35-.51.83.83,0,0,1,.11-.6.88.88,0,0,1,.51-.35,76.54,76.54,0,0,0,10.79-3.16,73.78,73.78,0,0,0,10.14-4.68,79.66,79.66,0,0,0,9.52-6.22,87.62,87.62,0,0,0,8.87-7.77,86.38,86.38,0,0,0,10.44-12.48,75.49,75.49,0,0,0,11.91-28.61,88.16,88.16,0,0,0,0-32.28,75.45,75.45,0,0,0-11.91-28.58A89.8,89.8,0,0,0,521.36,81.1a76.69,76.69,0,0,0-13.74-7.4,75.58,75.58,0,0,0-15-4.44,89.57,89.57,0,0,0-32.43,0A76,76,0,0,0,431.51,81.1a89.3,89.3,0,0,0-22.93,22.83,75.18,75.18,0,0,0-11.88,28.58,88.16,88.16,0,0,0,0,32.28,75.23,75.23,0,0,0,11.88,28.61A86.87,86.87,0,0,0,419,205.88a89.15,89.15,0,0,0,9.16,8,78.24,78.24,0,0,0,9.84,6.33,74.64,74.64,0,0,0,10.5,4.7A77,77,0,0,0,459.67,228a.82.82,0,0,1,.52.34.8.8,0,0,1,.12.61.8.8,0,0,1-.34.51.75.75,0,0,1-.6.12A78.27,78.27,0,0,1,448,226.4a75.6,75.6,0,0,1-10.72-4.8,80.53,80.53,0,0,1-10-6.46,90.3,90.3,0,0,1-9.34-8.12,87.73,87.73,0,0,1-10.61-12.72,77,77,0,0,1-12.14-29.2,89.77,89.77,0,0,1,0-32.9A77.42,77.42,0,0,1,399.66,117a82,82,0,0,1,18.2-26.67,88.19,88.19,0,0,1,12.75-10.56,77.92,77.92,0,0,1,29.31-12.09,88.85,88.85,0,0,1,16.51-1.51A80.11,80.11,0,0,1,535,90.32,87.18,87.18,0,0,1,545.64,103a76.66,76.66,0,0,1,7.6,14,77.47,77.47,0,0,1,4.57,15.21,89.77,89.77,0,0,1,0,32.9,77.24,77.24,0,0,1-12.17,29.2A87.25,87.25,0,0,1,535,207a89.79,89.79,0,0,1-9,7.91,81.55,81.55,0,0,1-9.7,6.35,77.12,77.12,0,0,1-10.37,4.78,78.34,78.34,0,0,1-11,3.23" transform="translate(9 -8.5)"/></g><g id="onda_tre" data-name="onda tre"><path class="cls-5" d="M467.47,188.23h0a.82.82,0,0,1,.62.91v0a.82.82,0,0,1-.35.51.86.86,0,0,1-.61.11,39.73,39.73,0,0,1-15.77-7.37,46.29,46.29,0,0,1-10-10.55,40,40,0,0,1-3.89-7.18,40.55,40.55,0,0,1-2.33-7.82,46.16,46.16,0,0,1,0-16.9,40.64,40.64,0,0,1,2.33-7.83,42.28,42.28,0,0,1,9.32-13.71l0,0a44.19,44.19,0,0,1,6.52-5.39,39,39,0,0,1,7.16-3.86,39.86,39.86,0,0,1,7.82-2.33,46.7,46.7,0,0,1,16.89,0,39.64,39.64,0,0,1,15,6.2,44.41,44.41,0,0,1,6.51,5.4,45.1,45.1,0,0,1,5.43,6.53,39.47,39.47,0,0,1,6.22,15,46.16,46.16,0,0,1,0,16.9,40.55,40.55,0,0,1-2.33,7.82,40,40,0,0,1-3.89,7.18,46.45,46.45,0,0,1-9.82,10.4,40.55,40.55,0,0,1-4.69,3.16,39.38,39.38,0,0,1-10.29,4.15.88.88,0,0,1-.62-.09.81.81,0,0,1-.36-.5.85.85,0,0,1,.09-.61.83.83,0,0,1,.5-.37A37.15,37.15,0,0,0,492,186.4a38.46,38.46,0,0,0,4.79-2.33,40,40,0,0,0,4.51-3,44.65,44.65,0,0,0,4.24-3.75,42.91,42.91,0,0,0,5.23-6.28,38.49,38.49,0,0,0,3.74-6.9,39,39,0,0,0,2.24-7.51,45.2,45.2,0,0,0,0-16.29,39,39,0,0,0-2.24-7.51,38.07,38.07,0,0,0-3.74-6.89,44.73,44.73,0,0,0-11.5-11.51,38.46,38.46,0,0,0-6.88-3.71,37.75,37.75,0,0,0-7.5-2.23,44.55,44.55,0,0,0-16.28,0,38,38,0,0,0-14.4,5.94,43.89,43.89,0,0,0-6.28,5.19l0,0a43,43,0,0,0-5.23,6.29,38.07,38.07,0,0,0-3.74,6.89,39,39,0,0,0-2.24,7.51,45.2,45.2,0,0,0,0,16.29A39,39,0,0,0,439,164.1a38.49,38.49,0,0,0,3.74,6.9,42.91,42.91,0,0,0,5.23,6.28,45.42,45.42,0,0,0,4.42,3.89,40.74,40.74,0,0,0,4.74,3.12,37.27,37.27,0,0,0,10.36,3.94" transform="translate(9 -8.5)"/></g><g id="onda_4" data-name="onda 4"><path class="cls-5" d="M469.24,168.81a.87.87,0,0,1,.37.39.83.83,0,0,1,0,.62l0,.07h0a.82.82,0,0,1-.39.37.83.83,0,0,1-.62,0,23,23,0,0,1-2.09-1c-.68-.36-1.35-.75-2-1.18a22.46,22.46,0,0,1-1.89-1.4c-.52-.42-1-.87-1.52-1.34h0l-.28-.28a24.22,24.22,0,0,1-2.94-3.54,21.05,21.05,0,0,1-2.11-3.9,21.73,21.73,0,0,1-1.27-4.25,24.46,24.46,0,0,1-.42-4.58,22.77,22.77,0,0,1,1.69-8.83,21.3,21.3,0,0,1,2.11-3.89,23.21,23.21,0,0,1,2.94-3.54l0,0a24.1,24.1,0,0,1,3.52-2.93,21.61,21.61,0,0,1,3.9-2.1,21,21,0,0,1,4.24-1.27,25.29,25.29,0,0,1,9.18,0,21.63,21.63,0,0,1,8.15,3.37,24.8,24.8,0,0,1,3.52,3,22.81,22.81,0,0,1,5.05,7.43,21.93,21.93,0,0,1,1.27,4.25,24.46,24.46,0,0,1,.42,4.58,22.77,22.77,0,0,1-1.69,8.83,21.66,21.66,0,0,1-2.11,3.9,24.22,24.22,0,0,1-2.94,3.54l0,0c-.46.47-.95.92-1.45,1.34s-1,.84-1.54,1.21-1.08.74-1.63,1.07-1.13.64-1.71.92a.79.79,0,0,1-1.07-.37l0-.08h0a.8.8,0,0,1,0-.53.84.84,0,0,1,.41-.46l0,0c.53-.25,1-.53,1.54-.83s1-.64,1.52-1,1-.73,1.43-1.13.92-.81,1.37-1.26l0,0a23.36,23.36,0,0,0,2.75-3.3,20.36,20.36,0,0,0,1.95-3.61,20.12,20.12,0,0,0,1.17-3.94,23.68,23.68,0,0,0,0-8.56,20,20,0,0,0-1.17-3.93,21.17,21.17,0,0,0-4.7-6.91h0a22,22,0,0,0-3.28-2.75,19.72,19.72,0,0,0-7.55-3.13,23,23,0,0,0-4.3-.39,22.76,22.76,0,0,0-4.27.39,19.48,19.48,0,0,0-3.94,1.18,20,20,0,0,0-3.61,1.95,22.7,22.7,0,0,0-3.3,2.75h0a22.64,22.64,0,0,0-2.75,3.29,20.09,20.09,0,0,0-3.12,7.55,23.68,23.68,0,0,0,0,8.56,20.12,20.12,0,0,0,1.17,3.94,20.36,20.36,0,0,0,1.95,3.61,23.36,23.36,0,0,0,2.75,3.3l.09.08c.52.51,1.05,1,1.59,1.43s1.17.9,1.77,1.31,1.23.76,1.85,1.09a21.27,21.27,0,0,0,1.94.88l.07,0Z" transform="translate(9 -8.5)"/></g><g id="onda_5" data-name="onda 5"><path class="cls-5" d="M471.13,156.39a.81.81,0,0,1,.16,1.12l0,0a.84.84,0,0,1-.5.28.81.81,0,0,1-.6-.15l-.42-.34c-.14-.1-.27-.22-.41-.34l-.4-.35-.38-.37a11.8,11.8,0,0,1-2.61-3.84,11,11,0,0,1-.66-2.2,12.71,12.71,0,0,1,0-4.71,10.87,10.87,0,0,1,.66-2.19,11.3,11.3,0,0,1,1.09-2,12.94,12.94,0,0,1,1.52-1.83,12.67,12.67,0,0,1,1.81-1.49,11,11,0,0,1,2-1.08,11.43,11.43,0,0,1,2.18-.65,12.92,12.92,0,0,1,2.35-.21,11.85,11.85,0,0,1,4.55.86,12.12,12.12,0,0,1,2,1.07,12.78,12.78,0,0,1,1.83,1.5h0a12.06,12.06,0,0,1,1.49,1.83,11.47,11.47,0,0,1,1.08,2,12,12,0,0,1,.65,2.19,13.31,13.31,0,0,1,0,4.71,11.53,11.53,0,0,1-.65,2.19,11.82,11.82,0,0,1-1.07,2,13.52,13.52,0,0,1-1.18,1.49l0,0-1.36,1.21a.81.81,0,0,1-1.13,0v0a.8.8,0,0,1,.05-1.13c.32-.28.65-.57,1-.87a11.51,11.51,0,0,0,1.28-1.56,9.61,9.61,0,0,0,.92-1.73,9.51,9.51,0,0,0,.55-1.88,11.21,11.21,0,0,0,0-4.11,9.61,9.61,0,0,0-1.47-3.61,10.64,10.64,0,0,0-2.89-2.89,9.61,9.61,0,0,0-3.61-1.47,11.21,11.21,0,0,0-4.11,0,9.15,9.15,0,0,0-1.87.55,8.82,8.82,0,0,0-1.71.92,10.59,10.59,0,0,0-1.57,1.31,10.16,10.16,0,0,0-2.26,3.32,9.75,9.75,0,0,0-.57,1.88,11.33,11.33,0,0,0-.18,2,10.12,10.12,0,0,0,.75,3.93,9.38,9.38,0,0,0,.94,1.73,11.36,11.36,0,0,0,1.32,1.59l.34.33.35.32q.38.32.75.6" transform="translate(9 -8.5)"/></g><g id="antenna"><path class="cls-4" d="M487.15,188.83q3.87,20.41,7.57,39.67c4.23,22.11,8.89,45.65,12.85,65.36l-8.13-2.44-22.5-14.62-21.48,12.55c0,.44-.07,1.59-.1,2l-8.61,2.72,12.77-65.35L467.34,189l6-30.48a16.51,16.51,0,0,0-1.12-7.77q-1.47-6,4.62-6.8c3.45-.17,5.25,1.77,5.38,5.84a2.36,2.36,0,0,1-.25,1.27,4.22,4.22,0,0,1-.36.66,5.13,5.13,0,0,0-.76,3.15q3.26,17.37,6.35,33.93M478.31,190h.06c.5-.57.52-1,.05-1.42H476a1.79,1.79,0,0,0,.4,1.42A2.31,2.31,0,0,0,478.31,190Zm-2.38-3.7h2.44a2,2,0,0,0-.41-1.48,2.39,2.39,0,0,0-1.93,0C475.49,185.39,475.45,185.88,475.93,186.29Zm-.16,6.75a2.81,2.81,0,0,0-1.11,2.19l4.87.05V193.5A5.73,5.73,0,0,0,475.77,193Zm9.81,23.77a11.29,11.29,0,0,0-1.53-6,8.22,8.22,0,0,0-4.11,3A8.62,8.62,0,0,0,485.58,216.81Zm-12-14.42a1.64,1.64,0,0,0,.35-1.78,3.38,3.38,0,0,0-2.33-.4l-.2,2.18A3.39,3.39,0,0,0,473.54,202.39Zm8.18,3.81a6.06,6.06,0,0,0-4.12-3.2c-3.15.78-4.77,1.84-4.87,3.2ZM480,198.63c-.2-.75-.81-1.17-1.83-1.27a5.49,5.49,0,0,0-3.35.66C475.4,199.54,477.13,199.75,480,198.63Zm2.79,4.22v-2.14a2.48,2.48,0,0,0-2.43-.5Q479.93,202.75,482.83,202.85Zm-4.92,12.75a11.93,11.93,0,0,0-8.08,4.87h15.09C484.51,218.85,482.17,217.22,477.91,215.6ZM470,211.13a22,22,0,0,0-.76,5.94,8.53,8.53,0,0,0,5.54-3.61A10.55,10.55,0,0,0,470,211.13Zm7.57,1q4-1.32,4.73-3.66H472.12A7,7,0,0,0,477.55,212.09ZM467.19,225.3l-.91,4.52-1,5.13a32.66,32.66,0,0,0,8-4.62l1-.82A13.08,13.08,0,0,0,467.19,225.3Zm-3.76,18.23a56.89,56.89,0,0,0-2,14.38l13.05-8.49Q466.54,243.89,463.43,243.53Zm13.67-15.69a18.61,18.61,0,0,0,7.72-4.68,70.44,70.44,0,0,0-15.5,0A42.83,42.83,0,0,0,477.1,227.84Zm11.22,1.77a19.41,19.41,0,0,0-1.68-4.36l-6.85,4.21,1.32.82,7.67,4.62A18.19,18.19,0,0,0,488.32,229.61Zm-28.75,36.68A138.38,138.38,0,0,0,455.76,286q9.66-5.28,18.74-10.67ZM477,231.14l-10.92,7.26h22.25Zm.41,20.37L462,261.06h30.88A76.21,76.21,0,0,0,477.4,251.51Zm-.56-3.61,11.38-7H466Zm3.3,1.93L493,257.5a34.36,34.36,0,0,0-2.89-13.87Zm18.49,36.52L495,266.24,480,275ZM493,263.7a261.63,261.63,0,0,0-30.88.3l15.44,9.45Q485.47,268.62,493,263.7Z" transform="translate(9 -8.5)"/></g></svg>