<svg id="Livello_1" data-name="Livello 1" xmlns="http://www.w3.org/2000/svg" viewBox="0 0 500 500"><defs><style>.cls-1,.cls-2{fill:#334257;}.cls-2{fill-rule:evenodd;}</style></defs><polygon class="cls-1" points="119.37 423.39 119.37 326.84 178.3 326.84 178.3 338.4 132.88 338.4 132.88 367.1 173.28 367.1 173.28 378.39 132.88 378.39 132.88 411.83 181.78 411.83 181.78 423.39 119.37 423.39"/><path class="cls-1" d="M219.05,424.78q-12-.27-17-5.15t-5-15.19V317.51l13-2.23v87.07a21.18,21.18,0,0,0,.55,5.3,7.32,7.32,0,0,0,1.81,3.34,7.78,7.78,0,0,0,3.35,1.88,34.27,34.27,0,0,0,5.15,1.05Z"/><path class="cls-1" d="M242.6,337.85a8.34,8.34,0,0,1-5.93-2.3,9.12,9.12,0,0,1,0-12.4,8.78,8.78,0,0,1,11.85,0,9.1,9.1,0,0,1,0,12.4A8.34,8.34,0,0,1,242.6,337.85Z"/><rect class="cls-1" x="236.19" y="350.94" width="12.96" height="72.45"/><path class="cls-1" d="M296.68,425.13a39.41,39.41,0,0,1-15.4-2.79,30.72,30.72,0,0,1-11.14-7.8,32.37,32.37,0,0,1-6.76-11.91,49.28,49.28,0,0,1-2.23-15.25,46,46,0,0,1,2.44-15.33,36,36,0,0,1,6.9-12.05,30.8,30.8,0,0,1,10.93-7.94,35.45,35.45,0,0,1,14.42-2.86,57.32,57.32,0,0,1,9.75.84,44.88,44.88,0,0,1,9.34,2.64l-2.93,11a31.25,31.25,0,0,0-6.75-2.23,38.1,38.1,0,0,0-8.15-.83q-10.87,0-16.65,6.82t-5.78,19.93A40.93,40.93,0,0,0,276,398.1a21.94,21.94,0,0,0,4.18,8.36,18.71,18.71,0,0,0,7.31,5.37,28,28,0,0,0,10.87,1.88,41.05,41.05,0,0,0,9.33-1,33.61,33.61,0,0,0,6.55-2.09L316,421.51a13.85,13.85,0,0,1-3.2,1.32A45.09,45.09,0,0,1,308.1,424q-2.64.48-5.64.83A50.57,50.57,0,0,1,296.68,425.13Z"/><path class="cls-1" d="M380.94,365.64a21.75,21.75,0,0,0-4.67-8.78,21.34,21.34,0,0,0-8.64-5.71,37.69,37.69,0,0,0-13.16-2,71.8,71.8,0,0,0-12.68,1.05,39.07,39.07,0,0,0-8.36,2.16L335,363.06a40.6,40.6,0,0,1,7.18-1.88,61.51,61.51,0,0,1,11.21-.9,19.49,19.49,0,0,1,8.15,1.46,12.82,12.82,0,0,1,4.95,3.9,14.55,14.55,0,0,1,2.5,5.57,28.85,28.85,0,0,1,.7,6.34v3.63q-.56-.15-1.95-.42t-3.27-.63c-1.26-.23-2.58-.42-4-.56s-2.74-.21-4-.21a53,53,0,0,0-11.71,1.26,30.69,30.69,0,0,0-9.75,3.9,19.41,19.41,0,0,0-6.62,7,20.65,20.65,0,0,0-2.44,10.3A25.16,25.16,0,0,0,328,412.52a18.19,18.19,0,0,0,5.86,7.18,25.29,25.29,0,0,0,8.91,4,48.08,48.08,0,0,0,11.29,1.25c2.87,0,5.78-.12,8.7-.35s5.65-.48,8.16-.76,4.75-.58,6.75-.91l4.67-.76V376.86A42.77,42.77,0,0,0,380.94,365.64Zm-11.29,47.44a35.74,35.74,0,0,1-5.92.77c-2.37.13-5.08.21-8.15.21q-7.66,0-12.12-2.72T339,401.66a9.49,9.49,0,0,1,1.81-6.06,12.89,12.89,0,0,1,4.53-3.63,19.21,19.21,0,0,1,6-1.74,48.8,48.8,0,0,1,6.2-.42,51,51,0,0,1,7.59.49,16.57,16.57,0,0,1,4.53,1.19Z"/><path class="cls-1" d="M128.08,462a10.48,10.48,0,0,1-4.1-.79,9.49,9.49,0,0,1-3.3-2.31,10.92,10.92,0,0,1-2.2-3.74,14.75,14.75,0,0,1-.81-5.08,13.89,13.89,0,0,1,.87-5.09,11.32,11.32,0,0,1,2.33-3.74,9.53,9.53,0,0,1,3.36-2.29,10.41,10.41,0,0,1,4-.77,15.18,15.18,0,0,1,2.34.16,13.43,13.43,0,0,1,1.84.41,12.37,12.37,0,0,1,1.35.5,5.54,5.54,0,0,1,.86.44l-.72,1.94a13.15,13.15,0,0,0-2.1-1,8.9,8.9,0,0,0-3.14-.48,9,9,0,0,0-3.74.73,7.31,7.31,0,0,0-2.68,2,8.72,8.72,0,0,0-1.63,3.13,13.71,13.71,0,0,0-.55,4,14.12,14.12,0,0,0,.55,4.1,8.71,8.71,0,0,0,1.59,3.11,7.1,7.1,0,0,0,2.59,2,8.46,8.46,0,0,0,3.51.69,13.89,13.89,0,0,0,3.64-.41,11.35,11.35,0,0,0,2.22-.84l.63,1.91a3.9,3.9,0,0,1-.79.38c-.38.14-.85.29-1.42.44a14.55,14.55,0,0,1-2,.38A18.87,18.87,0,0,1,128.08,462Z"/><path class="cls-1" d="M166.49,444.92a10.92,10.92,0,0,0-2.33-3.72,9.55,9.55,0,0,0-3.41-2.26,11.66,11.66,0,0,0-8.23,0,9.64,9.64,0,0,0-3.41,2.26,10.75,10.75,0,0,0-2.32,3.72,14.31,14.31,0,0,0-.86,5.16,14.48,14.48,0,0,0,.86,5.17,10.74,10.74,0,0,0,2.32,3.74,9.48,9.48,0,0,0,3.41,2.25,11.52,11.52,0,0,0,8.23,0,9.4,9.4,0,0,0,3.41-2.25,10.91,10.91,0,0,0,2.33-3.74,14.48,14.48,0,0,0,.85-5.17A14.31,14.31,0,0,0,166.49,444.92Zm-2.11,9.29a9.18,9.18,0,0,1-1.68,3.11,7.37,7.37,0,0,1-2.62,2,8.95,8.95,0,0,1-6.89,0,7.25,7.25,0,0,1-2.61-2,8.85,8.85,0,0,1-1.68-3.11,14.55,14.55,0,0,1,0-8.27,8.94,8.94,0,0,1,1.68-3.11,7.09,7.09,0,0,1,2.61-2,9.07,9.07,0,0,1,6.89,0,7.2,7.2,0,0,1,2.62,2,9.27,9.27,0,0,1,1.68,3.11,14.79,14.79,0,0,1,0,8.27Z"/><path class="cls-1" d="M196.39,461.51c-.42-.77-.95-1.67-1.59-2.71s-1.35-2.14-2.13-3.3l-2.45-3.62q-1.28-1.86-2.54-3.63c-.85-1.18-1.67-2.28-2.48-3.31s-1.52-1.91-2.15-2.66v19.23h-2.2V438.68h1.77c1.13,1.25,2.33,2.7,3.61,4.33s2.53,3.31,3.76,5,2.38,3.37,3.45,5,1.94,3,2.62,4.25V438.68h2.21v22.83Z"/><path class="cls-1" d="M217.61,460.06a7.54,7.54,0,0,0,4.15-1,3.51,3.51,0,0,0,1.48-3.15,4.18,4.18,0,0,0-.48-2.1,4.53,4.53,0,0,0-1.27-1.42,8.19,8.19,0,0,0-1.81-1l-2.14-.87a24.49,24.49,0,0,1-2.54-1.15,8.62,8.62,0,0,1-1.91-1.33,5.08,5.08,0,0,1-1.2-1.69,5.74,5.74,0,0,1-.41-2.24,5.31,5.31,0,0,1,1.94-4.45,8.6,8.6,0,0,1,5.4-1.51,12.19,12.19,0,0,1,1.82.13,13.15,13.15,0,0,1,1.66.34c.51.15,1,.31,1.42.48a6.22,6.22,0,0,1,1.07.56l-.79,1.88a8.22,8.22,0,0,0-2.33-1.06,10.66,10.66,0,0,0-2.94-.39,8.9,8.9,0,0,0-2,.21,4.63,4.63,0,0,0-1.56.69,3.38,3.38,0,0,0-1,1.21,3.73,3.73,0,0,0-.38,1.74,3.58,3.58,0,0,0,.4,1.78,3.84,3.84,0,0,0,1.1,1.25,9.29,9.29,0,0,0,1.66,1c.64.28,1.33.58,2.08.89s1.75.74,2.55,1.12a9.18,9.18,0,0,1,2.09,1.31,5.52,5.52,0,0,1,1.42,1.85,6.08,6.08,0,0,1,.53,2.67,5.33,5.33,0,0,1-2.16,4.64,9.87,9.87,0,0,1-5.85,1.55,15.93,15.93,0,0,1-2.4-.17,13.31,13.31,0,0,1-1.95-.41,9.81,9.81,0,0,1-1.44-.51,8,8,0,0,1-.93-.46l.73-1.94c.22.13.51.28.89.46a10,10,0,0,0,1.31.51,13.21,13.21,0,0,0,1.72.41A12.35,12.35,0,0,0,217.61,460.06Z"/><path class="cls-1" d="M246.46,462a9.71,9.71,0,0,1-3.87-.69A6.67,6.67,0,0,1,240,459.4a7.66,7.66,0,0,1-1.43-2.85,13.19,13.19,0,0,1-.44-3.51V438.68h2.24v14.06a10.43,10.43,0,0,0,.44,3.25,6.23,6.23,0,0,0,1.24,2.25,4.63,4.63,0,0,0,1.91,1.32,7.48,7.48,0,0,0,5,0,4.63,4.63,0,0,0,1.91-1.32,6.23,6.23,0,0,0,1.24-2.25,10.73,10.73,0,0,0,.44-3.25V438.68h2.24V453a13.61,13.61,0,0,1-.44,3.51,7.81,7.81,0,0,1-1.43,2.85,6.74,6.74,0,0,1-2.59,1.91A9.77,9.77,0,0,1,246.46,462Z"/><polygon class="cls-1" points="282.1 459.56 282.1 461.51 269.12 461.51 269.12 438.68 271.36 438.68 271.36 459.56 282.1 459.56"/><polygon class="cls-1" points="305.29 438.68 305.29 440.62 297.98 440.62 297.98 461.51 295.74 461.51 295.74 440.62 288.42 440.62 288.42 438.68 305.29 438.68"/><rect class="cls-1" x="317.34" y="438.68" width="2.24" height="22.83"/><path class="cls-1" d="M349.56,461.51c-.43-.77-1-1.67-1.6-2.71s-1.35-2.14-2.13-3.3-1.6-2.37-2.45-3.62-1.7-2.45-2.54-3.63-1.67-2.28-2.48-3.31-1.52-1.91-2.14-2.66v19.23H334V438.68h1.78c1.12,1.25,2.32,2.7,3.6,4.33s2.54,3.31,3.77,5,2.38,3.37,3.44,5,1.94,3,2.63,4.25V438.68h2.2v22.83Z"/><path class="cls-1" d="M380.09,450.7h2.24v10.18a17.76,17.76,0,0,1-2.45.68,21.18,21.18,0,0,1-4.5.41,10.88,10.88,0,0,1-4.15-.79,9.42,9.42,0,0,1-3.31-2.29,10.61,10.61,0,0,1-2.19-3.73,15,15,0,0,1-.79-5.08,14.11,14.11,0,0,1,.85-5.09,10.87,10.87,0,0,1,2.33-3.73,9.88,9.88,0,0,1,3.41-2.28,10.8,10.8,0,0,1,4.15-.79,13.64,13.64,0,0,1,4.18.54,10.57,10.57,0,0,1,2.4,1l-.75,1.91a7.54,7.54,0,0,0-2.51-1.07,13.24,13.24,0,0,0-3.42-.42,8.34,8.34,0,0,0-3.23.63,7.2,7.2,0,0,0-2.64,1.88,9.09,9.09,0,0,0-1.76,3.09,13,13,0,0,0-.64,4.29,14.87,14.87,0,0,0,.53,4.1,8.65,8.65,0,0,0,1.59,3.13,7.12,7.12,0,0,0,2.66,2,9,9,0,0,0,3.65.69,18.52,18.52,0,0,0,2.82-.18,7.65,7.65,0,0,0,1.53-.35Z"/><path class="cls-2" d="M127.47,207.23C91.73,79.58,229.55-6.33,324.2,62.24c43.35,31.41,77.24,107.68,29.65,174-84.68,118-279.61,8.52-183.9-115.68,65.71-85.28,200.16,5.66,145,89.85-38.1,58.18-134.39,17.72-115.45-42.56,14.89-47.41,82.57-32,84.07,1,2.35,51.52-73.26,17-39.68-5.93-28.23,8.25-9.64,47.17,24,43.05,53.21-6.53,36-97.82-38.5-89.54-36.76,4.09-53.67,40.54-54.88,62.79-4.47,60.15,62.15,105.48,125.4,71.46C390,202.28,345.4,62.94,242.05,65.47a114.45,114.45,0,0,0-82.42,38.39,143.75,143.75,0,0,0-31.06,57.87C122.28,185.31,128,210.31,127.47,207.23Z"/></svg>