<svg id="Livello_1" data-name="Livello 1" xmlns="http://www.w3.org/2000/svg" viewBox="0 0 151.37 57.54"><defs><style>.cls-1{fill:#285466;}.cls-2{fill:#b6ccbd;}</style></defs><rect class="cls-1" x="79.39" y="28.53" width="0.83" height="6.97"/><polygon class="cls-1" points="80.88 29.3 83.95 29.3 83.95 35.5 84.77 35.5 84.77 29.3 87.85 29.3 87.85 28.52 80.88 28.52 80.88 29.3"/><path class="cls-1" d="M141.05,80.13a3.81,3.81,0,0,0-1.15-.42,7.66,7.66,0,0,0-1.4-.13,9.78,9.78,0,0,0-1.66.14c-.52.09-1,.2-1.47.32l-.08,0v1l.14-.05.65-.24c.22-.08.44-.14.67-.2s.49-.1.75-.13a7.88,7.88,0,0,1,1.62,0,5,5,0,0,1,.69.11,3.51,3.51,0,0,1,.6.18,2,2,0,0,1,.47.29,1.15,1.15,0,0,1,.41.9v.41l-1.71.13c-.58.06-1.12.13-1.61.21a12.94,12.94,0,0,0-1.35.31,4.17,4.17,0,0,0-1,.45,2,2,0,0,0-.69.64,1.52,1.52,0,0,0-.25.85,1.82,1.82,0,0,0,.21.86,1.77,1.77,0,0,0,.6.62,2.85,2.85,0,0,0,.92.36,5.57,5.57,0,0,0,1.21.12,9.51,9.51,0,0,0,1-.06,8.51,8.51,0,0,0,1-.18,9.16,9.16,0,0,0,1-.29,5,5,0,0,0,.66-.28v.68h.82V82a2.1,2.1,0,0,0-.29-1.12A2.19,2.19,0,0,0,141.05,80.13Zm.24,2.89v2.11a3.59,3.59,0,0,1-.35.21,5.27,5.27,0,0,1-.53.23c-.19.07-.4.13-.62.19s-.45.12-.68.16-.45.08-.68.1a5.46,5.46,0,0,1-1.64,0,2.34,2.34,0,0,1-.72-.24,1.3,1.3,0,0,1-.44-.39.91.91,0,0,1-.15-.52.83.83,0,0,1,.31-.63,2.74,2.74,0,0,1,1-.53,11.18,11.18,0,0,1,1.85-.4C139.39,83.16,140.27,83.08,141.29,83Z" transform="translate(-46.66 -51.18)"/><path class="cls-1" d="M145.47,85.78a1.52,1.52,0,0,1-.64-.29,1,1,0,0,1-.28-.49,4.1,4.1,0,0,1-.07-.76V79.71h-.82v4.65a3.46,3.46,0,0,0,.13,1,1.46,1.46,0,0,0,.46.74,2.12,2.12,0,0,0,.89.43,5.83,5.83,0,0,0,1.37.13h3.28v-.8h-3.16A5.87,5.87,0,0,1,145.47,85.78Z" transform="translate(-46.66 -51.18)"/><rect class="cls-1" x="103.69" y="28.53" width="0.83" height="6.97"/><path class="cls-1" d="M159.44,80.87a2.22,2.22,0,0,0-.78-.74,3.75,3.75,0,0,0-1.14-.42,7.66,7.66,0,0,0-1.4-.13,9.81,9.81,0,0,0-1.67.14c-.51.09-1,.2-1.47.32l-.07,0v1l.14-.05.65-.24a6.55,6.55,0,0,1,.67-.2,7.27,7.27,0,0,1,.75-.13,7.88,7.88,0,0,1,1.62,0,5,5,0,0,1,.69.11,3.8,3.8,0,0,1,.6.18,2,2,0,0,1,.47.29,1.15,1.15,0,0,1,.41.9v.41l-1.72.13c-.57.06-1.11.13-1.6.21a12.37,12.37,0,0,0-1.35.31,4.25,4.25,0,0,0-1.05.45,2.1,2.1,0,0,0-.68.64,1.44,1.44,0,0,0-.25.85,1.71,1.71,0,0,0,.21.86,1.77,1.77,0,0,0,.6.62,2.85,2.85,0,0,0,.92.36,5.57,5.57,0,0,0,1.21.12,9.2,9.2,0,0,0,1-.06,8.44,8.44,0,0,0,2-.47,5.19,5.19,0,0,0,.67-.28v.68h.82V82A2.1,2.1,0,0,0,159.44,80.87ZM158.91,83v2.11a2.87,2.87,0,0,1-.36.21,4.25,4.25,0,0,1-.52.23l-.63.19c-.22.06-.44.12-.67.16s-.45.08-.68.1a5.46,5.46,0,0,1-1.64,0,2.26,2.26,0,0,1-.72-.24,1.3,1.3,0,0,1-.44-.39.91.91,0,0,1-.15-.52.83.83,0,0,1,.31-.63,2.66,2.66,0,0,1,1-.53,11,11,0,0,1,1.85-.4C157,83.16,157.89,83.08,158.91,83Z" transform="translate(-46.66 -51.18)"/><path class="cls-1" d="M168.47,81a2,2,0,0,0-.53-.78,2.49,2.49,0,0,0-.88-.49,4.11,4.11,0,0,0-1.23-.17,4.93,4.93,0,0,0-1.17.14,5.84,5.84,0,0,0-1,.33,7.67,7.67,0,0,0-.91.44l-.6.36v-1.1h-.82v7h.82V81.76a6.5,6.5,0,0,1,.65-.47,6.75,6.75,0,0,1,.89-.46,6.56,6.56,0,0,1,1-.35,4.6,4.6,0,0,1,2-.06,1.62,1.62,0,0,1,.64.28,1.25,1.25,0,0,1,.39.53,2.22,2.22,0,0,1,.14.88v4.57h.83V82A2.66,2.66,0,0,0,168.47,81Z" transform="translate(-46.66 -51.18)"/><path class="cls-1" d="M176,79.81l2.42,6.27,2.5-6.27h.68l-2.72,6.77h-.92l-2.37-6.11-2.37,6.11h-.91l-2.73-6.77h.69l2.5,6.27,2.41-6.27Z" transform="translate(-46.66 -51.18)"/><path class="cls-1" d="M188.75,86.58v-.75a5.48,5.48,0,0,1-.8.35,8.78,8.78,0,0,1-.95.28c-.34.08-.68.14-1,.19a9.16,9.16,0,0,1-1,.06,5.38,5.38,0,0,1-1.19-.12,2.76,2.76,0,0,1-.89-.35,1.72,1.72,0,0,1-.56-.58,1.62,1.62,0,0,1-.19-.81,1.46,1.46,0,0,1,.22-.8,2,2,0,0,1,.66-.6,4.4,4.4,0,0,1,1-.44,12.16,12.16,0,0,1,1.34-.31c.49-.08,1-.15,1.59-.2s1.18-.1,1.81-.14v-.51a1.25,1.25,0,0,0-.12-.56,1.1,1.1,0,0,0-.33-.42,1.84,1.84,0,0,0-.49-.3,3.75,3.75,0,0,0-.62-.2,5.13,5.13,0,0,0-.7-.1c-.24,0-.49,0-.74,0a8.28,8.28,0,0,0-.9,0,7.39,7.39,0,0,0-.76.14,6.06,6.06,0,0,0-.68.2l-.66.24v-.72c.46-.12.94-.23,1.46-.32a9.68,9.68,0,0,1,1.65-.13,7.54,7.54,0,0,1,1.38.12,3.65,3.65,0,0,1,1.11.41,2.1,2.1,0,0,1,.74.71,2,2,0,0,1,.27,1.06v4.59Zm0-3.67c-1.07.06-2,.14-2.75.25a11.1,11.1,0,0,0-1.86.4,2.94,2.94,0,0,0-1.07.55,1,1,0,0,0-.33.71,1,1,0,0,0,.16.58,1.24,1.24,0,0,0,.48.42,2.63,2.63,0,0,0,.75.26,6,6,0,0,0,1,.08l.67,0c.23,0,.46-.06.69-.11s.46-.09.68-.15l.63-.2a4.58,4.58,0,0,0,.54-.24,2.22,2.22,0,0,0,.41-.25Z" transform="translate(-46.66 -51.18)"/><path class="cls-1" d="M198,84.11a2.11,2.11,0,0,1-.31,1.14,2.4,2.4,0,0,1-.86.81,4.49,4.49,0,0,1-1.28.48,8.13,8.13,0,0,1-1.6.15,11.32,11.32,0,0,1-1.72-.12,6.53,6.53,0,0,1-1.37-.34v-.71a6.23,6.23,0,0,0,.65.24,4.91,4.91,0,0,0,.71.2,6.19,6.19,0,0,0,.81.14,9.11,9.11,0,0,0,.93,0,6.25,6.25,0,0,0,1.33-.13,3.73,3.73,0,0,0,1.08-.4,2.15,2.15,0,0,0,.73-.63,1.49,1.49,0,0,0,.27-.87V82.83a4.1,4.1,0,0,1-.58.61,4.63,4.63,0,0,1-.76.52,5,5,0,0,1-.92.35,3.82,3.82,0,0,1-1,.14,4.52,4.52,0,0,1-1.1-.12,3.19,3.19,0,0,1-.84-.31,2.44,2.44,0,0,1-.6-.48,2.38,2.38,0,0,1-.4-.61,3.26,3.26,0,0,1-.22-.69,4.37,4.37,0,0,1-.06-.72V79.81h.63v1.57a3.68,3.68,0,0,0,.13,1,1.88,1.88,0,0,0,.45.79,2,2,0,0,0,.81.51,3.76,3.76,0,0,0,1.25.18,3.21,3.21,0,0,0,1.05-.16,3.39,3.39,0,0,0,.88-.41,4.3,4.3,0,0,0,.73-.61,6.53,6.53,0,0,0,.58-.72V79.81H198Z" transform="translate(-46.66 -51.18)"/><path class="cls-2" d="M89.93,86.31l-.79.23-.72.15c-.24,0-.48.07-.73.09s-.51,0-.8,0A6.58,6.58,0,0,1,85,86.56a4.17,4.17,0,0,1-1.41-.72,3.14,3.14,0,0,1-.9-1.12,3.38,3.38,0,0,1-.31-1.48,3.5,3.5,0,0,1,.3-1.46,3.28,3.28,0,0,1,.85-1.14,3.89,3.89,0,0,1,1.29-.74,5,5,0,0,1,1.67-.26,5.18,5.18,0,0,1,1.69.25,3.57,3.57,0,0,1,1.25.72,3.28,3.28,0,0,1,.77,1.15,4.23,4.23,0,0,1,.26,1.51v.16H83.07a3.17,3.17,0,0,0,.32,1.17,2.61,2.61,0,0,0,.77.89,3.66,3.66,0,0,0,1.21.56,6.61,6.61,0,0,0,1.69.19,7.7,7.7,0,0,0,.83,0q.42-.06.81-.15c.26-.07.49-.14.71-.22a3.71,3.71,0,0,0,.52-.24Zm-.05-3.43a3.46,3.46,0,0,0-.24-1A2.56,2.56,0,0,0,89,81a3,3,0,0,0-1-.58,4.41,4.41,0,0,0-1.49-.22,4.13,4.13,0,0,0-1.43.22,3.16,3.16,0,0,0-1,.58,2.71,2.71,0,0,0-.67.85,3.14,3.14,0,0,0-.31,1Z" transform="translate(-46.66 -51.18)"/><path class="cls-2" d="M98.62,86.68v-4.6a2.56,2.56,0,0,0-.15-1,1.41,1.41,0,0,0-.44-.59,1.79,1.79,0,0,0-.7-.31,5.17,5.17,0,0,0-.92-.08,5.06,5.06,0,0,0-1.17.14,7.22,7.22,0,0,0-1.08.37,6.83,6.83,0,0,0-.93.49,8.64,8.64,0,0,0-.72.51v5h-.63v-7h.63v1.22l.79-.47a8.76,8.76,0,0,1,.92-.45,6.57,6.57,0,0,1,1.06-.33,5,5,0,0,1,1.18-.14,4.11,4.11,0,0,1,1.23.17,2.44,2.44,0,0,1,.87.49,1.88,1.88,0,0,1,.52.75,2.64,2.64,0,0,1,.18,1v4.74Z" transform="translate(-46.66 -51.18)"/><path class="cls-2" d="M104.91,84.45a2.46,2.46,0,0,1-.2,1,2,2,0,0,1-.57.72,2.37,2.37,0,0,1-.87.43,3.94,3.94,0,0,1-1.12.15c-.25,0-.49,0-.7,0s-.41,0-.59-.09l-.5-.11-.44-.11v-.65l.44.15a4.71,4.71,0,0,0,.51.13c.19,0,.4.07.64.1s.5,0,.81,0a2.63,2.63,0,0,0,.76-.11,1.91,1.91,0,0,0,.63-.34,1.57,1.57,0,0,0,.42-.53,1.7,1.7,0,0,0,.15-.73V79.71h.63Z" transform="translate(-46.66 -51.18)"/><path class="cls-2" d="M115.1,83.2a3.52,3.52,0,0,1-.34,1.62,3.19,3.19,0,0,1-.93,1.13,4.11,4.11,0,0,1-1.4.65,6.91,6.91,0,0,1-1.74.21,7.05,7.05,0,0,1-1.75-.21,4,4,0,0,1-1.4-.65,3.22,3.22,0,0,1-.94-1.13,3.52,3.52,0,0,1-.34-1.62,3.63,3.63,0,0,1,.16-1.13,3.13,3.13,0,0,1,.44-.92,3.18,3.18,0,0,1,.68-.69,3.9,3.9,0,0,1,.9-.49,5,5,0,0,1,1.06-.29,7.66,7.66,0,0,1,1.19-.09,6.91,6.91,0,0,1,1.74.21,4.11,4.11,0,0,1,1.4.65,3.19,3.19,0,0,1,.93,1.13A3.52,3.52,0,0,1,115.1,83.2Zm-.65,0a3.36,3.36,0,0,0-.24-1.31,2.41,2.41,0,0,0-.71-1,3.19,3.19,0,0,0-1.18-.59,5.68,5.68,0,0,0-1.63-.2,6.11,6.11,0,0,0-1.63.2,3.4,3.4,0,0,0-1.19.59,2.44,2.44,0,0,0-.72,1,3.31,3.31,0,0,0-.24,1.3,3.36,3.36,0,0,0,.24,1.31,2.34,2.34,0,0,0,.72.95,3.24,3.24,0,0,0,1.19.59,6.74,6.74,0,0,0,3.26,0,3.19,3.19,0,0,0,1.18-.59,2.41,2.41,0,0,0,.71-.95A3.36,3.36,0,0,0,114.45,83.2Z" transform="translate(-46.66 -51.18)"/><path class="cls-2" d="M123.6,84.13a2.2,2.2,0,0,1-.32,1.19,2.7,2.7,0,0,1-.88.83,4.27,4.27,0,0,1-1.33.48,7.7,7.7,0,0,1-1.65.16,11.88,11.88,0,0,1-1.76-.12,6.91,6.91,0,0,1-1.41-.35v-.73c.21.09.43.17.66.25a7.19,7.19,0,0,0,.74.21,6.87,6.87,0,0,0,.83.13,7.33,7.33,0,0,0,1,0,6,6,0,0,0,1.37-.14,4,4,0,0,0,1.11-.4,2.21,2.21,0,0,0,.75-.66,1.48,1.48,0,0,0,.28-.9V82.81a3.94,3.94,0,0,1-.6.64,4.45,4.45,0,0,1-.78.53,4.6,4.6,0,0,1-.94.37,4.18,4.18,0,0,1-1.07.14,4.78,4.78,0,0,1-1.13-.12,3.21,3.21,0,0,1-.86-.33,2.21,2.21,0,0,1-.62-.49,2.35,2.35,0,0,1-.41-.63,2.87,2.87,0,0,1-.23-.7,4.74,4.74,0,0,1-.06-.75V79.71h.64v1.62a3.89,3.89,0,0,0,.14,1.06,2.16,2.16,0,0,0,.46.81,2,2,0,0,0,.84.52,3.68,3.68,0,0,0,1.28.19,3.42,3.42,0,0,0,1.09-.16,4,4,0,0,0,.91-.43,4,4,0,0,0,.74-.63A6.06,6.06,0,0,0,123,82V79.71h.65Z" transform="translate(-46.66 -51.18)"/><path class="cls-2" d="M75.62,102.05c2-1.79,5.44-1.13,5.44-1.13s.15,3.55-1.87,5.34-5.44,1.12-5.44,1.12-.15-3.55,1.87-5.33" transform="translate(-46.66 -51.18)"/><path class="cls-2" d="M68.73,100.71c1.61,3.49-.29,8-.29,8s-4.52-1.15-6.14-4.65.29-8,.29-8,4.52,1.15,6.14,4.65" transform="translate(-46.66 -51.18)"/><path class="cls-2" d="M60.53,99.44c-.25,2.32-2.58,3.92-2.58,3.92s-1.93-2.17-1.68-4.49S58.85,95,58.85,95s1.93,2.17,1.68,4.49" transform="translate(-46.66 -51.18)"/><path class="cls-2" d="M77.11,93.23c3.08,1.41,4.34,5.68,4.34,5.68s-3.73,2-6.81.58S70.3,93.8,70.3,93.8s3.73-2,6.81-.57" transform="translate(-46.66 -51.18)"/><path class="cls-2" d="M65.15,89.47c2.24-1,5,.47,5,.47S69.2,93.05,67,94.06,62,93.59,62,93.59s.91-3.11,3.14-4.12" transform="translate(-46.66 -51.18)"/><path class="cls-2" d="M53,80.72c3.08.92,4.83,4.78,4.83,4.78S54.57,87.89,51.49,87s-4.83-4.78-4.83-4.78,3.25-2.38,6.34-1.47" transform="translate(-46.66 -51.18)"/><path class="cls-2" d="M74.81,81.89c1,2.37-.38,5.23-.38,5.23s-3-1-3.93-3.34.39-5.24.39-5.24,3,1,3.92,3.35" transform="translate(-46.66 -51.18)"/><path class="cls-2" d="M55.15,94.85C53,96,50,94.69,50,94.69s.55-3.06,2.73-4.17,5.14.16,5.14.16-.56,3.06-2.73,4.17" transform="translate(-46.66 -51.18)"/><path class="cls-2" d="M90.32,95.33c1.93,2.31,1.11,6.15,1.11,6.15s-3.94.1-5.87-2.21-1.11-6.14-1.11-6.14,4-.11,5.87,2.2" transform="translate(-46.66 -51.18)"/><path class="cls-2" d="M90.36,69.88c2.36,1.15,3.15,4.53,3.15,4.53s-3.05,1.51-5.41.36S85,70.23,85,70.23s3-1.51,5.4-.35" transform="translate(-46.66 -51.18)"/><path class="cls-2" d="M83.3,77.39C82.23,80,79,81,79,81s-1.52-3.24-.45-5.83,4.33-3.56,4.33-3.56,1.52,3.24.45,5.83" transform="translate(-46.66 -51.18)"/><path class="cls-2" d="M89.45,61.94c-1.25,3.38-5.35,4.85-5.35,4.85s-2.06-4-.81-7.37,5.35-4.85,5.35-4.85,2.06,4,.81,7.37" transform="translate(-46.66 -51.18)"/><path class="cls-2" d="M55.88,77.89c-2.14,1-4.8-.31-4.8-.31s.79-3,2.92-4.07,4.8.31,4.8.31-.79,3-2.92,4.07" transform="translate(-46.66 -51.18)"/><path class="cls-2" d="M70.77,56.56c-.25,2.84-3.06,4.9-3.06,4.9s-2.38-2.54-2.13-5.38,3.06-4.9,3.06-4.9,2.39,2.55,2.13,5.38" transform="translate(-46.66 -51.18)"/><path class="cls-2" d="M61.76,61.58c3.44,3,3.5,8.93,3.5,8.93s-5.53,1.16-9-1.8-3.49-8.94-3.49-8.94,5.53-1.16,9,1.81" transform="translate(-46.66 -51.18)"/><path class="cls-2" d="M81,59.08c-1.41,2.44-4.78,3-4.78,3s-1.07-3.41.35-5.85,4.77-3,4.77-3,1.07,3.41-.34,5.84" transform="translate(-46.66 -51.18)"/><path class="cls-2" d="M72.55,63.91a4.14,4.14,0,0,1-2.65,1.65,4.62,4.62,0,0,1,.19-3.25,4.11,4.11,0,0,1,2.65-1.65,4.69,4.69,0,0,1-.19,3.25" transform="translate(-46.66 -51.18)"/><path class="cls-2" d="M50.71,72.94A4.13,4.13,0,0,1,48,71.45,4.65,4.65,0,0,1,50.88,70a4.13,4.13,0,0,1,2.75,1.5,4.65,4.65,0,0,1-2.92,1.43" transform="translate(-46.66 -51.18)"/><path class="cls-2" d="M93,68.94a4.1,4.1,0,0,1-2.75-1.49A4.65,4.65,0,0,1,93.14,66a4.09,4.09,0,0,1,2.74,1.49A4.61,4.61,0,0,1,93,68.94" transform="translate(-46.66 -51.18)"/><path class="cls-2" d="M76.83,70.42c-2.53.94-5.46-.9-5.46-.9s1.17-3.37,3.7-4.32,5.46.91,5.46.91-1.17,3.37-3.7,4.31" transform="translate(-46.66 -51.18)"/><path class="cls-2" d="M66.55,78.58c2.13,2.7,1.43,7,1.43,7s-4.17,0-6.31-2.75-1.43-7-1.43-7,4.17,0,6.31,2.74" transform="translate(-46.66 -51.18)"/><path class="cls-2" d="M102.77,93.52c-9,0-16.91-2.92-21.88-7.43,4,5.45,12.27,9.21,21.88,9.21s17.91-3.76,21.87-9.21C119.68,90.6,111.73,93.52,102.77,93.52Z" transform="translate(-46.66 -51.18)"/><path class="cls-2" d="M79.29,86.65C82.24,92.36,83,98.38,81.76,103c2.16-4.31,1.82-10.84-1.34-17s-8.28-10.18-13.06-10.9C71.86,76.84,76.34,80.94,79.29,86.65Z" transform="translate(-46.66 -51.18)"/><path class="cls-2" d="M73.63,72c-7.74,1.59-15.13.47-20.21-2.54,4.38,4,12.22,5.78,20.52,4.08s14.81-6.42,17.27-11.83C87.72,66.49,81.37,70.42,73.63,72Z" transform="translate(-46.66 -51.18)"/><path class="cls-2" d="M65.09,87.66c7.26.11,13.67,2.58,17.64,6.3-3.14-4.47-9.83-7.62-17.62-7.75S50.54,89,47.26,93.4C51.34,89.81,57.82,87.54,65.09,87.66Z" transform="translate(-46.66 -51.18)"/><path class="cls-2" d="M56.15,95.66a14.79,14.79,0,0,1-9.37,4.45c3,.52,6.83-.87,9.92-3.87s4.6-6.81,4.17-9.81A14.77,14.77,0,0,1,56.15,95.66Z" transform="translate(-46.66 -51.18)"/><path class="cls-2" d="M67.71,64.2a14.73,14.73,0,0,1,2.42,10.09c1.12-2.81.56-6.87-1.74-10.51s-5.72-5.91-8.73-6.1A14.74,14.74,0,0,1,67.71,64.2Z" transform="translate(-46.66 -51.18)"/></svg>