<svg id="Livello_1" data-name="Livello 1" xmlns="http://www.w3.org/2000/svg" viewBox="0 0 500.22 234.64"><defs><style>.cls-1,.cls-2,.cls-3{fill:#1d1d1b;}.cls-2{stroke:#1d1d1b;}.cls-2,.cls-3{stroke-miterlimit:10;}.cls-3{stroke:#fff;}</style></defs><polygon class="cls-1" points="178.57 67.56 209.39 67.56 209.39 24.3 216.5 24.3 216.5 0 172.65 0 172.65 24.3 178.57 24.3 178.57 67.56"/><polygon class="cls-1" points="291.39 67.56 322.2 67.56 322.2 24.3 329.31 24.3 329.31 0 285.46 0 285.46 24.3 291.39 24.3 291.39 67.56"/><polygon class="cls-1" points="236.35 67.56 266.28 67.56 266.28 54.22 273.69 54.22 273.69 28 228.5 28 228.5 54.22 236.35 54.22 236.35 67.56"/><path class="cls-2" d="M84,391.64v9.75H64.7v9.78H79.17v9.75H64.7v9.75H84v9.77H55v-48.8Z" transform="translate(-54.52 -278.95)"/><path class="cls-2" d="M134.75,418.31V391.64h9.68v48.8l-29-26.7v26.7h-9.68v-48.8Z" transform="translate(-54.52 -278.95)"/><path class="cls-2" d="M188.89,391.64H201v9.75H188.89v39.05h-9.68V401.39H167.13v-9.75h21.76Z" transform="translate(-54.52 -278.95)"/><path class="cls-2" d="M223.18,425.79V391.64h16.91a16.21,16.21,0,0,1,11.95,5A17.1,17.1,0,0,1,254,418.51a16.73,16.73,0,0,1-7.84,6.16L257,440.44H245.21l-12.35-17.86v17.86h-9.68ZM240.09,416a6.93,6.93,0,0,0,5.12-2.15,7.33,7.33,0,0,0,0-10.33,6.91,6.91,0,0,0-5.12-2.17h-7.23V416Z" transform="translate(-54.52 -278.95)"/><path class="cls-2" d="M307.83,391.64v9.75h-19.3v9.78H303v9.75H288.53v9.75h19.3v9.77h-29v-48.8Z" transform="translate(-54.52 -278.95)"/><path class="cls-2" d="M374.75,433.48l-3.12,7H361.32L382,393.91l1-2.27,1.05,2.3,20.7,46.5H394.44l-3.09-7-.15-.33H374.9Zm12.07-10.11-3.77-8.54-3.81,8.54Z" transform="translate(-54.52 -278.95)"/><path class="cls-2" d="M447.67,423.37l23.56-31.73v48.8h-9.68V420.92l-13.88,18.74L433.8,420.92v19.52h-9.68v-48.8Z" transform="translate(-54.52 -278.95)"/><path class="cls-2" d="M493.06,391.64h9.68v48.8h-9.68Z" transform="translate(-54.52 -278.95)"/><path class="cls-2" d="M536.21,419.65a20.66,20.66,0,0,1-4.61-2.4,17.06,17.06,0,0,1-4.39-4.31,11,11,0,0,1-2-6.67,14.19,14.19,0,0,1,4.25-10.33,14.33,14.33,0,0,1,20.47,0,14.16,14.16,0,0,1,4.26,10.33h-9.65a4.71,4.71,0,0,0-1.43-3.44,4.75,4.75,0,0,0-6.81,0,4.73,4.73,0,0,0-1.41,3.44,4.41,4.41,0,0,0,2.08,4,13.59,13.59,0,0,0,3.16,1.65c.34.12,1.27.4,2.77.84a20.1,20.1,0,0,1,4.77,2.21,16.83,16.83,0,0,1,4.51,4.17,10.68,10.68,0,0,1,2,6.7A14.19,14.19,0,0,1,550,436.15a14.35,14.35,0,0,1-20.47,0,14.22,14.22,0,0,1-4.25-10.36h9.68a4.72,4.72,0,0,0,1.41,3.45,4.77,4.77,0,0,0,6.81,0,4.7,4.7,0,0,0,1.43-3.45c0-2.06-.82-3.39-2.44-4s-2.74-1-3.32-1.25Z" transform="translate(-54.52 -278.95)"/><path class="cls-3" d="M243.66,498.88V482.53h5.94v29.91l-17.77-16.36v16.36H225.9V482.53Z" transform="translate(-54.52 -278.95)"/><path class="cls-3" d="M265.3,508.18l-1.92,4.26h-6.32l12.68-28.51.63-1.4.64,1.41,12.69,28.5h-6.33l-1.9-4.28-.09-.21h-10Zm7.4-6.2-2.32-5.23L268.05,502Z" transform="translate(-54.52 -278.95)"/><path class="cls-3" d="M289.54,503.46V482.53H299.9a10,10,0,0,1,7.33,3.08,10.48,10.48,0,0,1,0,14.78,10,10,0,0,1-7.33,3.07h-4.43v9h-5.93Zm10.36-6a4.26,4.26,0,0,0,3.14-1.32,4.51,4.51,0,0,0,0-6.34,4.26,4.26,0,0,0-3.14-1.32h-4.43v9Z" transform="translate(-54.52 -278.95)"/><path class="cls-3" d="M342.44,486.93a15,15,0,0,1,0,21.13,14.68,14.68,0,0,1-20.92,0,15,15,0,0,1,0-21.13,14.63,14.63,0,0,1,20.92,0Zm-16.73,4.22a9,9,0,0,0,0,12.68,8.82,8.82,0,0,0,12.55,0,9,9,0,0,0,0-12.68,8.78,8.78,0,0,0-12.55,0Z" transform="translate(-54.52 -278.95)"/><path class="cls-3" d="M359.1,482.53v23.92h11.84v6H353.17V482.53Z" transform="translate(-54.52 -278.95)"/><path class="cls-3" d="M378.26,482.53h5.93v29.91h-5.93Z" transform="translate(-54.52 -278.95)"/></svg>