<svg id="Livello_1" data-name="Livello 1" xmlns="http://www.w3.org/2000/svg" viewBox="0 0 566.93 566.93"><defs><style>.cls-1{fill:#020202;}</style></defs><path class="cls-1" d="M280.14,187.14h6.74q27.56,0,49.63,22.28-5.81,5.07-8.91,5.08-19.07-17.31-42.49-17.31h-1.65q-39.48,0-59.17,39.07a61,61,0,0,0-5,25.08V263q0,36.9,37.93,57.52a69,69,0,0,0,26.84,5.59q23.73,0,43.52-17.3h1.66l7.25,3.93v1.14q-21.86,22.29-52.43,22.28h-1.14q-38.34,0-63.11-35.75-10.58-18.34-10.57-35.65V258q0-33.36,32.33-58Q261,187.14,280.14,187.14Z"/><path class="cls-1" d="M276.22,111.62h13.27q66.57,0,115.38,63.3,26.55,40,26.55,80.87V366.68q-20.22,48.81-83.12,76.38Q314.81,455.32,284,455.31q-88.64,0-141.73-75.35l-5.72-10,1.23-1h22.05Q208,434.27,276.22,434.28h15.52q64.11,0,111.91-59.84l3.47-5.51V342.18Q357.29,407.73,284,407.73h-2.25q-76.17,0-125.19-71.07-21-36.56-21-70.86V252.53q0-66.17,64.33-115.39Q238.23,111.63,276.22,111.62ZM155.52,259.06v3.47q0,73.11,75.36,114.16a136.49,136.49,0,0,0,53.1,11q77.81,0,118.64-79.85,8.79-27.36,8.79-49.83,0-72.09-71.89-114.16-28.78-12.25-53.3-12.25H283q-78.4,0-117.42,77.6Q155.53,231.49,155.52,259.06Z"/><path class="cls-1" d="M293.8,245.3q8.64,7.19,8.64,17.31v.32q0,10.4-8.82,17.31l-.17-.17v-2.93c0-.47.6-1.29,1.8-2.44q4.08-5.54,4.09-10.12v-.34H261.78q0,5.79,5.89,12.41v3.42h-.32q-8.5-7.14-8.5-16.33V261.8q0-9.13,8.5-16.33h.32v3.43q-5.9,6.65-5.89,12.41h37.56V261q0-5.83-5.89-12.09v-3.25Z"/><path class="cls-1" d="M328.56,241.16h1.95q9.78,0,17,9.3a21.21,21.21,0,0,1,3.93,11.89V264l-.34.34H310.81q0,5.75,5.68,12.22a19.49,19.49,0,0,0,13.23,5.2,21.17,21.17,0,0,0,10.91-3.41h.16l1.79,1.8v.15a20.12,20.12,0,0,1-12.86,4.41h-.34q-11.2,0-18.42-10.43a20.88,20.88,0,0,1-3.1-10.46v-1.94q0-9.74,9.45-17A20.32,20.32,0,0,1,328.56,241.16Zm-17.75,20.22h37.48v-.33q0-6.48-7-13.05A19.61,19.61,0,0,0,330,244.11h-.48q-11.75,0-17.45,11.74A19,19,0,0,0,310.81,261.38Z"/><path class="cls-1" d="M377.94,241h1.94q5.21.3,5.41,1.13v2.46l-.33.33a15.36,15.36,0,0,0-5.56-1h-.49q-11.76,0-17.51,11.79a19.39,19.39,0,0,0-1.31,5.57h16.2l.34.33v2.28l-.34.34h-16.2v20.12l-.33.34h-2.28l-.34-.34V261.77q0-9.75,9.49-17A20.5,20.5,0,0,1,377.94,241Z"/></svg>