<svg id="Livello_1" data-name="Livello 1" xmlns="http://www.w3.org/2000/svg" viewBox="0 0 800 800"><defs><style>.cls-1{fill:#5f6663;}</style></defs><path class="cls-1" d="M515.5,404.13l5.43,6.37h-7.12l-2-2.59A11.8,11.8,0,0,1,508,410.3a11.07,11.07,0,0,1-3.9.7,13,13,0,0,1-3.31-.41,8.35,8.35,0,0,1-2.71-1.26,5.94,5.94,0,0,1-1.84-2.16,6.83,6.83,0,0,1-.66-3.11,7.08,7.08,0,0,1,.5-2.69,7.71,7.71,0,0,1,1.39-2.21,8.66,8.66,0,0,1,2.12-1.73,16.13,16.13,0,0,1,2.71-1.28,7.6,7.6,0,0,1-1.24-2.24,7.3,7.3,0,0,1-.41-2.43,6.7,6.7,0,0,1,2.23-5.08,7.4,7.4,0,0,1,2.49-1.5,9.22,9.22,0,0,1,3.15-.53,9.44,9.44,0,0,1,2.87.41,6.85,6.85,0,0,1,2.3,1.18,5.47,5.47,0,0,1,1.53,1.93,6,6,0,0,1,.56,2.62,5.86,5.86,0,0,1-.43,2.25,6.5,6.5,0,0,1-1.24,1.89,9.47,9.47,0,0,1-2,1.56,20.16,20.16,0,0,1-2.59,1.31l2.62,3.13,2.74-3.78h6.57Zm-10.6-4.52a7.22,7.22,0,0,0-2.52,1.42,3.16,3.16,0,0,0-1,2.49,2.49,2.49,0,0,0,1,2,3.46,3.46,0,0,0,2.25.78,4.69,4.69,0,0,0,2.26-.54,6.55,6.55,0,0,0,1.87-1.55Zm5.82-8.85a2.25,2.25,0,0,0-.57-1.61,2.13,2.13,0,0,0-1.62-.61,2.59,2.59,0,0,0-2,.79,2.73,2.73,0,0,0-.75,2,4.07,4.07,0,0,0,.37,1.67,4.67,4.67,0,0,0,.92,1.39,7.51,7.51,0,0,0,2.59-1.48A2.8,2.8,0,0,0,510.72,390.76Z"/><path class="cls-1" d="M346.53,256.67h36.12c.09,1.11.24,2.16.24,3.21q0,51.31,0,102.62a28.16,28.16,0,0,0,.77,6.53c.63,2.62,2.38,4.35,5.25,4.24,2.71-.1,4.26-1.83,4.73-4.36a36,36,0,0,0,.64-6.55q.08-50,.05-100v-5.44h36.23v4.47c0,31.76-.58,63.52.19,95.26.56,23.4-16.61,36.52-33.24,39.42-15.23,2.66-29-.68-40.46-11.51a32.69,32.69,0,0,1-10.52-24.63q0-49.83,0-99.67Z"/><path class="cls-1" d="M278.3,403.16h59.86V432.5H313.73v25H336v25c-6.42,0-12.64.14-18.85-.06-2.9-.09-3.76.83-3.73,3.73.12,15.81.06,31.61.06,47.42v4.62H278.3Z"/><path class="cls-1" d="M278.4,256.76h59.86v29.11H313.78V311h22.16v24.86H313.61v55.91H278.4Z"/><path class="cls-1" d="M430.53,410.11h0v-6.84H394.3v4.22q0,50,0,100a55.91,55.91,0,0,1-.53,7.31c-.38,2.82-1.85,4.88-4.95,5-3.3.08-4.85-2.22-5.4-5a40.24,40.24,0,0,1-.57-7.68q-.06-49.47,0-98.92v-4.91H346.7c-.06,1.34-.16,2.53-.16,3.73q0,49.63,0,99.29a33.13,33.13,0,0,0,11.75,25.93c11.35,10,24.78,13,39.44,10.31,16.07-2.9,33.47-15.61,33-38.86C430.09,472.48,430.51,441.29,430.53,410.11Z"/><path class="cls-1" d="M521.7,256.82V369.13a31.43,31.43,0,0,0-35.65,6.61c-4.57-14.43-9-28.47-13.45-42.5l-.82.13v58.4H443.05V256.58c5.93,0,11.72,0,17.46,0h12.05l20.81,58.24v-58Z"/><path class="cls-1" d="M521.45,426.35v112.3H491.18l-19.54-59v58.76h-29V403c5.61,0,11.11,0,16.58,0h12.83L492.85,461v-36a31.48,31.48,0,0,0,28.6,1.44Z"/></svg>