<svg id="Livello_1" data-name="Livello 1" xmlns="http://www.w3.org/2000/svg" viewBox="0 0 121.13 115.4"><path d="M84.23,19.06c5.25.07,10.5.23,15.75.2,4.86,0,7.69,2.16,9.37,6.67,5,13.45,10.28,26.77,15.29,40.2a7.9,7.9,0,0,1,0,5c-1.85,5.42-4,10.72-6.51,17.22-3.25-8.4-6-15.66-8.85-22.91-4.75-12.26-9.57-24.5-14.22-36.8-1.92-5.09-5.36-8-10.84-8.64Z" transform="translate(-62.26 -19.06)"/><path d="M154.5,88.23H141.62c0-1.65,0-2.77,0-4q0-28,0-55.93c0-7.27,1.73-8.94,9-9,3.6,0,7.2,0,10.76,0-2.13,1.58-5.09,2.75-6.16,4.86-1.16,2.3-.73,5.46-.74,8.25-.05,16.87,0,33.73,0,50.6Z" transform="translate(-62.26 -19.06)"/><polygon points="26.7 69.17 29.64 69.17 29.64 34.28 26.7 27.71 26.7 69.17"/><path d="M62.26,95.56h3.59l6.65,14.73,6.65-14.73h3.44V114.1H79.72V100.38l-6.2,13.72h-2.2l-6.19-13.72V114.1H62.26Z" transform="translate(-62.26 -19.06)"/><path d="M107.56,95.56h3.25l10.43,13.93V95.56h3.09V114.1h-3.26l-10.42-13.93V114.1h-3.09Z" transform="translate(-62.26 -19.06)"/><path d="M137.82,95.29c4.43,0,8.22,2.76,9,6.29l-2.81.55a6.52,6.52,0,0,0-6.23-4,6.7,6.7,0,1,0,0,13.4c3,0,5.51-1.5,6.26-4.15l2.79.45a9.06,9.06,0,0,1-9.05,6.54c-5.68,0-10-4.13-10-9.54S132.14,95.29,137.82,95.29Z" transform="translate(-62.26 -19.06)"/><path d="M150.78,95.56H154V114.1h-3.18Z" transform="translate(-62.26 -19.06)"/><path d="M158.7,95.56H162l10.42,13.93V95.56h3.09V114.1h-3.25l-10.43-13.93V114.1H158.7Z" transform="translate(-62.26 -19.06)"/><path d="M180.22,95.56h3.17V114.1h-3.17Z" transform="translate(-62.26 -19.06)"/><polygon points="39.53 95.05 42.92 95.05 34.37 76.5 31.39 76.5 22.84 95.05 26.07 95.05 28.17 90.43 29.32 87.89 32.83 80.2 36.3 87.89 37.43 90.43 39.53 95.05"/><path d="M99.35,128.64v-7.27h2.05v7.23a3.57,3.57,0,1,0,7.14,0v-7.23h2.06v7.27a5.63,5.63,0,1,1-11.25,0Z" transform="translate(-62.26 -19.06)"/><path d="M113.6,121.46h2.16l6.92,9.64v-9.64h2v12.82h-2.16l-6.92-9.63v9.63H113.6Z" transform="translate(-62.26 -19.06)"/><path d="M128,121.46h2.1v12.82H128Z" transform="translate(-62.26 -19.06)"/><path d="M132.88,127.87a6.65,6.65,0,1,1,6.64,6.59A6.5,6.5,0,0,1,132.88,127.87Zm11.24,0a4.6,4.6,0,1,0-4.6,4.6A4.53,4.53,0,0,0,144.12,127.87Z" transform="translate(-62.26 -19.06)"/><path d="M157.07,134.28,154,129.79h-3.66v4.49h-2V121.46h6.09c2.84,0,4.67,1.71,4.67,4.12a3.87,3.87,0,0,1-3,3.87l3.42,4.83Zm-6.75-6.21h4c1.7,0,2.71-1,2.71-2.38a2.41,2.41,0,0,0-2.71-2.4h-4Z" transform="translate(-62.26 -19.06)"/><path d="M94.3,121.46v7.75a3,3,0,0,1-3.06,3.24A2.73,2.73,0,0,1,88.31,130l-2.13,0a4.73,4.73,0,0,0,5.06,4.44,4.92,4.92,0,0,0,5.11-5.21v-7.79Z" transform="translate(-62.26 -19.06)"/></svg>