<svg id="Livello_1" data-name="Livello 1" xmlns="http://www.w3.org/2000/svg" viewBox="0 0 400 100"><defs><style>.cls-1{fill:#c6c6c6;}.cls-2{fill:#432918;}</style></defs><polygon class="cls-1" points="11.42 50 58.57 49.72 105.71 49.55 200 49.41 294.29 49.55 341.43 49.71 388.58 50 341.43 50.29 294.29 50.45 200 50.59 105.71 50.45 58.57 50.28 11.42 50"/><path class="cls-2" d="M67.28,40q2.85-6.47,5.42-13.09h.19L75.43,41.8H83c-.28-1.83-.54-3.58-.76-5.26a64.47,64.47,0,0,1-.69-7.48q0-4.32,2.48-6a15.17,15.17,0,0,1,6.34-2.21v-1.1q-2.94.18-5.83.27c-1.93.07-3.88.1-5.84.1-2.2,0-4.41,0-6.61-.1s-4.41-.15-6.61-.27v1.1a16.45,16.45,0,0,1,2.84,1.2A8.1,8.1,0,0,1,70.68,24q-3.09,9.11-6.76,17.8h2.59Z"/><path class="cls-2" d="M79.23,64a33.5,33.5,0,0,1,.55,4.23q.09,1.83.09,2.94a8.35,8.35,0,0,1-.74,3.81,5.67,5.67,0,0,1-2.06,2.25A10.51,10.51,0,0,1,74,78.43c-1.16.28-2.39.5-3.67.69v1.1Q73.8,80,77.16,80t6.84-.1q3.68,0,7.3.1t7.31.27v-1.1a21.86,21.86,0,0,1-4.87-1.06,7.53,7.53,0,0,1-2.85-1.74,7.71,7.71,0,0,1-1.56-2.44,24,24,0,0,1-1-3.21c-.68-2.88-1.39-6.37-2.16-10.47l-.6-3.27H78Z"/><path class="cls-2" d="M27.88,37.23q.74-6.15,1.47-11.21h.18q3.78,7.9,7.28,15.78h8.37l-4.08-10c-.42-1-.81-2-1.14-3a9.18,9.18,0,0,1-.51-3,3.84,3.84,0,0,1,1.47-3.35,9.63,9.63,0,0,1,3.22-1.52v-1.1c-1.9.12-3.79.21-5.65.27s-3.76.1-5.65.1c-2.64,0-5.25,0-7.86-.1s-5.22-.15-7.85-.27v1.1a29.65,29.65,0,0,1,5.33,1.47,16.9,16.9,0,0,1,4.59,2.57L24.77,41.8h2.58C27.52,40.29,27.69,38.77,27.88,37.23Z"/><path class="cls-2" d="M22.64,57.62c-.31,2.33-.61,4.67-.92,7s-.64,4.61-1,6.75a6.56,6.56,0,0,1-1.33,3.17,9.9,9.9,0,0,1-2.62,2.3,13.87,13.87,0,0,1-3.44,1.51,20.19,20.19,0,0,1-3.81.74v1.1c1.89-.12,3.78-.21,5.64-.27s3.75-.1,5.65-.1q3.87,0,7.54.1c2.44.06,5,.15,7.53.27v-1.1a19.56,19.56,0,0,1-5.38-.92A7.24,7.24,0,0,1,27.23,76a8.09,8.09,0,0,1-1.6-3.68,28.3,28.3,0,0,1-.42-5.23c0-1.6.12-4,.37-7.22.07-.94.15-1.93.24-2.94H22.73Z"/><path class="cls-2" d="M54.06,63.59l-2.72-6.66H43.25Q47.72,68,51.39,79.85h.19q2.1-7,4.73-13.64c1.22-3.12,2.48-6.2,3.75-9.28H57.2C56.17,59.15,55.12,61.38,54.06,63.59Z"/><path class="cls-2" d="M110.67,39.25a28.17,28.17,0,0,1,4.78-9A23.56,23.56,0,0,1,123.07,24a23.38,23.38,0,0,1,20.39,0,23.6,23.6,0,0,1,7.63,6.24,28.37,28.37,0,0,1,4.78,9.05c.27.84.5,1.69.7,2.55h9.74a28.89,28.89,0,0,0-1.76-5.12,30.08,30.08,0,0,0-7.31-10,31.81,31.81,0,0,0-10.79-6.24,41.29,41.29,0,0,0-26.36,0,31.76,31.76,0,0,0-10.8,6.24,30.05,30.05,0,0,0-7.3,10,28.91,28.91,0,0,0-1.77,5.12H110C110.16,40.94,110.4,40.09,110.67,39.25Z"/><path class="cls-2" d="M155.87,60.75a28.37,28.37,0,0,1-4.78,9A23.6,23.6,0,0,1,143.46,76a23.38,23.38,0,0,1-20.39,0,23.56,23.56,0,0,1-7.62-6.24,28.17,28.17,0,0,1-4.78-9,33.43,33.43,0,0,1-1-3.82H99.94a28.26,28.26,0,0,0,2,6.39,30.05,30.05,0,0,0,7.3,10,31.76,31.76,0,0,0,10.8,6.24,41.29,41.29,0,0,0,26.36,0,31.81,31.81,0,0,0,10.79-6.24,30.08,30.08,0,0,0,7.31-10,28.77,28.77,0,0,0,2-6.39h-9.75A35.65,35.65,0,0,1,155.87,60.75Z"/><path class="cls-2" d="M185.3,38.15c0-1.59,0-3.15,0-4.68s.07-3.1.13-4.69q4.14,4.5,9.33,10.24l2.48,2.78h10.37l-.13-.16c-2.7-3.24-5.22-6.31-7.58-9.18s-4.45-5.44-6.29-7.67-3.16-3.91-3.95-5c-1.35.12-2.66.21-4,.27s-2.6.1-3.95.1q-3.85,0-6.75-.1T169,19.78v1.1a56.35,56.35,0,0,1,7.16,2.3,24.31,24.31,0,0,1,6.43,3.76l-.38,14.86h3.14Z"/><path class="cls-2" d="M181.44,69.11a13.83,13.83,0,0,1-.87,5,6,6,0,0,1-2.3,2.76,10.67,10.67,0,0,1-3.85,1.38q-2.35.41-5.47.87v1.1c1.77-.12,3.52-.21,5.24-.27s3.45-.1,5.23-.1c3.12,0,6.16,0,9.1.1s6,.15,9.09.27v-1.1a30.61,30.61,0,0,1-6.75-1.33,6.44,6.44,0,0,1-3.68-3.4,20.34,20.34,0,0,1-1.56-7.26c-.18-2.61-.28-6-.31-10.2h-3.55Z"/><path class="cls-2" d="M227.51,60.88c0,1.81,0,3.63,0,5.47h-.18c-1.23-1.71-2.89-3.9-5-6.57L220,56.93H210q3.38,4.22,6.77,8.69,5.66,7.44,10.7,15.34h3.4v-24h-3.32C227.54,58.25,227.53,59.58,227.51,60.88Z"/><path class="cls-2" d="M230.86,32.27q0-5.42,2.16-8T241,20.88v-1.1q-2.94.18-6,.27t-6,.1q-3.21,0-6.47-.1c-2.18-.06-4.33-.15-6.48-.27v1.1A11.79,11.79,0,0,1,222,22.72a10.08,10.08,0,0,1,3.49,4.5,25,25,0,0,1,1.65,7.3c.21,2.15.33,4.58.39,7.28h3.33Z"/><path class="cls-2" d="M298.33,70.58q-6.48,7.24-20.62,7.25a27.67,27.67,0,0,1-7.67-1.1,16.34,16.34,0,0,1-6.75-3.86V56.93H255V72.14a8.73,8.73,0,0,1-.28,2.2,4.35,4.35,0,0,1-1.24,2.07,8.37,8.37,0,0,1-2.75,1.7,17.37,17.37,0,0,1-4.82,1v1.1q3.12-.18,6.15-.27t6.15-.1c1.29,0,2.64,0,4,.05s3,0,4.77,0,3.84,0,6.2,0,5.19.05,8.5.05a48.21,48.21,0,0,0,12.35-1.56,30.22,30.22,0,0,0,10.52-5A25.34,25.34,0,0,0,312,64.65a24.41,24.41,0,0,0,2.38-7.72H304.26Q302.94,65.41,298.33,70.58Z"/><path class="cls-2" d="M263.38,33.14q.09-4.73.46-9.5a30.66,30.66,0,0,1,23.74-.37,27.69,27.69,0,0,1,9.1,6.06,28.08,28.08,0,0,1,6,9.05,27.48,27.48,0,0,1,1.15,3.42h9.51a29.46,29.46,0,0,0-1.43-3.74,31.12,31.12,0,0,0-7.76-10.34,35,35,0,0,0-11.44-6.56,41.76,41.76,0,0,0-14-2.3,99.35,99.35,0,0,0-11.3.64,103,103,0,0,1-11.94.65c-1.59,0-3.19,0-4.78-.1s-3.18-.15-4.77-.27v1.1a21,21,0,0,1,5,.92,6.16,6.16,0,0,1,2.75,1.74,5.25,5.25,0,0,1,1.15,2.62A24.34,24.34,0,0,1,255,29.7V41.8h8.27C263.3,38.86,263.32,36,263.38,33.14Z"/><path class="cls-2" d="M379.76,60.75a28,28,0,0,1-4.78,9A23.56,23.56,0,0,1,367.36,76,23.38,23.38,0,0,1,347,76a23.6,23.6,0,0,1-7.63-6.24,28.15,28.15,0,0,1-4.77-9,33.47,33.47,0,0,1-1-3.82h-9.75a28.27,28.27,0,0,0,2.06,6.39,29.92,29.92,0,0,0,7.3,10A31.81,31.81,0,0,0,344,79.53a41.32,41.32,0,0,0,26.37,0,31.81,31.81,0,0,0,10.79-6.24,30.05,30.05,0,0,0,7.3-10,28.26,28.26,0,0,0,2.05-6.39h-9.74A35.69,35.69,0,0,1,379.76,60.75Z"/><path class="cls-2" d="M334.57,39.25a28.15,28.15,0,0,1,4.77-9A23.6,23.6,0,0,1,347,24a23.38,23.38,0,0,1,20.39,0A23.56,23.56,0,0,1,375,30.2a28,28,0,0,1,4.78,9.05c.27.84.51,1.69.71,2.55h9.74a28.13,28.13,0,0,0-1.77-5.12,30.05,30.05,0,0,0-7.3-10,31.81,31.81,0,0,0-10.79-6.24,41.32,41.32,0,0,0-26.37,0,31.81,31.81,0,0,0-10.79,6.24,29.92,29.92,0,0,0-7.3,10,28.13,28.13,0,0,0-1.77,5.12h9.74C334.06,40.94,334.3,40.09,334.57,39.25Z"/><path class="cls-2" d="M102,48.19a5.19,5.19,0,0,0-.42-1,3.65,3.65,0,0,0-.63-.81,2.87,2.87,0,0,0-.83-.53,2.78,2.78,0,0,0-1.06-.19,2.53,2.53,0,0,0-1.28.3,2.45,2.45,0,0,0-.87.79,3.79,3.79,0,0,0-.49,1.16,6.33,6.33,0,0,0-.15,1.4,5,5,0,0,0,.2,1.4,3.56,3.56,0,0,0,.58,1.17,2.79,2.79,0,0,0,2.3,1.1,3.32,3.32,0,0,0,2-.58,5.36,5.36,0,0,0,1.46-1.56l.31.24a9.56,9.56,0,0,1-.84,1.1,4.29,4.29,0,0,1-.9.81,3.74,3.74,0,0,1-1.07.5,4.29,4.29,0,0,1-1.29.17,3.94,3.94,0,0,1-2.84-1.18,4.12,4.12,0,0,1-.88-1.33A4.53,4.53,0,0,1,95,49.42a4.44,4.44,0,0,1,.32-1.7,4.16,4.16,0,0,1,.88-1.34,4,4,0,0,1,1.28-.87A3.91,3.91,0,0,1,99,45.2a5.53,5.53,0,0,1,.84.06l.75.11.7.12a3.94,3.94,0,0,0,.67.08c0,.17,0,.37,0,.6s0,.46,0,.7,0,.48.08.71,0,.44.07.61Z"/><path class="cls-2" d="M120.2,53.3a2.48,2.48,0,0,0,.68-.13.76.76,0,0,0,.37-.31,1.19,1.19,0,0,0,.16-.54c0-.23,0-.51,0-.85V47.38c0-.34,0-.63,0-.85a1.19,1.19,0,0,0-.16-.55.73.73,0,0,0-.38-.3,2.68,2.68,0,0,0-.7-.14V45.4l1,0,1,0,.8,0c.27,0,.54,0,.8,0v.14a2.35,2.35,0,0,0-.67.14.7.7,0,0,0-.37.3,1.33,1.33,0,0,0-.15.55c0,.22,0,.51,0,.85v4.09c0,.34,0,.62,0,.85a1.33,1.33,0,0,0,.15.54.81.81,0,0,0,.39.31,2.74,2.74,0,0,0,.71.13v.15l-.93,0h-1.82l-.88,0Z"/><path class="cls-2" d="M141.22,45.4l.81,0,.9,0,.53,0,.53,0c.1.14.28.37.52.66l.84,1,1,1.22c.36.43.71.85,1,1.27s.64.79.93,1.15.5.64.66.87h0v-.73c0-.24,0-.48,0-.73V48.73a13.53,13.53,0,0,0-.06-1.37,3.09,3.09,0,0,0-.22-1,1.34,1.34,0,0,0-.46-.6,1.6,1.6,0,0,0-.79-.25V45.4c.28,0,.57,0,.86,0l.86,0,.8,0c.27,0,.53,0,.8,0v.14a1.29,1.29,0,0,0-1.35,1.52v6.49H149c-.45-.7-.93-1.39-1.43-2s-1-1.29-1.49-1.88-1-1.15-1.43-1.66l-1.25-1.36c0,.21,0,.42,0,.62s0,.41,0,.62V50c0,.72,0,1.3,0,1.72a2.64,2.64,0,0,0,.21,1,.8.8,0,0,0,.49.45,3.93,3.93,0,0,0,.9.18v.15l-1.21,0h-1.91l-.7,0V53.3l.73-.11a1.33,1.33,0,0,0,.51-.19.78.78,0,0,0,.31-.36,1.91,1.91,0,0,0,.12-.67l.14-5.62a3.17,3.17,0,0,0-.85-.5,7.68,7.68,0,0,0-1-.31Z"/><path class="cls-2" d="M168.22,49.42a4.18,4.18,0,0,1,.36-1.77,3.94,3.94,0,0,1,1-1.33,4.28,4.28,0,0,1,1.44-.83,5.37,5.37,0,0,1,1.76-.29,5.31,5.31,0,0,1,1.75.29,4.28,4.28,0,0,1,1.44.83,3.94,3.94,0,0,1,1,1.33,4.18,4.18,0,0,1,.36,1.77,4.22,4.22,0,0,1-.36,1.78,4,4,0,0,1-1,1.33,4.28,4.28,0,0,1-1.44.83,5.31,5.31,0,0,1-1.75.28,5.37,5.37,0,0,1-1.76-.28,4.28,4.28,0,0,1-1.44-.83,4,4,0,0,1-1-1.33A4.22,4.22,0,0,1,168.22,49.42Zm9.9,4.67-.63.79a2.86,2.86,0,0,1-.62.59,2.39,2.39,0,0,1-.75.37,3.42,3.42,0,0,1-1,.13,2.78,2.78,0,0,1-.87-.13,4.94,4.94,0,0,1-.8-.32c-.26-.13-.52-.28-.78-.43a8.35,8.35,0,0,0-.77-.43,4.81,4.81,0,0,0-.82-.32,2.82,2.82,0,0,0-.87-.13,1.65,1.65,0,0,0-.58.1,4.16,4.16,0,0,0-.54.23l-.17-.2a3,3,0,0,1,.83-.38,3.14,3.14,0,0,1,.91-.12A4.85,4.85,0,0,1,172,54c.46.14.9.28,1.33.44s.85.31,1.26.44a3.66,3.66,0,0,0,1.13.19,2.54,2.54,0,0,0,.7-.08,2.13,2.13,0,0,0,.56-.23,2.93,2.93,0,0,0,.48-.39,4.85,4.85,0,0,0,.46-.52Zm-8.61-4.67a4.51,4.51,0,0,0,.23,1.43,3.58,3.58,0,0,0,.63,1.21,3.16,3.16,0,0,0,1,.83,3.12,3.12,0,0,0,2.71,0,3.16,3.16,0,0,0,1-.83,3.78,3.78,0,0,0,.64-1.21,4.81,4.81,0,0,0,.22-1.43,4.91,4.91,0,0,0-.22-1.43,3.63,3.63,0,0,0-.64-1.2,3.19,3.19,0,0,0-1-.84,3.12,3.12,0,0,0-2.71,0,3.19,3.19,0,0,0-1,.84,3.44,3.44,0,0,0-.63,1.2A4.6,4.6,0,0,0,169.51,49.42Z"/><path class="cls-2" d="M196.05,46.63a1.78,1.78,0,0,0-.07-.53.59.59,0,0,0-.2-.3.85.85,0,0,0-.33-.16l-.45-.1V45.4l1,0,1,0,.73,0,.73,0v.14a3.09,3.09,0,0,0-.65.13.84.84,0,0,0-.4.24.89.89,0,0,0-.21.41,2.71,2.71,0,0,0-.06.62v4a2.18,2.18,0,0,0,.19,1,1.67,1.67,0,0,0,.52.65,2.15,2.15,0,0,0,.76.37,4,4,0,0,0,.93.11,3,3,0,0,0,1.28-.23,2.22,2.22,0,0,0,.8-.57,1.84,1.84,0,0,0,.4-.72,2.28,2.28,0,0,0,.11-.68V47.4a6.4,6.4,0,0,0,0-.82,1.49,1.49,0,0,0-.17-.55.88.88,0,0,0-.36-.33,2.58,2.58,0,0,0-.6-.16V45.4l.75,0,.75,0,.63,0,.62,0v.14a4.8,4.8,0,0,0-.47.1.84.84,0,0,0-.36.22,1.16,1.16,0,0,0-.23.46,3.44,3.44,0,0,0-.08.81v3.66a2.9,2.9,0,0,1-.26,1.27,2.51,2.51,0,0,1-.72.89,3,3,0,0,1-1,.52,4.59,4.59,0,0,1-1.3.17,4.4,4.4,0,0,1-1.2-.16,3.23,3.23,0,0,1-1-.5,2.61,2.61,0,0,1-.71-.84,2.39,2.39,0,0,1-.27-1.16Z"/><path class="cls-2" d="M223.53,49.86l-.8,2.22c0,.06,0,.12-.07.17a.41.41,0,0,0,0,.16.57.57,0,0,0,.13.38,1.13,1.13,0,0,0,.31.26,1.84,1.84,0,0,0,.38.17,1.93,1.93,0,0,0,.33.08v.15l-.74,0h-1.46l-.74,0V53.3a1.64,1.64,0,0,0,.63-.26,1.68,1.68,0,0,0,.42-.42,2.86,2.86,0,0,0,.3-.54c.09-.2.17-.4.25-.61l2.12-5.2.07-.16a.39.39,0,0,0,0-.14.54.54,0,0,0,0-.18,1.13,1.13,0,0,0-.11-.22,2.81,2.81,0,0,0,.55-.16l.52-.21,2.54,7a1.87,1.87,0,0,0,.48.75,1.59,1.59,0,0,0,.91.35v.15l-1,0h-2.38l-.38,0V53.3a2.29,2.29,0,0,0,.86-.26.63.63,0,0,0,.35-.55.45.45,0,0,0-.05-.19c0-.07,0-.13-.06-.18l-.8-2.26Zm1.33-3.47-1.2,3.11H226Z"/><path class="cls-2" d="M246.32,45.4l.81,0,.9,0,.53,0,.53,0c.1.14.28.37.52.66l.84,1,1,1.22c.36.43.71.85,1,1.27s.64.79.93,1.15.5.64.66.87h0v-.73c0-.24,0-.48,0-.73V48.73a13.53,13.53,0,0,0-.06-1.37,3.09,3.09,0,0,0-.22-1,1.34,1.34,0,0,0-.46-.6,1.6,1.6,0,0,0-.79-.25V45.4c.28,0,.57,0,.86,0l.86,0,.8,0c.27,0,.53,0,.8,0v.14a1.62,1.62,0,0,0-1.06.45,1.67,1.67,0,0,0-.29,1.07v6.49h-.45c-.45-.7-.93-1.39-1.43-2s-1-1.29-1.49-1.88-1-1.15-1.43-1.66l-1.25-1.36c0,.21,0,.42,0,.62s0,.41,0,.62V50c0,.72,0,1.3,0,1.72a2.64,2.64,0,0,0,.21,1,.8.8,0,0,0,.49.45,3.93,3.93,0,0,0,.9.18v.15l-1.21,0H247l-.7,0V53.3l.73-.11a1.33,1.33,0,0,0,.51-.19.78.78,0,0,0,.31-.36A1.91,1.91,0,0,0,248,52l.14-5.62a3.17,3.17,0,0,0-.85-.5,7.68,7.68,0,0,0-1-.31Z"/><path class="cls-2" d="M274.9,53.3a2.48,2.48,0,0,0,.68-.13.78.78,0,0,0,.38-.31,1.33,1.33,0,0,0,.15-.54,6.81,6.81,0,0,0,0-.85V45.79a8.4,8.4,0,0,0-1.09.05,1.63,1.63,0,0,0-.75.25,1.71,1.71,0,0,0-.56.62,6.12,6.12,0,0,0-.47,1.13l-.16,0,.17-2.4,1,0,1,0h2.87l1,0,1,0,.17,2.4-.16,0a6.12,6.12,0,0,0-.47-1.13,1.71,1.71,0,0,0-.56-.62,1.67,1.67,0,0,0-.77-.25,8.56,8.56,0,0,0-1.1-.05v5.68c0,.34,0,.62,0,.85a1.19,1.19,0,0,0,.16.54.74.74,0,0,0,.38.31,2.74,2.74,0,0,0,.71.13v.15l-.93,0h-1.82l-.88,0Z"/><path class="cls-2" d="M299.08,49.86l-.81,2.22c0,.06,0,.12-.07.17a.41.41,0,0,0,0,.16.62.62,0,0,0,.13.38,1.3,1.3,0,0,0,.31.26,2.11,2.11,0,0,0,.38.17,1.93,1.93,0,0,0,.33.08v.15l-.73,0h-1.46l-.74,0V53.3A1.64,1.64,0,0,0,297,53a1.86,1.86,0,0,0,.42-.42,4.68,4.68,0,0,0,.3-.54c.09-.2.17-.4.25-.61l2.12-5.2.06-.16a.27.27,0,0,0,0-.14.62.62,0,0,0,0-.18,1.12,1.12,0,0,0-.1-.22,3.29,3.29,0,0,0,.55-.16l.51-.21,2.55,7a1.68,1.68,0,0,0,.48.75,1.55,1.55,0,0,0,.9.35v.15l-1,0h-2.37l-.39,0V53.3a2.29,2.29,0,0,0,.86-.26.61.61,0,0,0,.35-.55.43.43,0,0,0,0-.19l-.07-.18-.79-2.26Zm1.32-3.47-1.2,3.11h2.3Z"/></svg>