<svg id="Livello_1" data-name="Livello 1" xmlns="http://www.w3.org/2000/svg" xmlns:xlink="http://www.w3.org/1999/xlink" viewBox="0 0 628.33 283.64"><defs><style>.cls-1{fill:none;}.cls-2{fill:#818b4f;}.cls-3{fill:#013456;}.cls-4{clip-path:url(#clip-path);}.cls-5{fill:#fff;}</style><clipPath id="clip-path" transform="translate(-88.39 -230)"><path class="cls-1" d="M408.36,302.64l59.52,95.8c-49.33-12.56-83.33,7.33-117.09,42.56-1.79-2.24-.53-3.75.08-5.2C370,391.31,388.64,346.89,408.36,302.64Z"/></clipPath></defs><path class="cls-2" d="M407.81,230l122,196.4c-101.12-25.77-170.81,15-240,87.24-3.66-4.6-1.08-7.7.16-10.66C329.13,411.78,367.39,320.71,407.81,230Z" transform="translate(-88.39 -230)"/><path class="cls-3" d="M152.19,336a10.2,10.2,0,0,0-4.7,1.65,6,6,0,0,0-2,3.68,39.45,39.45,0,0,0-.53,7.47v54.1l-2.33-.1-2.62.1L97.89,349.58v37.24a42.88,42.88,0,0,0,.59,8.38,5.72,5.72,0,0,0,2.52,3.88,15.6,15.6,0,0,0,6.3,1.7v1.94c-2.52-.2-6-.29-10.47-.29-3.56,0-6.37.09-8.44.29v-1.94a10.24,10.24,0,0,0,4.71-1.65,6,6,0,0,0,2-3.68,38.62,38.62,0,0,0,.53-7.47V344.35a18.84,18.84,0,0,0-.53-5.33,3.32,3.32,0,0,0-2-2.23,16.82,16.82,0,0,0-4.71-.78v-1.94c2.07.2,4.88.29,8.44.29,3.23,0,6-.09,8.34-.29l37.52,46.25V350a43.06,43.06,0,0,0-.58-8.38,5.79,5.79,0,0,0-2.52-3.88,15.71,15.71,0,0,0-6.31-1.7v-1.94c2.52.2,6,.29,10.48.29,3.61,0,6.43-.09,8.43-.29Z" transform="translate(-88.39 -230)"/><path class="cls-3" d="M215.89,399.23a5.51,5.51,0,0,0,3.2,1.55v1.94q-5.82-.3-14.74-.29-9.89,0-14.73.29v-1.94a15.46,15.46,0,0,0,5.23-.92,2.6,2.6,0,0,0,1.55-2.57,13.29,13.29,0,0,0-1.16-4.66l-5.82-15.9H168.29l-2.53,6.69c-1.81,4.66-2.71,8.24-2.71,10.77s.73,4.05,2.18,5a13.13,13.13,0,0,0,6.45,1.6v1.94q-6.6-.3-12-.29c-3,0-5.43.09-7.37.29v-1.94q4.74-.87,8.34-10.18l22.1-56.72c.71.06,1.85.09,3.4.09s2.65,0,3.29-.09L213,394.57A12,12,0,0,0,215.89,399.23Zm-27.15-24.44-9.6-26.17-10.08,26.17Z" transform="translate(-88.39 -230)"/><path class="cls-3" d="M277,334.07V336a11.52,11.52,0,0,0-4.76,3.68,26.73,26.73,0,0,0-4.16,7.86L247.6,402.91c-.71-.06-1.84-.1-3.4-.1s-2.58,0-3.29.1l-24.73-60.69a12.08,12.08,0,0,0-2.9-4.66,5.51,5.51,0,0,0-3.2-1.55v-1.94q5.8.3,14.73.29,10,0,14.74-.29V336a16.64,16.64,0,0,0-5.24.87,2.68,2.68,0,0,0-1.55,2.72,13.27,13.27,0,0,0,1.17,4.56L251,387.59l11.93-32.19q2.71-7.45,2.71-11.83c0-2.58-.69-4.46-2.08-5.62a10,10,0,0,0-6.06-1.94v-1.94q6.58.3,12.12.29C272.58,334.36,275,334.27,277,334.07Z" transform="translate(-88.39 -230)"/><path class="cls-3" d="M309.26,336a16.47,16.47,0,0,0-4.75.78,3.36,3.36,0,0,0-2,2.23,19.23,19.23,0,0,0-.53,5.33v48.09a19.23,19.23,0,0,0,.53,5.33,3.38,3.38,0,0,0,2,2.23,16.47,16.47,0,0,0,4.75.78v1.94q-5.24-.3-14.64-.29-10.37,0-15.32.29v-1.94A16.67,16.67,0,0,0,284,400a3.33,3.33,0,0,0,2-2.23,18.84,18.84,0,0,0,.53-5.33V344.35A18.84,18.84,0,0,0,286,339a3.31,3.31,0,0,0-2-2.23,16.67,16.67,0,0,0-4.7-.78v-1.94q4.95.3,15.32.29,9.4,0,14.64-.29Z" transform="translate(-88.39 -230)"/><path class="cls-3" d="M361.09,334.36a35,35,0,0,1,8.09,4.66,3.55,3.55,0,0,0,1.94.87c.65,0,1.16-.47,1.55-1.41a16.54,16.54,0,0,0,.88-4.41h2.22q-.37,6.6-.38,23.47h-2.23a47.85,47.85,0,0,0-2.28-10.67,15.65,15.65,0,0,0-5-6.88,16.25,16.25,0,0,0-5.72-3.49,19.9,19.9,0,0,0-7-1.27,15.15,15.15,0,0,0-11.29,4.61A27.75,27.75,0,0,0,335.25,352a60.61,60.61,0,0,0-2.14,16.58q0,33.54,18.62,33.55a11.29,11.29,0,0,0,6.88-1.94,5.16,5.16,0,0,0,1.8-2,7.38,7.38,0,0,0,.53-3v-9.5a20.54,20.54,0,0,0-.78-6.64,4.66,4.66,0,0,0-2.76-2.86,21.05,21.05,0,0,0-6.25-1v-1.94q6,.3,16.58.29,8.63,0,13-.29v1.94a6.36,6.36,0,0,0-2.81.78,3.32,3.32,0,0,0-1.21,2.23,29.07,29.07,0,0,0-.34,5.33v19.2h-1.94a11.1,11.1,0,0,0-.83-3.78c-.48-1.17-1.14-1.75-2-1.75q-1.65,0-5.24,2-8.43,4.84-15.9,4.84-16.77,0-25.69-9.16t-8.92-25.74a39.21,39.21,0,0,1,4.5-19.1,32.38,32.38,0,0,1,12.46-12.8A35.8,35.8,0,0,1,351,332.71,27.39,27.39,0,0,1,361.09,334.36Z" transform="translate(-88.39 -230)"/><path class="cls-3" d="M501.92,350.55a72.78,72.78,0,0,0,.29,7.37H500q-2.33-11.93-6.35-16.77a13.56,13.56,0,0,0-11-4.85h-2.23v55.36a15.51,15.51,0,0,0,.83,5.92,4.36,4.36,0,0,0,2.9,2.47,27.45,27.45,0,0,0,6.65.73v1.94q-12.22-.3-18.43-.29t-17.74.29v-1.94a27.35,27.35,0,0,0,6.64-.73,4.4,4.4,0,0,0,2.91-2.47,15.55,15.55,0,0,0,.82-5.92V336.3h-2.13a14.55,14.55,0,0,0-7.9,2,15.94,15.94,0,0,0-5.57,6.74,53.27,53.27,0,0,0-4,12.84h-2.23q.29-2.81.29-7.37,0-7.26-.68-16.48,8.82.3,30,.29t29.86-.29Q501.92,343.28,501.92,350.55Z" transform="translate(-88.39 -230)"/><path class="cls-3" d="M561.59,336.88a29.22,29.22,0,0,1,12,12.07q4.26,7.91,4.26,18.86a39.79,39.79,0,0,1-4.36,18.91,31.69,31.69,0,0,1-12.17,12.8,34.58,34.58,0,0,1-17.79,4.55,37.18,37.18,0,0,1-18-4.16,29.12,29.12,0,0,1-12-12.08q-4.26-7.89-4.27-18.85a39.79,39.79,0,0,1,4.37-18.91,31.62,31.62,0,0,1,12.17-12.8,34.59,34.59,0,0,1,17.79-4.56A37.21,37.21,0,0,1,561.59,336.88Zm-27.77,1.89q-4.08,4.32-6.26,12.07a65.93,65.93,0,0,0-2.18,17.75,57.72,57.72,0,0,0,2.47,17.74q2.48,7.67,6.69,11.83a13,13,0,0,0,9.36,4.17,12.57,12.57,0,0,0,9.4-4.32q4.08-4.31,6.26-12.07a65.81,65.81,0,0,0,2.18-17.74,58,58,0,0,0-2.47-17.74q-2.47-7.66-6.69-11.83a13.07,13.07,0,0,0-9.36-4.17A12.57,12.57,0,0,0,533.82,338.77Z" transform="translate(-88.39 -230)"/><path class="cls-3" d="M650.26,398.45a16,16,0,0,1-5.62,4.32,18.26,18.26,0,0,1-7.28,1.3q-5.61,0-8.87-2.37t-4.21-8.1l-1.75-9.69q-1.26-7.08-3-10.43a6.24,6.24,0,0,0-6-3.34h-6.3v22.3a19.23,19.23,0,0,0,.53,5.33,3.38,3.38,0,0,0,2,2.23,16.54,16.54,0,0,0,4.75.78v1.94q-5.24-.3-14.64-.29-10.37,0-15.32.29v-1.94a16.82,16.82,0,0,0,4.71-.78,3.34,3.34,0,0,0,2-2.23,18.76,18.76,0,0,0,.54-5.33V344.35a18.76,18.76,0,0,0-.54-5.33,3.32,3.32,0,0,0-2-2.23,16.82,16.82,0,0,0-4.71-.78v-1.94q5,.3,14.74.29l10.76-.09c1.3-.07,2.78-.1,4.46-.1q13.38,0,20.12,4.36A14,14,0,0,1,641.34,351a17,17,0,0,1-5,12.12q-5,5.23-16.68,6.59,8.73.78,13,3.78a14,14,0,0,1,5.53,9l2.23,10a16.68,16.68,0,0,0,1.8,5.43,3.23,3.23,0,0,0,2.86,1.55,4.75,4.75,0,0,0,2-.58,9.18,9.18,0,0,0,1.89-1.65Zm-40.87-61.76a3.73,3.73,0,0,0-1.69,2.42,20.69,20.69,0,0,0-.49,5.24V368.2h4.17q7.95,0,10.91-4.22t3-11.87q0-8-2.82-12T613.22,336A8.23,8.23,0,0,0,609.39,336.69Z" transform="translate(-88.39 -230)"/><path class="cls-3" d="M705.43,402.72q-6.6-.3-22.2-.29-21.15,0-31.61.29v-1.94a16.74,16.74,0,0,0,4.7-.78,3.38,3.38,0,0,0,2-2.23,19.23,19.23,0,0,0,.53-5.33V344.35a19.23,19.23,0,0,0-.53-5.33,3.36,3.36,0,0,0-2-2.23,16.74,16.74,0,0,0-4.7-.78v-1.94q10.47.3,31.61.29,14.25,0,20.26-.29-.68,8.06-.68,14.35a57.51,57.51,0,0,0,.29,6.59h-2.23q-1.46-10.36-5.23-14.54T685,336.3h-4a13.93,13.93,0,0,0-4.37.49,2.89,2.89,0,0,0-1.84,1.89,15.2,15.2,0,0,0-.48,4.51v24h3.1a9,9,0,0,0,7.8-3.78,23.75,23.75,0,0,0,3.74-9h2.23c-.2,2.72-.29,5.76-.29,9.12v4.65q0,4.95.58,13.77h-2.23q-2-12.8-11.83-12.8h-3.1V393.6a15.2,15.2,0,0,0,.48,4.51,2.89,2.89,0,0,0,1.84,1.89,13.93,13.93,0,0,0,4.37.49h4.75a14.18,14.18,0,0,0,11.1-4.71q4.21-4.69,6-15.94H705q-.28,3.2-.29,8.14A131.85,131.85,0,0,0,705.43,402.72Z" transform="translate(-88.39 -230)"/><path class="cls-3" d="M209.66,432.28q5,5,5,14.54a22.87,22.87,0,0,1-2.43,10.79,17,17,0,0,1-7,7.15,22.67,22.67,0,0,1-11,2.51l-3.27-.06c-2.11-.07-3.65-.11-4.63-.11-3.09,0-5.42.06-7,.17v-1.13a11.29,11.29,0,0,0,3-.45,2.05,2.05,0,0,0,1.27-1.3,10.09,10.09,0,0,0,.34-3.11v-28a10.09,10.09,0,0,0-.34-3.11,2.05,2.05,0,0,0-1.27-1.3,11.74,11.74,0,0,0-3-.45v-1.13c1.32.12,3.15.17,5.48.17l4.8-.05c2.56-.08,4.28-.12,5.14-.12Q204.7,427.28,209.66,432.28Zm-19-3.59a2.28,2.28,0,0,0-1.21,1.42,10.08,10.08,0,0,0-.34,3.05V461.4a10.17,10.17,0,0,0,.34,3.05,2.26,2.26,0,0,0,1.21,1.41,7,7,0,0,0,2.69.39q6,0,9.43-2.17a11.5,11.5,0,0,0,4.83-6.35A34.71,34.71,0,0,0,209,447.05a31,31,0,0,0-1.52-10.59,11.61,11.61,0,0,0-4.94-6.13q-3.42-2-9.24-2A6.79,6.79,0,0,0,190.65,428.69Z" transform="translate(-88.39 -230)"/><path class="cls-3" d="M248.92,467.27q-3.85-.16-12.94-.17-10.84,0-16.38.17v-1.13a11.37,11.37,0,0,0,3-.45,2.05,2.05,0,0,0,1.27-1.3,10.42,10.42,0,0,0,.34-3.11v-28a10.42,10.42,0,0,0-.34-3.11,2.05,2.05,0,0,0-1.27-1.3,11.82,11.82,0,0,0-3-.45v-1.13q5.53.18,16.38.17c5.54,0,9.47-.05,11.8-.17a64.89,64.89,0,0,0-.39,6.67,29,29,0,0,0,.17,3.5h-1.3a25.58,25.58,0,0,0-1-5.45,4.54,4.54,0,0,0-2.09-2.6,9.38,9.38,0,0,0-4.46-.82H234a10.45,10.45,0,0,0-3,.31,1.94,1.94,0,0,0-1.27,1.27,10.09,10.09,0,0,0-.34,3.11V446.6h3.73a4.54,4.54,0,0,0,3.05-.93,4.63,4.63,0,0,0,1.44-2.21,20.66,20.66,0,0,0,.59-3.19l.17-1.13h1.3c-.11,1.58-.17,3.36-.17,5.31v2.71c0,1.92.11,4.6.34,8h-1.3c0-.26-.15-1.17-.34-2.74a5.61,5.61,0,0,0-1.55-3.53,5,5,0,0,0-3.53-1.18h-3.73v13.55a10.09,10.09,0,0,0,.34,3.11,1.94,1.94,0,0,0,1.27,1.27,10.09,10.09,0,0,0,3,.31h4.13a12.1,12.1,0,0,0,5.33-.93,5.62,5.62,0,0,0,2.69-3,22.79,22.79,0,0,0,1.24-6.08h1.3a39.55,39.55,0,0,0-.17,4.07A72.39,72.39,0,0,0,248.92,467.27Z" transform="translate(-88.39 -230)"/><path class="cls-3" d="M268.4,428.41a11.82,11.82,0,0,0-3,.45,2.05,2.05,0,0,0-1.27,1.3,10.42,10.42,0,0,0-.34,3.11v28a10.42,10.42,0,0,0,.34,3.11,2,2,0,0,0,1.27,1.27,10.17,10.17,0,0,0,3,.31h4.12a11.48,11.48,0,0,0,5.34-1,5.79,5.79,0,0,0,2.68-3.19,25.28,25.28,0,0,0,1.25-6.38h1.29c-.11,1.17-.16,2.71-.16,4.63q0,3.22.39,7.23-3.84-.16-12.93-.17-10.85,0-16.38.17v-1.13a11.28,11.28,0,0,0,3-.45,2,2,0,0,0,1.27-1.3,10.09,10.09,0,0,0,.34-3.11v-28a10.09,10.09,0,0,0-.34-3.11,2,2,0,0,0-1.27-1.3,11.72,11.72,0,0,0-3-.45v-1.13c1.58.12,4,.17,7.23.17,3,0,5.4-.05,7.17-.17Z" transform="translate(-88.39 -230)"/><path class="cls-3" d="M301.61,428.41a11.64,11.64,0,0,0-3,.45,2,2,0,0,0-1.28,1.3,10.49,10.49,0,0,0-.33,3.11v28a10.49,10.49,0,0,0,.33,3.11,2,2,0,0,0,1.28,1.27,10,10,0,0,0,3,.31h4.12a11.48,11.48,0,0,0,5.34-1,5.79,5.79,0,0,0,2.68-3.19,25.28,25.28,0,0,0,1.25-6.38h1.3c-.12,1.17-.17,2.71-.17,4.63q0,3.22.39,7.23-3.84-.16-12.93-.17-10.84,0-16.38.17v-1.13a11.28,11.28,0,0,0,3-.45,2,2,0,0,0,1.27-1.3,10.09,10.09,0,0,0,.34-3.11v-28a10.09,10.09,0,0,0-.34-3.11,2,2,0,0,0-1.27-1.3,11.72,11.72,0,0,0-3-.45v-1.13c1.58.12,4,.17,7.23.17,3,0,5.4-.05,7.17-.17Z" transform="translate(-88.39 -230)"/><path class="cls-3" d="M354,466.14v1.13c-1.51-.11-3.52-.17-6.05-.17q-4.85,0-7.22.17v-1.13a8.84,8.84,0,0,0,3.07-.54,1.56,1.56,0,0,0,.94-1.55,7.8,7.8,0,0,0-.68-2.65l-3.45-9.27H326.91l-2.31,6a14.59,14.59,0,0,0-1.13,4.63,2.79,2.79,0,0,0,1.21,2.54,7.21,7.21,0,0,0,3.7.85v1.13c-2.14-.11-4.31-.17-6.49-.17-1.7,0-3.11.06-4.24.17v-1.13q2.82-.67,4.46-4.91L335.39,427h.9l13.78,35.53C351,464.86,352.27,466.07,354,466.14ZM340.13,451l-6.33-16.88L327.37,451Z" transform="translate(-88.39 -230)"/><path class="cls-3" d="M392.25,412.31a26.82,26.82,0,0,1,6.4,3.74,2.49,2.49,0,0,0,1.48.7q1.56,0,2-4.68H404q-.31,5.31-.31,18.87h-1.8a39,39,0,0,0-1.87-8.81,12.5,12.5,0,0,0-4-5.3,13.15,13.15,0,0,0-4.52-2.85,15,15,0,0,0-5.38-1q-7.87,0-11.69,7.68t-3.82,19.14q0,11.39,4,19t11.85,7.64a15,15,0,0,0,5.26-1,11.56,11.56,0,0,0,4.4-2.85,11.42,11.42,0,0,0,4-5.46,44.46,44.46,0,0,0,1.75-9.59h1.8q0,14.11.31,19.65h-1.8a13.53,13.53,0,0,0-.66-3.55c-.28-.7-.69-1.05-1.21-1.05a3.45,3.45,0,0,0-1.63.62,32.89,32.89,0,0,1-6.71,3.79,20.82,20.82,0,0,1-7.72,1.28A30,30,0,0,1,369.76,465a23.41,23.41,0,0,1-9.63-9.71,31.54,31.54,0,0,1-3.43-15.16,32,32,0,0,1,3.51-15.2A25.36,25.36,0,0,1,370,414.65,27.75,27.75,0,0,1,384.3,411,21.05,21.05,0,0,1,392.25,412.31Z" transform="translate(-88.39 -230)"/><path class="cls-3" d="M460.62,413.63a8.24,8.24,0,0,0-3.78,1.33,4.83,4.83,0,0,0-1.63,3,30.84,30.84,0,0,0-.43,6v20.66q0,11.16-3.2,16.53a14,14,0,0,1-6.08,5.34,22.45,22.45,0,0,1-9.75,1.91q-9,0-14-3.9a14,14,0,0,1-4.83-7.28,47.69,47.69,0,0,1-1.25-12.36V420.34a15.1,15.1,0,0,0-.43-4.29,2.68,2.68,0,0,0-1.64-1.79,13.33,13.33,0,0,0-3.78-.63v-1.56q4,.24,12.17.24t12.39-.24v1.56a15.39,15.39,0,0,0-4.09.63,2.82,2.82,0,0,0-1.76,1.79,14.17,14.17,0,0,0-.46,4.29v29.39q0,8.19,2.37,12t8.39,3.86q7.79,0,11-5.26T453,445.44V424.86a30.3,30.3,0,0,0-.54-6.7,5,5,0,0,0-2.11-3.16,12.25,12.25,0,0,0-4.91-1.37v-1.56c2,.16,4.78.24,8.42.24q4.37,0,6.78-.24Z" transform="translate(-88.39 -230)"/><path class="cls-3" d="M489.24,413.63a15.48,15.48,0,0,0-4.1.63,2.81,2.81,0,0,0-1.75,1.79,14.1,14.1,0,0,0-.47,4.29v39.6a12.16,12.16,0,0,0,.39,3.63,2.35,2.35,0,0,0,1.37,1.52,9.15,9.15,0,0,0,3.15.39h3.82q5.31,0,9.16-4.76t5-12.63h1.79q-.22,2.66-.23,6.86a111.82,111.82,0,0,0,.55,12.32q-5.31-.24-17.86-.23-17,0-25.41.23v-1.56a13.54,13.54,0,0,0,3.78-.62,2.72,2.72,0,0,0,1.64-1.8,15.45,15.45,0,0,0,.43-4.28V420.34a15.49,15.49,0,0,0-.43-4.29,2.72,2.72,0,0,0-1.64-1.79,13.47,13.47,0,0,0-3.78-.63v-1.56q4,.24,12.32.24,8,0,12.24-.24Z" transform="translate(-88.39 -230)"/><path class="cls-3" d="M553.94,425.33a58.33,58.33,0,0,0,.24,5.92h-1.79q-1.87-9.58-5.11-13.48a10.89,10.89,0,0,0-8.85-3.9h-1.79v44.51a12.54,12.54,0,0,0,.66,4.76,3.54,3.54,0,0,0,2.34,2,21.69,21.69,0,0,0,5.34.58v1.56q-9.83-.24-14.81-.23t-14.27.23v-1.56a21.69,21.69,0,0,0,5.34-.58,3.54,3.54,0,0,0,2.34-2,12.54,12.54,0,0,0,.66-4.76V413.87h-1.71a11.75,11.75,0,0,0-6.36,1.63,13,13,0,0,0-4.48,5.42,43.48,43.48,0,0,0-3.2,10.33H506.7a58.79,58.79,0,0,0,.23-5.92q0-5.85-.54-13.26,7.1.24,24.09.24t24-.24Q554,419.48,553.94,425.33Z" transform="translate(-88.39 -230)"/><path class="cls-3" d="M608.83,413.63a8.15,8.15,0,0,0-3.78,1.33,4.84,4.84,0,0,0-1.64,3,30.84,30.84,0,0,0-.43,6v20.66q0,11.16-3.19,16.53a14,14,0,0,1-6.09,5.34,22.4,22.4,0,0,1-9.74,1.91q-9,0-14-3.9a14.06,14.06,0,0,1-4.84-7.28,47.76,47.76,0,0,1-1.24-12.36V420.34a15.49,15.49,0,0,0-.43-4.29,2.72,2.72,0,0,0-1.64-1.79,13.47,13.47,0,0,0-3.78-.63v-1.56q4,.24,12.16.24t12.4-.24v1.56a15.4,15.4,0,0,0-4.1.63,2.81,2.81,0,0,0-1.75,1.79,14.1,14.1,0,0,0-.47,4.29v29.39q0,8.19,2.38,12t8.38,3.86q7.8,0,11-5.26t3.2-14.93V424.86a29.57,29.57,0,0,0-.55-6.7,4.9,4.9,0,0,0-2.1-3.16,12.3,12.3,0,0,0-4.91-1.37v-1.56q3,.24,8.42.24,4.37,0,6.78-.24Z" transform="translate(-88.39 -230)"/><path class="cls-3" d="M665.74,463.84a12.87,12.87,0,0,1-4.52,3.47,14.64,14.64,0,0,1-5.85,1.05,11.88,11.88,0,0,1-7.13-1.91q-2.61-1.9-3.39-6.51l-1.41-7.79a29.57,29.57,0,0,0-2.45-8.38,5,5,0,0,0-4.8-2.69h-5.06V459a15.54,15.54,0,0,0,.42,4.28,2.71,2.71,0,0,0,1.6,1.8,13.26,13.26,0,0,0,3.82.62v1.56q-4.2-.24-11.77-.23-8.34,0-12.32.23v-1.56a13.4,13.4,0,0,0,3.78-.62,2.69,2.69,0,0,0,1.64-1.8,15.07,15.07,0,0,0,.43-4.28V420.34a15.1,15.1,0,0,0-.43-4.29,2.7,2.7,0,0,0-1.64-1.79,13.33,13.33,0,0,0-3.78-.63v-1.56q4,.24,11.85.24l8.66-.08c1-.05,2.23-.08,3.58-.08q10.77,0,16.18,3.51a11.29,11.29,0,0,1,5.42,10.06,13.58,13.58,0,0,1-4.06,9.74q-4.05,4.21-13.4,5.3,7,.63,10.44,3a11.26,11.26,0,0,1,4.44,7.25l1.8,8a13.34,13.34,0,0,0,1.44,4.37,2.61,2.61,0,0,0,2.3,1.25,3.71,3.71,0,0,0,1.6-.47,7,7,0,0,0,1.52-1.33Zm-32.86-49.66a3,3,0,0,0-1.36,1.95,16.86,16.86,0,0,0-.39,4.21v19.18h3.35q6.39,0,8.77-3.39c1.58-2.27,2.38-5.45,2.38-9.56s-.76-7.48-2.26-9.66-4-3.28-7.41-3.28A6.63,6.63,0,0,0,632.88,414.18Z" transform="translate(-88.39 -230)"/><path class="cls-3" d="M714.15,464.46a4.4,4.4,0,0,0,2.58,1.25v1.56q-4.68-.24-11.86-.23-7.95,0-11.84.23v-1.56a12.31,12.31,0,0,0,4.21-.74,2.09,2.09,0,0,0,1.24-2.07,10.86,10.86,0,0,0-.93-3.74l-4.68-12.78h-17l-2,5.38q-2.19,5.61-2.19,8.65c0,1.92.59,3.26,1.76,4a10.54,10.54,0,0,0,5.18,1.28v1.56c-3.53-.16-6.75-.23-9.66-.23-2.4,0-4.37.07-5.93.23v-1.56q3.82-.7,6.71-8.18l17.77-45.61c.57.05,1.48.08,2.73.08s2.13,0,2.65-.08l18.94,48.8A9.71,9.71,0,0,0,714.15,464.46Zm-21.83-19.64-7.71-21.05-8.11,21.05Z" transform="translate(-88.39 -230)"/><g class="cls-4"><path class="cls-5" d="M443.79,399.49a5.4,5.4,0,0,0,3.21,1.56V403q-5.85-.28-14.81-.29-9.93,0-14.8.29v-1.95a15.67,15.67,0,0,0,5.26-.92,2.62,2.62,0,0,0,1.56-2.58,13.48,13.48,0,0,0-1.17-4.68l-5.85-16H396l-2.54,6.73q-2.71,7-2.72,10.81,0,3.6,2.19,5a13.11,13.11,0,0,0,6.48,1.61V403q-6.63-.28-12.08-.29-4.49,0-7.4.29v-1.95q4.77-.87,8.37-10.23l22.21-57c.72.07,1.85.1,3.41.1s2.66,0,3.31-.1l23.67,61A12,12,0,0,0,443.79,399.49ZM416.51,375l-9.64-26.3L396.74,375Z" transform="translate(-88.39 -230)"/></g></svg>