<svg id="Livello_1" data-name="Livello 1" xmlns="http://www.w3.org/2000/svg" viewBox="0 0 197.26 140.64"><defs><style>.cls-1{fill:#203664;}</style></defs><path class="cls-1" d="M54.85,25.68c.18-.39.55-.49,1-.49s.52.28.21.67a2,2,0,0,1-1.22.7,1,1,0,0,1,0-.88M51.37,32.6c.14.11.37,0,.63-.08a6.88,6.88,0,0,0,1.14-.77c.54-.44.78-.65,1.19-1,.24-.21.34-.31.42-.23s-.21.33-.29.41c-.31.31-1,.88-1.48,1.3a4,4,0,0,1-2.25,1.06h0c-.52,0-.75-.28-.75-.67a1.87,1.87,0,0,1,.39-1,13.3,13.3,0,0,1,2.25-2.54c-.49.16-.93.34-1.89.68a12.11,12.11,0,0,1-4,.95c-1,0-2.11-.44-2.08-1.66a1.68,1.68,0,0,1,1.51-1.5c.15,0,.31,0,.31.05s-.11.05-.31.11A1.35,1.35,0,0,0,45,29c0,.88.88,1.19,1.68,1.19a12.62,12.62,0,0,0,3.94-.73c1-.31,1.61-.57,2.31-.72a2.54,2.54,0,0,1,.52,0c.44,0,.54.18.26.49-.47.52-.83,1-1.35,1.58A13.37,13.37,0,0,0,51.45,32c-.15.29-.18.47-.08.57" transform="translate(-24.54 -5.97)"/><path class="cls-1" d="M74.51,25c1.42-.6,2.93-1.58,3-2.44,0-.36-.26-.52-.6-.47a2.37,2.37,0,0,0-1.19.73A13.41,13.41,0,0,0,74,25.16l.47-.18M68,28.58A2.35,2.35,0,0,0,68,28l-1.74.8A30.32,30.32,0,0,0,63,30.55a3.78,3.78,0,0,0,1.72.44c1.42,0,3.19-.93,3.26-2.41m-5.18,2.13c-.55.36-1,.7-1.56,1.09-.31.23-.57.44-.85.67a5.29,5.29,0,0,0,4,1c2.75-.23,4.75-2,6.61-5.44.39-.68.76-1.33,1.14-1.9v0c-1.27.51-2.43,1-3.71,1.6a2,2,0,0,1,.16.81c-.05,1.74-2.13,2.69-3.81,2.69a3.69,3.69,0,0,1-2-.54m1.24-4.33c-1.81.13-4.33,1.27-4.51,3.68a3.11,3.11,0,0,0,.57,2.08,8.1,8.1,0,0,1,.8-.68c.5-.36.91-.65,1.51-1a1.64,1.64,0,0,1-.55-1c0-.13,0-.26.08-.26s.05.1.08.21a1.78,1.78,0,0,0,.62.88,36.18,36.18,0,0,1,3.48-1.82l1.71-.77c-.6-1.17-2.52-1.43-3.79-1.3m8.25-.6a12.32,12.32,0,0,1,3-3.32,3.43,3.43,0,0,1,1.6-.62c.42,0,.94.13.89.7-.08.86-1.51,2-3.24,2.7-.19.08-.5.21-.7.28-.5.91-.91,1.79-1.33,2.57a9.61,9.61,0,0,1-8.37,5.65A6.93,6.93,0,0,1,60,32.86a8.67,8.67,0,0,0-2.08,2.42c-.07.15-.13.25-.2.23s0-.23,0-.31a7.42,7.42,0,0,1,1.94-2.6,3,3,0,0,1-1-2.44c.21-2.54,3.5-3.89,5.42-4,1.38-.14,3.45.18,4.2,1.32,1.43-.6,2.68-1.14,4-1.69" transform="translate(-24.54 -5.97)"/><path class="cls-1" d="M74.53,30.53c-1.06,1-1.5,1.71-1.45,2a.3.3,0,0,0,.34.26,4.47,4.47,0,0,0,2.18-1.22,6.23,6.23,0,0,0,1.79-2.26c0-.34-.18-.47-.47-.47a5.13,5.13,0,0,0-2.39,1.64M72,32.19a4.06,4.06,0,0,1,1.86-2.47A5.34,5.34,0,0,1,77,28.63a.7.7,0,0,1,.55,1c.62-.65,1.06-1,1.48-1s.59.11.33.42-.9,1-1.45,1.71A10,10,0,0,0,77,32c-.18.31-.18.52-.08.6s.39,0,.6-.11a7.94,7.94,0,0,0,1.17-.8c.54-.44,1-.8,1.24-1.06s.29-.26.37-.18,0,.2-.34.46-1,.86-1.45,1.25a4,4,0,0,1-2.23,1c-.5,0-.73-.24-.75-.55a1.39,1.39,0,0,1,.36-.93l0,0A5.65,5.65,0,0,1,73,33.23c-.57,0-1.14-.19-1.06-1" transform="translate(-24.54 -5.97)"/><path class="cls-1" d="M82.73,32.84a2,2,0,0,0,1-.37,6.45,6.45,0,0,0,1.19-1.09,10.4,10.4,0,0,1-1.35.5c-.59.18-1.11.44-1.11.72,0,.13.07.24.28.24ZM80,30.94c-.21.18-.34.31-.42.24s.11-.26.37-.5c.57-.52,1.27-1.16,1.76-1.63S84,27,85.06,26.17a5.46,5.46,0,0,1,3-1.32,1.76,1.76,0,0,1,.83.18c.18.1.28.26.23.31s0-.05-.26-.13a2,2,0,0,0-.7-.1c-1.19,0-2.26,1-3.11,1.92a35.52,35.52,0,0,0-3.24,4.07l0,0a17.65,17.65,0,0,1,2.21-1.73,4.25,4.25,0,0,1,2.28-.76.8.8,0,0,1,.8,1A4.6,4.6,0,0,1,85.56,32,5.33,5.33,0,0,1,82.7,33.2c-.31,0-.78-.08-.78-.52s.81-.85,1.46-1a12.53,12.53,0,0,0,1.71-.54,5.41,5.41,0,0,0,.83-1.3c.1-.28.18-.78-.26-.78a4.7,4.7,0,0,0-2.23,1.14,15.53,15.53,0,0,0-2.62,2.44c-.6.65-1.71,2.18-2.47,3.09A29.31,29.31,0,0,1,71.27,42a15.62,15.62,0,0,1-8,2.43c-4.57,0-8.59-2.43-8.85-6.5a3.67,3.67,0,0,1,.52-2.21c.08-.1.16-.15.21-.13s0,.08,0,.18a4.27,4.27,0,0,0-.41,2.1c.34,3.89,4.15,5.92,8.71,5.92a14.21,14.21,0,0,0,7.65-2,21.81,21.81,0,0,0,5.55-5.52c1-1.25,4.72-6.12,6-7.68v0c-1.19,1.09-2.2,2-2.62,2.38" transform="translate(-24.54 -5.97)"/><path class="cls-1" d="M92.45,32.08a1,1,0,0,1-.7,0,5.55,5.55,0,0,1-3,1.27c-.81,0-1.3-.39-1.27-1.14a2.77,2.77,0,0,1,.72-1.61,6.23,6.23,0,0,1,1.61-1.27,5.56,5.56,0,0,1,2-.64c.18,0,.39,0,.39.1s-.08.05-.29.15a6.92,6.92,0,0,0-1.86,1.43,5.13,5.13,0,0,0-1.51,2.28c0,.26.08.44.36.44a4.54,4.54,0,0,0,2.42-1.58,2.31,2.31,0,0,1,1.29-1.76,1.68,1.68,0,0,0,.08-.6c0-.23-.1-.36,0-.41s.25,0,.36.15a1,1,0,0,1,.31.91A4.1,4.1,0,0,1,92,31.85a1,1,0,0,0,.49,0,2.3,2.3,0,0,0,.89-.44,9.33,9.33,0,0,0,.83-.67c.23-.21.36-.34.44-.26s-.08.23-.34.46a8.22,8.22,0,0,1-.83.68,2.76,2.76,0,0,1-1,.46" transform="translate(-24.54 -5.97)"/><path class="cls-1" d="M95.56,31c.29-.39.76-1,1-1.35s.24-.36.19-.44-.24-.05-.4,0a6,6,0,0,0-1,.7c-.33.28-.75.65-1.11,1s-.37.31-.44.23.07-.2.39-.49.88-.83,1.34-1.19a3.15,3.15,0,0,1,1.77-.86c.49,0,.65.29.65.58a2.17,2.17,0,0,1-.55,1.11c-.2.29-.57.75-.77,1l0,.05A17.32,17.32,0,0,1,98.29,30a12.82,12.82,0,0,1,1.27-1,2.16,2.16,0,0,1,.75-.37,1.73,1.73,0,0,1,.6,0c.08,0,.1.13-.18.36a3.13,3.13,0,0,0-1,1.2c-.21.7.1,1,.49,1a1.46,1.46,0,0,0,.88-.49c.19-.16.26-.21.34-.16s0,.16-.26.39a1.68,1.68,0,0,1-1,.52A1.15,1.15,0,0,1,99.12,31a1.61,1.61,0,0,1,0-1.37c-.39.28-.91.67-1.11.85-.76.65-1.61,1.45-2.62,2.44a.88.88,0,0,1-.68.23c-.36,0-.54-.05-.34-.41A19.19,19.19,0,0,1,95.56,31" transform="translate(-24.54 -5.97)"/><path class="cls-1" d="M106.92,25.19c.34,0,.5.28.19.67a2,2,0,0,1-1.22.7,1,1,0,0,1,0-.88c.16-.39.55-.49,1-.49Zm-4.74,4.95c-.39.31-.68.54-.94.78s-.31.26-.38.2,0-.15.28-.41A20.91,20.91,0,0,1,103,29.26a2.33,2.33,0,0,1,1.51-.57c.54,0,.59.07.28.41-.46.52-.88,1-1.4,1.66a13.37,13.37,0,0,0-.91,1.27c-.15.29-.18.47-.07.57s.36,0,.62-.08a6.88,6.88,0,0,0,1.14-.77c.54-.44.78-.65,1.19-1,.23-.21.34-.31.42-.23s-.21.33-.29.41c-.31.31-1,.88-1.48,1.3a4.09,4.09,0,0,1-2.25,1.06c-.55,0-.78-.26-.78-.67a1.87,1.87,0,0,1,.39-1,14.51,14.51,0,0,1,1.94-2.23,8.85,8.85,0,0,0-1.11.78" transform="translate(-24.54 -5.97)"/><path class="cls-1" d="M110.19,32.84a4.55,4.55,0,0,0,2.16-1.22,6.17,6.17,0,0,0,1.78-2.26c0-.34-.18-.47-.46-.47a5.08,5.08,0,0,0-2.39,1.64c-1,1-1.5,1.66-1.45,2a.3.3,0,0,0,.34.26Zm4.15-3.3c.81-1.16,2-2.67,3.35-4.2a40,40,0,0,1,3.08-3.22,1.36,1.36,0,0,1,1-.44c.26,0,.36.08.39.19-.7.67-2,2.1-3,3.21s-1.74,2.05-3.25,4c-.8,1-1.92,2.57-2.15,3s-.18.52-.08.6.39,0,.6-.11a7.94,7.94,0,0,0,1.17-.8c.54-.44,1-.8,1.24-1.06s.29-.26.36-.18,0,.2-.33.46-1,.86-1.45,1.25a4,4,0,0,1-2.24,1c-.49,0-.72-.24-.75-.55a1.4,1.4,0,0,1,.37-.93l0,0a5.66,5.66,0,0,1-2.85,1.51c-.57,0-1.14-.19-1.07-1a4.13,4.13,0,0,1,1.87-2.47,5.26,5.26,0,0,1,3.19-1.08.67.67,0,0,1,.57.9" transform="translate(-24.54 -5.97)"/><path class="cls-1" d="M122.43,25.19c.34,0,.49.28.18.67a2,2,0,0,1-1.22.7,1,1,0,0,1,0-.88c.16-.39.54-.49,1-.49Zm-4.74,4.95c-.39.31-.68.54-.94.78s-.31.26-.39.2,0-.15.29-.41a19.5,19.5,0,0,1,1.84-1.45,2.32,2.32,0,0,1,1.5-.57c.55,0,.6.07.29.41-.47.52-.88,1-1.4,1.66A13.37,13.37,0,0,0,118,32c-.15.29-.18.47-.08.57s.37,0,.63-.08a6.88,6.88,0,0,0,1.14-.77c.54-.44.78-.65,1.19-1,.23-.21.34-.31.41-.23s-.2.33-.28.41c-.31.31-1,.88-1.48,1.3a4.12,4.12,0,0,1-2.25,1.06c-.55,0-.78-.26-.78-.67a1.87,1.87,0,0,1,.39-1,14,14,0,0,1,1.94-2.23,8.17,8.17,0,0,0-1.11.78" transform="translate(-24.54 -5.97)"/><path class="cls-1" d="M149.56,13.59a1.83,1.83,0,0,0-1.4,1.72,2.11,2.11,0,0,0,.08.62,3.77,3.77,0,0,0,1.63-1.9c0-.28-.08-.44-.29-.44Zm-12.14,5.19A20.32,20.32,0,0,0,148,16.08a1.69,1.69,0,0,1-.1-.67,2.18,2.18,0,0,1,1.79-2.08.5.5,0,0,1,.49.6,4.12,4.12,0,0,1-1.76,2.31,2.54,2.54,0,0,0,2.25.91c4,0,8.92-3.56,8.92-6.28,0-2.41-2.54-3.09-4.51-3.09-7.13,0-13.51,4.36-18.49,9.31-.44.45-.88,1-1.35,1.53a14.61,14.61,0,0,0,2.2.16Zm-8.77,11.13c0-3.53,1.64-7.27,4.6-11.13-2.88-1-4.75-3.27-4.54-6.33C129,9.13,131.92,6,136.7,6c2.92,0,4.87,1.35,5.34,2.77.07.24.1.44,0,.47s-.11-.18-.19-.36c-.54-1.4-2.51-2.49-5.18-2.49-4.46,0-7.42,3-7.62,6.07-.24,3,1.76,4.92,4.61,5.83a21,21,0,0,1,1.84-2C140.84,11.18,149,7.37,155,7.52c2.26.08,5.19.86,5.06,3.71-.16,3.35-4.62,6.51-8.69,6.51-1.27,0-2.7-.36-3.29-1.32a18.93,18.93,0,0,1-10.79,3.06,14.52,14.52,0,0,1-2.62-.23C132.13,22.52,130,26.46,130,30c0,4,2.41,5.76,5.71,5.76,3,0,6.09-1.77,8.22-4.08a10.24,10.24,0,0,0,2.88-5.52,2.86,2.86,0,0,0-3.16-3.24,7.58,7.58,0,0,0-5.35,2.8,5.5,5.5,0,0,0-1.53,4.12,2,2,0,0,0,2,1.77,3.77,3.77,0,0,0,1.82-.52c.31-.18.37-.31.42-.29s0,.24-.34.47a3.53,3.53,0,0,1-1.9.62,2.19,2.19,0,0,1-2.33-2,5.69,5.69,0,0,1,1.48-4.56,7.77,7.77,0,0,1,5.71-2.73c2.66,0,4,1.51,3.83,4.1a9.42,9.42,0,0,1-2.67,5.32,13.43,13.43,0,0,1-9.05,4c-3.63,0-7.11-1.52-7.11-6.17Z" transform="translate(-24.54 -5.97)"/><path class="cls-1" d="M153.09,32.08a1,1,0,0,1-.71,0,5.55,5.55,0,0,1-2.95,1.27c-.81,0-1.3-.39-1.27-1.14a2.77,2.77,0,0,1,.72-1.61,6.41,6.41,0,0,1,1.61-1.27,5.56,5.56,0,0,1,2-.64c.18,0,.39,0,.39.1s-.08.05-.29.15a6.92,6.92,0,0,0-1.86,1.43,5.22,5.22,0,0,0-1.51,2.28c0,.26.08.44.37.44a4.56,4.56,0,0,0,2.41-1.58,2.37,2.37,0,0,1,1.29-1.76,1.68,1.68,0,0,0,.08-.6c0-.23-.1-.36,0-.41s.26,0,.36.15a1,1,0,0,1,.31.91,4.1,4.1,0,0,1-1.48,2.1,1.06,1.06,0,0,0,.5,0,2.35,2.35,0,0,0,.88-.44,7.94,7.94,0,0,0,.82-.67c.24-.21.37-.34.45-.26s-.08.23-.34.46a8.22,8.22,0,0,1-.83.68,2.74,2.74,0,0,1-1,.46" transform="translate(-24.54 -5.97)"/><path class="cls-1" d="M156.2,31c.28-.39.75-1,1-1.35s.23-.36.17-.44-.23-.05-.38,0a5.58,5.58,0,0,0-1,.7c-.34.28-.76.65-1.12,1s-.36.31-.44.23.08-.2.39-.49.88-.83,1.35-1.19a3.07,3.07,0,0,1,1.76-.86c.49,0,.65.29.65.58a2.22,2.22,0,0,1-.54,1.11c-.21.29-.58.75-.78,1l.05.05A18.81,18.81,0,0,1,158.92,30a14.11,14.11,0,0,1,1.27-1,2.16,2.16,0,0,1,.75-.37,1.73,1.73,0,0,1,.6,0c.08,0,.1.13-.18.36a3.13,3.13,0,0,0-1,1.2c-.2.7.11,1,.5,1a1.52,1.52,0,0,0,.88-.49c.18-.16.25-.21.34-.16s0,.16-.26.39a1.75,1.75,0,0,1-1,.52,1.16,1.16,0,0,1-1.12-.47,1.61,1.61,0,0,1,.05-1.37c-.39.28-.9.67-1.11.85-.75.65-1.61,1.45-2.62,2.44a.87.87,0,0,1-.68.23c-.36,0-.54-.05-.33-.41A15.66,15.66,0,0,1,156.2,31" transform="translate(-24.54 -5.97)"/><path class="cls-1" d="M165.38,32.47a4.5,4.5,0,0,0,1.19-1.09,11.78,11.78,0,0,1-1.61.5c-.93.23-1.48.46-1.45.8s.29.26.62.23a2.81,2.81,0,0,0,1.25-.44m.13-5.81a43.2,43.2,0,0,1,6.17-6c3.21-2.41,6.41-4.12,10.27-4.23,4.07-.1,6.72,2,6.59,4.72,0,.49-.24,1-.31.88s.07-.23.07-.88c0-2.33-2-4.12-6.76-3.94a14.39,14.39,0,0,0-9.11,3.24,38.39,38.39,0,0,0-5.63,6c-1,1.2-2.93,4-3.5,4.83l0,0a15,15,0,0,1,2.44-2,4.23,4.23,0,0,1,2.28-.76.8.8,0,0,1,.8,1,4.07,4.07,0,0,1-1.74,2.46,5.19,5.19,0,0,1-3,1.12c-.57,0-1-.08-1-.52s.7-.73,1.68-1a14.08,14.08,0,0,0,2-.59,5.41,5.41,0,0,0,.83-1.3c.1-.28.18-.78-.26-.78a4.84,4.84,0,0,0-2.26,1.17,28.92,28.92,0,0,0-2.88,2.62,1.14,1.14,0,0,1-.75.36c-.52,0-.49-.13-.36-.41A12.33,12.33,0,0,1,162.16,31c.23-.34.47-.67.75-1h0c-.37.31-.7.62-.94.83s-.23.15-.28.1,0-.13.13-.26c.41-.36,1.06-1,1.66-1.45.36-.47,1.4-1.81,2-2.57" transform="translate(-24.54 -5.97)"/><path class="cls-1" d="M171.6,30.53c-1.06,1-1.5,1.71-1.45,2,0,.18.15.26.34.26a4.44,4.44,0,0,0,2.17-1.22,6.11,6.11,0,0,0,1.79-2.26c0-.34-.18-.47-.46-.47a5.08,5.08,0,0,0-2.39,1.64M169,32.19a4.13,4.13,0,0,1,1.87-2.47,5.34,5.34,0,0,1,3.19-1.09.7.7,0,0,1,.55,1c.62-.65,1.06-1,1.47-1s.6.11.34.42-.91,1-1.45,1.71a9.11,9.11,0,0,0-.91,1.27c-.18.31-.18.52-.08.6s.39,0,.6-.11a7.94,7.94,0,0,0,1.17-.8c.54-.44,1-.8,1.24-1.06s.29-.26.37-.18-.06.2-.34.46-1,.86-1.46,1.25a4,4,0,0,1-2.23,1c-.49,0-.72-.24-.75-.55a1.4,1.4,0,0,1,.37-.93l0,0a5.69,5.69,0,0,1-2.85,1.51c-.57,0-1.14-.19-1.07-1" transform="translate(-24.54 -5.97)"/><path class="cls-1" d="M178.35,31c.28-.39.75-1,1-1.35s.24-.36.18-.44-.23-.05-.39,0a5.58,5.58,0,0,0-1,.7c-.33.28-.75.65-1.11,1s-.37.31-.44.23.07-.2.39-.49.88-.83,1.35-1.19a3.07,3.07,0,0,1,1.76-.86c.49,0,.65.29.65.58a2.17,2.17,0,0,1-.55,1.11c-.2.29-.57.75-.78,1l0,.05A20.57,20.57,0,0,1,181.06,30a14.23,14.23,0,0,1,1.28-1,2.08,2.08,0,0,1,.75-.37,1.67,1.67,0,0,1,.59,0c.08,0,.11.13-.17.36a3.13,3.13,0,0,0-1,1.2c-.21.7.1,1,.49,1a1.49,1.49,0,0,0,.88-.49c.18-.16.26-.21.34-.16s0,.16-.26.39a1.72,1.72,0,0,1-1,.52A1.15,1.15,0,0,1,181.9,31a1.61,1.61,0,0,1,0-1.37c-.39.28-.91.67-1.12.85-.75.65-1.6,1.45-2.62,2.44a.85.85,0,0,1-.67.23c-.36,0-.54-.05-.34-.41A17.59,17.59,0,0,1,178.35,31" transform="translate(-24.54 -5.97)"/><path class="cls-1" d="M186,30.53c-1.06,1-1.5,1.71-1.45,2a.3.3,0,0,0,.34.26,4.47,4.47,0,0,0,2.18-1.22,6.23,6.23,0,0,0,1.79-2.26c0-.34-.18-.47-.47-.47A5.13,5.13,0,0,0,186,30.53m-.1-1.17a4.68,4.68,0,0,1,2.59-.72.69.69,0,0,1,.55,1c.62-.65,1.06-1,1.48-1s.59.1.33.41-.93,1.06-1.4,1.66a2.9,2.9,0,0,0-.77,1.56c0,.46.33.62.75.62A5,5,0,0,0,191.8,32a19,19,0,0,0,2.29-1.66c1.14-1,2.59-2.12,4.12-2.12a1.92,1.92,0,0,1,2.12,2,2.22,2.22,0,0,1-.88,1.64c-.1.07-.18.13-.2.1s.05-.1.12-.18a2.19,2.19,0,0,0,.58-1.4c0-1.07-1-1.4-2-1.4a6.73,6.73,0,0,0-3.73,1.66c-.42.33-1.74,1.32-2.28,1.63a6.76,6.76,0,0,1-3,1c-1,0-1.56-.31-1.56-1a1.59,1.59,0,0,1,.21-.73l0,0a5.64,5.64,0,0,1-3,1.69c-.57,0-1.17-.21-1.06-1a2.59,2.59,0,0,1,.72-1.35l0,0c-.08.08-.18.18-.34.32s-.18.12-.23.07.07-.23.36-.49c.08-.08.52-.44.77-.62s.71-.47,1.2-.73" transform="translate(-24.54 -5.97)"/><path class="cls-1" d="M192.23,13.45h.23a.59.59,0,0,0,.2,0,.28.28,0,0,0,.14-.12.42.42,0,0,0,0-.22.29.29,0,0,0,0-.19.57.57,0,0,0-.11-.11l-.17,0h-.68v.75Zm.16-1a1,1,0,0,1,.63.17.63.63,0,0,1,.2.51.58.58,0,0,1-.18.47.75.75,0,0,1-.44.17l.67,1h-.39l-.65-1h-.39v1h-.37V12.4Zm-1.68,1.87a1.75,1.75,0,0,0,.36.55,1.8,1.8,0,0,0,.53.37,1.65,1.65,0,0,0,.66.13,1.59,1.59,0,0,0,.66-.13,1.8,1.8,0,0,0,.53-.37,1.57,1.57,0,0,0,.35-.55,1.87,1.87,0,0,0,0-1.37,1.67,1.67,0,0,0-.35-.55,1.77,1.77,0,0,0-.53-.36,1.59,1.59,0,0,0-.66-.13,1.65,1.65,0,0,0-.66.13,1.77,1.77,0,0,0-.53.36,1.87,1.87,0,0,0-.36.55,2,2,0,0,0,0,1.37m-.33-1.49a2.08,2.08,0,0,1,.44-.64,2.37,2.37,0,0,1,.65-.43,2.13,2.13,0,0,1,.79-.15,2.06,2.06,0,0,1,.79.15,2.23,2.23,0,0,1,.65.43,2.08,2.08,0,0,1,.44.64,1.94,1.94,0,0,1,.16.8,2,2,0,0,1-.16.81,2.26,2.26,0,0,1-.44.65,2,2,0,0,1-.65.42,2.06,2.06,0,0,1-.79.15,2.06,2.06,0,0,1-1.44-.57,2.26,2.26,0,0,1-.44-.65,2,2,0,0,1-.16-.81,1.94,1.94,0,0,1,.16-.8" transform="translate(-24.54 -5.97)"/><polygon class="cls-1" points="49.03 121.74 48.12 121.74 48.12 117.24 48.1 117.24 45.24 120.83 42.41 117.24 42.38 117.24 42.38 121.74 41.47 121.74 41.47 116.24 42.61 116.24 45.25 119.57 47.9 116.24 49.03 116.24 49.03 121.74"/><path class="cls-1" d="M83.71,125.36a1.45,1.45,0,0,0-.6-1.19,2.33,2.33,0,0,0-1.53-.47,2.44,2.44,0,0,0-1.54.47,1.51,1.51,0,0,0,0,2.4,2.42,2.42,0,0,0,1.55.46,2.38,2.38,0,0,0,1.54-.46,1.47,1.47,0,0,0,.59-1.21m.94,0a2.22,2.22,0,0,1-1,1.87,3.47,3.47,0,0,1-2.09.61,3.52,3.52,0,0,1-2.09-.61,2.24,2.24,0,0,1-1-1.87,2.19,2.19,0,0,1,1-1.86,3.78,3.78,0,0,1,4.18,0,2.2,2.2,0,0,1,1,1.86" transform="translate(-24.54 -5.97)"/><polygon class="cls-1" points="70.37 121.74 69.01 121.74 65.84 117.84 65.84 121.74 64.92 121.74 64.92 117.07 66.29 117.07 69.46 120.97 69.46 117.07 70.37 117.07 70.37 121.74"/><polygon class="cls-1" points="80.24 117.89 78.01 117.89 78.01 121.74 77.09 121.74 77.09 117.89 74.86 117.89 74.86 117.07 80.24 117.07 80.24 117.89"/><rect class="cls-1" x="84.72" y="117.07" width="0.91" height="4.68"/><polygon class="cls-1" points="101.79 121.74 96.63 121.74 96.63 116.24 97.54 116.24 97.54 120.92 101.79 120.92 101.79 121.74"/><path class="cls-1" d="M134.3,125.89l-1.11-2.07-1.12,2.07Zm2,1.82h-1l-.54-1h-3.14l-.54,1h-1l2.54-4.67h1.13Z" transform="translate(-24.54 -5.97)"/><polygon class="cls-1" points="120.92 117.89 118.69 117.89 118.69 121.74 117.78 121.74 117.78 117.89 115.54 117.89 115.54 117.07 120.92 117.07 120.92 117.89"/><polygon class="cls-1" points="130.18 117.89 127.95 117.89 127.95 121.74 127.04 121.74 127.04 117.89 124.8 117.89 124.8 117.07 130.18 117.07 130.18 117.89"/><path class="cls-1" d="M162.74,125.89l-1.12-2.07-1.11,2.07Zm2,1.82h-1l-.54-1h-3.14l-.54,1h-1l2.54-4.67h1.14Z" transform="translate(-24.54 -5.97)"/><path class="cls-1" d="M172.77,125.17c.55,0,.82-.21.82-.63s-.29-.68-.88-.68H170v1.31Zm1.86,2.54h-1L172.36,126H170v1.72h-.91V123h3.77a1.68,1.68,0,0,1,1.19.4,1.41,1.41,0,0,1,.44,1.08,1.33,1.33,0,0,1-1.16,1.42Z" transform="translate(-24.54 -5.97)"/><rect class="cls-1" x="154.88" y="117.07" width="0.91" height="4.68"/><path class="cls-1" d="M92.58,132.58l-.84.3a3,3,0,0,0-2.33-.89,2.84,2.84,0,0,0-1.86.59,1.92,1.92,0,0,0,0,3,2.91,2.91,0,0,0,1.92.58,3,3,0,0,0,2.29-.9l.79.43a3.71,3.71,0,0,1-1.34,1,4.83,4.83,0,0,1-1.79.3,3.9,3.9,0,0,1-2.43-.73,2.7,2.7,0,0,1,0-4.36,3.86,3.86,0,0,1,2.41-.73,3.78,3.78,0,0,1,3.17,1.42" transform="translate(-24.54 -5.97)"/><path class="cls-1" d="M101,135l-1.11-2.07L98.78,135Zm2,1.82h-1l-.54-1H98.32l-.54,1h-1l2.54-4.67h1.14Z" transform="translate(-24.54 -5.97)"/><polygon class="cls-1" points="89.41 130.86 88.5 130.86 88.48 127.02 86.13 130.2 83.79 126.98 83.77 127.02 83.77 130.86 82.85 130.86 82.85 126.19 84.22 126.19 86.13 128.83 88.04 126.19 89.41 126.19 89.41 130.86"/><path class="cls-1" d="M122.69,134.29c.55,0,.83-.21.83-.63s-.3-.68-.89-.68H120v1.31Zm.14-2.13a1.67,1.67,0,0,1,1.18.4,1.41,1.41,0,0,1,.44,1.08,1.32,1.32,0,0,1-.46,1.09,2,2,0,0,1-1.32.39H120v1.71h-.91v-4.67Z" transform="translate(-24.54 -5.97)"/><path class="cls-1" d="M132.43,135l-1.11-2.07L130.19,135Zm2,1.82h-1l-.54-1h-3.14l-.54,1h-1l2.54-4.67h1.14Z" transform="translate(-24.54 -5.97)"/><polygon class="cls-1" points="119.72 130.86 118.36 130.86 115.18 126.97 115.18 130.86 114.27 130.86 114.27 126.19 115.63 126.19 118.81 130.09 118.81 126.19 119.72 126.19 119.72 130.86"/><rect class="cls-1" x="124.82" y="126.19" width="0.91" height="4.68"/><path class="cls-1" d="M158.89,135l-1.11-2.07L156.66,135Zm2,1.82h-1l-.54-1H156.2l-.53,1h-1l2.55-4.67h1.13Z" transform="translate(-24.54 -5.97)"/><rect class="cls-1" x="76.06" y="134.48" width="0.91" height="5.5"/><polygon class="cls-1" points="81.58 135.31 81.58 136.13 83.81 136.13 83.81 139.99 84.72 139.99 84.72 136.13 86.96 136.13 86.96 135.31 81.58 135.31"/><path class="cls-1" d="M118.4,142.06l1.11,2.07h-2.23Zm-.57-.78L115.28,146h1l.54-1H120l.54,1h1L119,141.28Z" transform="translate(-24.54 -5.97)"/><polygon class="cls-1" points="101.36 135.31 101.36 139.99 105.88 139.99 105.88 139.16 102.27 139.16 102.27 135.31 101.36 135.31"/><rect class="cls-1" x="110.37" y="135.31" width="0.91" height="4.68"/><path class="cls-1" d="M143.33,142.06l1.11,2.07h-2.23Zm-.57-.78L140.22,146h1l.54-1h3.14l.54,1h1l-2.55-4.68Z" transform="translate(-24.54 -5.97)"/><path class="cls-1" d="M51.54,138.18c-4,.54-7.91,1.23-11.81,2.14-1.95.46-3.89,1-5.81,1.56-1,.3-1.92.61-2.86,1l-1.12.41a31.31,31.31,0,0,0-5.4,3.37,29.38,29.38,0,0,1,5.76-1.88l.81-.31c.66-.25,1.8-.64,2.69-.92q2.85-.9,5.78-1.59c3.89-.93,7.85-1.63,11.82-2.18a205.46,205.46,0,0,1,24-1.74l0-1.52a209.66,209.66,0,0,0-23.87,1.71" transform="translate(-24.54 -5.97)"/><path class="cls-1" d="M215.24,129c-.67.25-1.81.63-2.7.92-1.9.6-3.83,1.12-5.78,1.59-3.89.93-7.85,1.63-11.82,2.18a207.49,207.49,0,0,1-24,1.74l0,1.52a209.84,209.84,0,0,0,23.88-1.71c3.95-.54,7.9-1.23,11.8-2.14,2-.45,3.89-1,5.81-1.56,1-.3,1.92-.61,2.86-1l1.12-.41a30.66,30.66,0,0,0,5.4-3.36,29.38,29.38,0,0,1-5.76,1.88Z" transform="translate(-24.54 -5.97)"/><path class="cls-1" d="M167.21,70.55v12l-7.4-.7V69.09l-1.6-.32,0-1,11.93,2.9Zm-37.63-6.06V78.84l-9.06-.91,0-15.13-1.22-.19,0-1.2,13.79,3.19Zm-30-7.95a5.24,5.24,0,0,1-.27.85,5.89,5.89,0,0,1-1.14,1.84,3.49,3.49,0,0,1-2.88,1.28,3.59,3.59,0,0,1-2.8-2A5.2,5.2,0,0,1,92,55.12a5.33,5.33,0,0,1,1.7-2.95A3.59,3.59,0,0,1,97,51.36a3.49,3.49,0,0,1,2.22,2.23,5.57,5.57,0,0,1,.33,2.95M216,82.28l-.8.3c-.67.25-1.81.64-2.7.92-1.9.61-3.83,1.13-5.78,1.6-3.89.93-7.85,1.63-11.82,2.18A201.62,201.62,0,0,1,172.29,89l.25-23.42c-8.48-1.3-60-10.34-60-10.34S95.2,44.82,94.74,44.53l-15.09,18L79.92,78l3,0,1.8,2-.24-7-.05-2.15a2.49,2.49,0,0,1,1.24-2,3.73,3.73,0,0,1,4.66.45,3.13,3.13,0,0,1,.32.6,1.9,1.9,0,0,1,.08.36,2.33,2.33,0,0,1,0,.3l0,1.07.05,2.13.12,4.26.21,9.3L100,97.48l.2-10-4.71-.84s4.12-.51,4.73-.62L100,82.83l.8.31-.17,2.8a68.75,68.75,0,0,0,6.94-1.68A34.22,34.22,0,0,0,112,82.73l.45-26.06.41-1.13,0,26.77a20.12,20.12,0,0,0,3-2.36s7.21,2.37,10.7,3.28,7,1.74,10.55,2.33a63.54,63.54,0,0,0,10.74,1,29.63,29.63,0,0,0,9-1.25l-.13-1.57h.52l-.13,1.52c.44-.15.87-.31,1.29-.49l0,.05.05,0a6.76,6.76,0,0,1-1.34,1.11l.43,21.36,2.18-.23V94.62a4.12,4.12,0,0,1,1.1-2.7,3.9,3.9,0,0,1,3.13-1,3.31,3.31,0,0,1,2.5,1.45,6.3,6.3,0,0,1,.69,3.25c0,3.57,0,10.74,0,10.74l4.9-.51.17-15.3a205,205,0,0,0,22.53-1.68c3.95-.53,7.9-1.22,11.8-2.14,2-.45,3.89-1,5.81-1.56,1-.29,1.92-.61,2.86-1l1.12-.41a31.64,31.64,0,0,0,5.4-3.36A30.06,30.06,0,0,1,216,82.28" transform="translate(-24.54 -5.97)"/><path class="cls-1" d="M73.38,78.55l.25,11.6a204.25,204.25,0,0,0-22.09,1.67c-4,.54-7.91,1.23-11.81,2.13q-2.92.69-5.81,1.57c-1,.29-1.92.61-2.86,1l-1.12.41a31.26,31.26,0,0,0-5.4,3.36,30.06,30.06,0,0,1,5.76-1.88l.81-.3c.66-.25,1.8-.65,2.69-.92,1.9-.61,3.83-1.13,5.78-1.6,3.89-.93,7.85-1.62,11.82-2.18a201.83,201.83,0,0,1,22.26-1.69l.21,9.7,25.83,8.52.19-11.37L82.32,78.62Z" transform="translate(-24.54 -5.97)"/><polygon class="cls-1" points="149.8 59.07 131.99 49.54 70.8 38.21 88.33 48.27 149.8 59.07"/><path class="cls-1" d="M113.53,89.19l-.61-.08,0,22.8,8.1-.84V94.12a3.68,3.68,0,0,1,1.76-3.07,5.08,5.08,0,0,1,3.2-.42,4.16,4.16,0,0,1,2.91,1.94,2.9,2.9,0,0,1,.26.89l0,16.78,7.35-.76.66-19.74c-2.77.13-5.55.18-8.33.17-5.1,0-10.2-.21-15.29-.72" transform="translate(-24.54 -5.97)"/><path class="cls-1" d="M146.78,101.58v-.64l.7,0,0-7.31,4.22,0,0,7.26,1.24.33ZM151.67,88a62.28,62.28,0,0,1-7.56,1.21c-2.32.25-4.63.4-7,.5l.32.21.38,19.4,18.43-1.91.62-21.32a11.47,11.47,0,0,1-1.57.78A26.23,26.23,0,0,1,151.67,88" transform="translate(-24.54 -5.97)"/><path class="cls-1" d="M165,91.84a4.18,4.18,0,0,0-1.6-.39s1.81,1.17,1.85,2.57V106.1l1.35.27,0-11.38s.05-2.27-1.62-3.15" transform="translate(-24.54 -5.97)"/><path class="cls-1" d="M125.08,91.17a3.22,3.22,0,0,1,1.8,3l0,15.74,1.53.37V94.24A2.53,2.53,0,0,0,128,92.6c-.71-1.1-2.88-1.43-2.88-1.43" transform="translate(-24.54 -5.97)"/><path class="cls-1" d="M100.61,101.73l2.31-.16,0,2.48-2.32.52,4.12-.26v2.46l-4.21.82,5.93-.38v2.32l-5.84.57,7.41.17,3.12,1L111.82,89c-3.83-.46-7.39-.88-11.19-1.45Z" transform="translate(-24.54 -5.97)"/><path class="cls-1" d="M88.79,69.38a3.86,3.86,0,0,0-2.25.09,2.22,2.22,0,0,0-1.38,1.89l.37,9.69L87,82.66l-.41-11.09s.36-2.16,2.25-2.19" transform="translate(-24.54 -5.97)"/><path class="cls-1" d="M94.27,56.31A7.26,7.26,0,0,1,95.19,52a4.8,4.8,0,0,0-2.56,4.76c.23,2.18,2,3.77,4.05,3,0,0-2.12-.43-2.41-3.38" transform="translate(-24.54 -5.97)"/><polygon class="cls-1" points="102.58 71.96 104.26 72.13 104.29 58.37 97.36 57.05 102.58 58.87 102.58 71.96"/><polygon class="cls-1" points="140.69 75.86 142.04 76 142.04 64.48 136.08 63.33 140.69 65 140.69 75.86"/><polygon class="cls-1" points="125.41 88.36 125.36 94.86 126.6 94.84 126.68 88.18 124.16 88.17 125.41 88.36"/></svg>