<?xml version="1.0" encoding="utf-8"?>
<!-- Generator: Adobe Illustrator 26.0.1, SVG Export Plug-In . SVG Version: 6.00 Build 0)  -->
<svg version="1.1" id="Livello_1" xmlns="http://www.w3.org/2000/svg" xmlns:xlink="http://www.w3.org/1999/xlink" x="0px" y="0px"
	 viewBox="0 0 800 800" style="enable-background:new 0 0 800 800;" xml:space="preserve">
<style type="text/css">
	.st0{fill:#004D71;}
</style>
<g>
	<path class="st0" d="M665.84,391.25c0,12.51-10.14,22.66-22.65,22.66c-12.51,0-22.66-10.14-22.66-22.66
		c0-12.51,10.14-22.65,22.66-22.65C655.7,368.6,665.84,378.74,665.84,391.25"/>
	<rect x="87.37" y="322.15" class="st0" width="18.23" height="114.84"/>
	<polygon class="st0" points="139.66,350 198.52,437 198.76,437 198.76,409.1 139.66,321.95 121.43,321.95 121.43,437 139.66,437 	
		"/>
	<rect x="213.39" y="321.95" class="st0" width="18.23" height="115.05"/>
	<rect x="247.84" y="351" class="st0" width="18.23" height="86"/>
	<path class="st0" d="M366.05,390.67c0-42.27-28.45-68.52-74.53-68.52h-43.67l5.41,14.42h38.26c36.66,0,55.7,20.84,55.7,54.09
		c0,21.71-8.12,37.78-23.95,46.33h26.28C360.2,425.51,366.05,409.8,366.05,390.67"/>
	<rect x="382.27" y="322.15" class="st0" width="18.23" height="114.84"/>
	<path class="st0" d="M434.96,391.27c0-32.85,22.24-53.69,51.89-53.69c15.83,0,28.85,6.01,37.26,16.63l6.81-18.63
		c-12.02-9.02-27.25-13.82-44.28-13.82c-39.47,0-70.52,28.85-70.52,69.92c0,17.92,5.92,33.48,15.87,45.32h26.3
		C444.02,428.13,434.96,412.11,434.96,391.27"/>
	<path class="st0" d="M555.57,400.29v-13.62l-64.31-0.6l-5.41,14.42h50.29c-1.68,16.25-9.17,28.96-20.86,36.51h25.14
		C548.89,426.79,554.26,414.09,555.57,400.29"/>
	<path class="st0" d="M712.63,391.07c0-38.27-26.84-65.91-62.51-69.52v0.2l6.21,16.83c22.24,5.61,37.66,24.64,37.66,52.49
		c0,20.83-8.64,36.88-22.41,45.93h24.71C706.53,425.05,712.63,409.26,712.63,391.07"/>
	<path class="st0" d="M590.42,391.27c0-28.65,16.23-48.08,39.47-53.09v0.2l6.01-16.43c-36.46,2.8-64.31,30.65-64.31,69.52
		c0,17.99,5.99,33.63,16.04,45.53h24.72C598.88,427.84,590.42,411.94,590.42,391.27"/>
	<polygon class="st0" points="198.76,437.35 198.76,437 198.52,437 	"/>
	<rect x="149.72" y="453.26" class="st0" width="3.2" height="24.78"/>
	<path class="st0" d="M190.88,478.04v-24.78h3.49l7.94,12.54c1.84,2.91,3.27,5.52,4.45,8.05l0.07-0.04
		c-0.29-3.31-0.37-6.32-0.37-10.19v-10.37h3.01v24.78h-3.24l-7.87-12.57c-1.73-2.76-3.38-5.59-4.63-8.27l-0.11,0.04
		c0.18,3.13,0.26,6.1,0.26,10.22v10.59H190.88z"/>
	<path class="st0" d="M247.44,453.59c1.95-0.29,4.27-0.51,6.81-0.51c4.59,0,7.87,1.07,10.04,3.09c2.21,2.02,3.5,4.89,3.5,8.9
		c0,4.04-1.25,7.35-3.57,9.63c-2.32,2.32-6.14,3.56-10.96,3.56c-2.28,0-4.19-0.11-5.81-0.3V453.59z M250.64,475.51
		c0.81,0.15,1.99,0.19,3.24,0.19c6.84,0,10.55-3.82,10.55-10.52c0.04-5.85-3.27-9.56-10.04-9.56c-1.66,0-2.91,0.15-3.75,0.33V475.51
		z"/>
	<path class="st0" d="M307.51,453.26v14.67c0,5.55,2.46,7.9,5.77,7.9c3.68,0,6.03-2.43,6.03-7.9v-14.67h3.24v14.45
		c0,7.62-4.01,10.74-9.38,10.74c-5.07,0-8.9-2.91-8.9-10.59v-14.6H307.51z"/>
	<path class="st0" d="M360.03,474.15c1.43,0.88,3.53,1.62,5.74,1.62c3.27,0,5.18-1.73,5.18-4.23c0-2.32-1.32-3.64-4.67-4.93
		c-4.05-1.43-6.55-3.53-6.55-7.02c0-3.86,3.2-6.73,8.02-6.73c2.54,0,4.38,0.59,5.48,1.22l-0.88,2.61c-0.81-0.44-2.47-1.17-4.71-1.17
		c-3.38,0-4.67,2.02-4.67,3.71c0,2.32,1.51,3.46,4.93,4.78c4.19,1.62,6.32,3.64,6.32,7.28c0,3.82-2.83,7.13-8.68,7.13
		c-2.39,0-5-0.7-6.32-1.58L360.03,474.15z"/>
	<polygon class="st0" points="415.67,455.98 408.13,455.98 408.13,453.26 426.48,453.26 426.48,455.98 418.91,455.98 418.91,478.04 
		415.67,478.04 	"/>
	<path class="st0" d="M461.61,453.59c1.62-0.33,3.93-0.52,6.14-0.52c3.42,0,5.62,0.62,7.17,2.02c1.25,1.1,1.95,2.8,1.95,4.71
		c0,3.27-2.06,5.44-4.67,6.32v0.11c1.91,0.66,3.05,2.43,3.64,5c0.81,3.46,1.4,5.84,1.91,6.8h-3.31c-0.4-0.7-0.96-2.83-1.66-5.92
		c-0.73-3.42-2.06-4.71-4.96-4.82h-3.02v10.74h-3.2V453.59z M464.81,464.88h3.27c3.42,0,5.59-1.88,5.59-4.71
		c0-3.2-2.32-4.6-5.7-4.63c-1.54,0-2.65,0.15-3.16,0.29V464.88z"/>
	<rect x="513.76" y="453.26" class="st0" width="3.2" height="24.78"/>
	<polygon class="st0" points="567.75,466.42 558.12,466.42 558.12,475.36 568.86,475.36 568.86,478.04 554.92,478.04 554.92,453.26 
		568.3,453.26 568.3,455.94 558.12,455.94 558.12,463.78 567.75,463.78 	"/>
	<path class="st0" d="M604.94,474.15c1.43,0.88,3.53,1.62,5.74,1.62c3.27,0,5.18-1.73,5.18-4.23c0-2.32-1.32-3.64-4.67-4.93
		c-4.04-1.43-6.55-3.53-6.55-7.02c0-3.86,3.2-6.73,8.02-6.73c2.54,0,4.38,0.59,5.48,1.22l-0.88,2.61c-0.81-0.44-2.46-1.17-4.7-1.17
		c-3.38,0-4.67,2.02-4.67,3.71c0,2.32,1.51,3.46,4.93,4.78c4.19,1.62,6.33,3.64,6.33,7.28c0,3.82-2.83,7.13-8.68,7.13
		c-2.39,0-5-0.7-6.32-1.58L604.94,474.15z"/>
</g>
</svg>
